G04 MADE WITH FRITZING*
G04 WWW.FRITZING.ORG*
G04 DOUBLE SIDED*
G04 HOLES PLATED*
G04 CONTOUR ON CENTER OF CONTOUR VECTOR*
%ASAXBY*%
%FSLAX23Y23*%
%MOIN*%
%OFA0B0*%
%SFA1.0B1.0*%
%ADD10C,0.056944*%
%ADD11C,0.088000*%
%ADD12C,0.084000*%
%ADD13R,0.001000X0.001000*%
%LNMASK0*%
G90*
G70*
G54D10*
X136Y631D03*
X136Y731D03*
X136Y831D03*
X136Y931D03*
X136Y1031D03*
X136Y1131D03*
X136Y1231D03*
X136Y1331D03*
X136Y2231D03*
X136Y2131D03*
X136Y2031D03*
X136Y1931D03*
X136Y1831D03*
X136Y1731D03*
X136Y1631D03*
X136Y1531D03*
G54D11*
X886Y2231D03*
X986Y2231D03*
X1086Y2231D03*
X1186Y2231D03*
X886Y2031D03*
X986Y2031D03*
X1086Y2031D03*
X1186Y2031D03*
X886Y1831D03*
X986Y1831D03*
X1086Y1831D03*
X1186Y1831D03*
X186Y1931D03*
X286Y1931D03*
X386Y1931D03*
X486Y1931D03*
X186Y2231D03*
X286Y2231D03*
X386Y2231D03*
X486Y2231D03*
X636Y431D03*
X536Y431D03*
X436Y431D03*
G54D12*
X786Y231D03*
X886Y221D03*
X986Y231D03*
X86Y231D03*
X186Y221D03*
X286Y231D03*
X436Y231D03*
X536Y221D03*
X636Y231D03*
G54D13*
X44Y273D02*
X127Y273D01*
X394Y273D02*
X477Y273D01*
X744Y273D02*
X827Y273D01*
X44Y272D02*
X127Y272D01*
X394Y272D02*
X477Y272D01*
X744Y272D02*
X827Y272D01*
X44Y271D02*
X127Y271D01*
X394Y271D02*
X477Y271D01*
X744Y271D02*
X827Y271D01*
X44Y270D02*
X127Y270D01*
X394Y270D02*
X477Y270D01*
X744Y270D02*
X827Y270D01*
X44Y269D02*
X127Y269D01*
X394Y269D02*
X477Y269D01*
X744Y269D02*
X827Y269D01*
X44Y268D02*
X127Y268D01*
X394Y268D02*
X477Y268D01*
X744Y268D02*
X827Y268D01*
X44Y267D02*
X127Y267D01*
X394Y267D02*
X477Y267D01*
X744Y267D02*
X827Y267D01*
X44Y266D02*
X127Y266D01*
X394Y266D02*
X477Y266D01*
X744Y266D02*
X827Y266D01*
X44Y265D02*
X127Y265D01*
X394Y265D02*
X477Y265D01*
X744Y265D02*
X827Y265D01*
X44Y264D02*
X127Y264D01*
X394Y264D02*
X477Y264D01*
X744Y264D02*
X827Y264D01*
X44Y263D02*
X127Y263D01*
X394Y263D02*
X477Y263D01*
X744Y263D02*
X827Y263D01*
X44Y262D02*
X127Y262D01*
X394Y262D02*
X477Y262D01*
X744Y262D02*
X827Y262D01*
X44Y261D02*
X127Y261D01*
X394Y261D02*
X477Y261D01*
X744Y261D02*
X827Y261D01*
X44Y260D02*
X127Y260D01*
X394Y260D02*
X477Y260D01*
X744Y260D02*
X827Y260D01*
X44Y259D02*
X127Y259D01*
X394Y259D02*
X477Y259D01*
X744Y259D02*
X827Y259D01*
X44Y258D02*
X127Y258D01*
X394Y258D02*
X477Y258D01*
X744Y258D02*
X827Y258D01*
X44Y257D02*
X127Y257D01*
X394Y257D02*
X477Y257D01*
X744Y257D02*
X827Y257D01*
X44Y256D02*
X127Y256D01*
X394Y256D02*
X477Y256D01*
X744Y256D02*
X827Y256D01*
X44Y255D02*
X127Y255D01*
X394Y255D02*
X477Y255D01*
X744Y255D02*
X827Y255D01*
X44Y254D02*
X127Y254D01*
X394Y254D02*
X477Y254D01*
X744Y254D02*
X827Y254D01*
X44Y253D02*
X127Y253D01*
X394Y253D02*
X477Y253D01*
X744Y253D02*
X827Y253D01*
X44Y252D02*
X127Y252D01*
X394Y252D02*
X477Y252D01*
X744Y252D02*
X827Y252D01*
X44Y251D02*
X127Y251D01*
X394Y251D02*
X477Y251D01*
X744Y251D02*
X827Y251D01*
X44Y250D02*
X127Y250D01*
X394Y250D02*
X477Y250D01*
X744Y250D02*
X827Y250D01*
X44Y249D02*
X127Y249D01*
X394Y249D02*
X477Y249D01*
X744Y249D02*
X827Y249D01*
X44Y248D02*
X127Y248D01*
X394Y248D02*
X477Y248D01*
X744Y248D02*
X827Y248D01*
X44Y247D02*
X127Y247D01*
X394Y247D02*
X477Y247D01*
X744Y247D02*
X827Y247D01*
X44Y246D02*
X80Y246D01*
X91Y246D02*
X127Y246D01*
X394Y246D02*
X430Y246D01*
X441Y246D02*
X477Y246D01*
X744Y246D02*
X780Y246D01*
X791Y246D02*
X827Y246D01*
X44Y245D02*
X78Y245D01*
X93Y245D02*
X127Y245D01*
X394Y245D02*
X428Y245D01*
X443Y245D02*
X477Y245D01*
X744Y245D02*
X778Y245D01*
X793Y245D02*
X827Y245D01*
X44Y244D02*
X76Y244D01*
X95Y244D02*
X127Y244D01*
X394Y244D02*
X426Y244D01*
X445Y244D02*
X477Y244D01*
X744Y244D02*
X776Y244D01*
X795Y244D02*
X827Y244D01*
X44Y243D02*
X75Y243D01*
X96Y243D02*
X127Y243D01*
X394Y243D02*
X425Y243D01*
X446Y243D02*
X477Y243D01*
X744Y243D02*
X775Y243D01*
X796Y243D02*
X827Y243D01*
X44Y242D02*
X74Y242D01*
X97Y242D02*
X127Y242D01*
X394Y242D02*
X424Y242D01*
X447Y242D02*
X477Y242D01*
X744Y242D02*
X774Y242D01*
X797Y242D02*
X827Y242D01*
X44Y241D02*
X73Y241D01*
X98Y241D02*
X127Y241D01*
X394Y241D02*
X423Y241D01*
X448Y241D02*
X477Y241D01*
X744Y241D02*
X773Y241D01*
X798Y241D02*
X827Y241D01*
X44Y240D02*
X73Y240D01*
X99Y240D02*
X127Y240D01*
X394Y240D02*
X423Y240D01*
X449Y240D02*
X477Y240D01*
X744Y240D02*
X773Y240D01*
X799Y240D02*
X827Y240D01*
X44Y239D02*
X72Y239D01*
X99Y239D02*
X127Y239D01*
X394Y239D02*
X422Y239D01*
X449Y239D02*
X477Y239D01*
X744Y239D02*
X772Y239D01*
X799Y239D02*
X827Y239D01*
X44Y238D02*
X71Y238D01*
X100Y238D02*
X127Y238D01*
X394Y238D02*
X421Y238D01*
X450Y238D02*
X477Y238D01*
X744Y238D02*
X771Y238D01*
X800Y238D02*
X827Y238D01*
X44Y237D02*
X71Y237D01*
X100Y237D02*
X127Y237D01*
X394Y237D02*
X421Y237D01*
X450Y237D02*
X477Y237D01*
X744Y237D02*
X771Y237D01*
X800Y237D02*
X827Y237D01*
X44Y236D02*
X71Y236D01*
X101Y236D02*
X127Y236D01*
X394Y236D02*
X421Y236D01*
X451Y236D02*
X477Y236D01*
X744Y236D02*
X771Y236D01*
X800Y236D02*
X827Y236D01*
X44Y235D02*
X70Y235D01*
X101Y235D02*
X127Y235D01*
X394Y235D02*
X420Y235D01*
X451Y235D02*
X477Y235D01*
X744Y235D02*
X770Y235D01*
X801Y235D02*
X827Y235D01*
X44Y234D02*
X70Y234D01*
X101Y234D02*
X127Y234D01*
X394Y234D02*
X420Y234D01*
X451Y234D02*
X477Y234D01*
X744Y234D02*
X770Y234D01*
X801Y234D02*
X827Y234D01*
X44Y233D02*
X70Y233D01*
X101Y233D02*
X127Y233D01*
X394Y233D02*
X420Y233D01*
X451Y233D02*
X477Y233D01*
X744Y233D02*
X770Y233D01*
X801Y233D02*
X827Y233D01*
X44Y232D02*
X70Y232D01*
X101Y232D02*
X127Y232D01*
X394Y232D02*
X420Y232D01*
X451Y232D02*
X477Y232D01*
X744Y232D02*
X770Y232D01*
X801Y232D02*
X827Y232D01*
X44Y231D02*
X70Y231D01*
X101Y231D02*
X127Y231D01*
X394Y231D02*
X420Y231D01*
X451Y231D02*
X477Y231D01*
X744Y231D02*
X770Y231D01*
X801Y231D02*
X827Y231D01*
X44Y230D02*
X70Y230D01*
X101Y230D02*
X127Y230D01*
X394Y230D02*
X420Y230D01*
X451Y230D02*
X477Y230D01*
X744Y230D02*
X770Y230D01*
X801Y230D02*
X827Y230D01*
X44Y229D02*
X70Y229D01*
X101Y229D02*
X127Y229D01*
X394Y229D02*
X420Y229D01*
X451Y229D02*
X477Y229D01*
X744Y229D02*
X770Y229D01*
X801Y229D02*
X827Y229D01*
X44Y228D02*
X71Y228D01*
X101Y228D02*
X127Y228D01*
X394Y228D02*
X421Y228D01*
X451Y228D02*
X477Y228D01*
X744Y228D02*
X771Y228D01*
X801Y228D02*
X827Y228D01*
X44Y227D02*
X71Y227D01*
X100Y227D02*
X127Y227D01*
X394Y227D02*
X421Y227D01*
X450Y227D02*
X477Y227D01*
X744Y227D02*
X771Y227D01*
X800Y227D02*
X827Y227D01*
X44Y226D02*
X71Y226D01*
X100Y226D02*
X127Y226D01*
X394Y226D02*
X421Y226D01*
X450Y226D02*
X477Y226D01*
X744Y226D02*
X771Y226D01*
X800Y226D02*
X827Y226D01*
X44Y225D02*
X72Y225D01*
X100Y225D02*
X127Y225D01*
X394Y225D02*
X422Y225D01*
X450Y225D02*
X477Y225D01*
X744Y225D02*
X772Y225D01*
X799Y225D02*
X827Y225D01*
X44Y224D02*
X72Y224D01*
X99Y224D02*
X127Y224D01*
X394Y224D02*
X422Y224D01*
X449Y224D02*
X477Y224D01*
X744Y224D02*
X772Y224D01*
X799Y224D02*
X827Y224D01*
X44Y223D02*
X73Y223D01*
X98Y223D02*
X127Y223D01*
X394Y223D02*
X423Y223D01*
X448Y223D02*
X477Y223D01*
X744Y223D02*
X773Y223D01*
X798Y223D02*
X827Y223D01*
X44Y222D02*
X74Y222D01*
X97Y222D02*
X127Y222D01*
X394Y222D02*
X424Y222D01*
X447Y222D02*
X477Y222D01*
X744Y222D02*
X774Y222D01*
X797Y222D02*
X827Y222D01*
X44Y221D02*
X75Y221D01*
X97Y221D02*
X127Y221D01*
X394Y221D02*
X425Y221D01*
X447Y221D02*
X477Y221D01*
X744Y221D02*
X775Y221D01*
X796Y221D02*
X827Y221D01*
X44Y220D02*
X76Y220D01*
X95Y220D02*
X127Y220D01*
X394Y220D02*
X426Y220D01*
X445Y220D02*
X477Y220D01*
X744Y220D02*
X776Y220D01*
X795Y220D02*
X827Y220D01*
X44Y219D02*
X77Y219D01*
X94Y219D02*
X127Y219D01*
X394Y219D02*
X427Y219D01*
X444Y219D02*
X477Y219D01*
X744Y219D02*
X777Y219D01*
X794Y219D02*
X827Y219D01*
X44Y218D02*
X79Y218D01*
X92Y218D02*
X127Y218D01*
X394Y218D02*
X429Y218D01*
X442Y218D02*
X477Y218D01*
X744Y218D02*
X779Y218D01*
X792Y218D02*
X827Y218D01*
X44Y217D02*
X83Y217D01*
X89Y217D02*
X127Y217D01*
X394Y217D02*
X433Y217D01*
X439Y217D02*
X477Y217D01*
X744Y217D02*
X783Y217D01*
X789Y217D02*
X827Y217D01*
X44Y216D02*
X127Y216D01*
X394Y216D02*
X477Y216D01*
X744Y216D02*
X827Y216D01*
X44Y215D02*
X127Y215D01*
X394Y215D02*
X477Y215D01*
X744Y215D02*
X827Y215D01*
X44Y214D02*
X127Y214D01*
X394Y214D02*
X477Y214D01*
X744Y214D02*
X827Y214D01*
X44Y213D02*
X127Y213D01*
X394Y213D02*
X477Y213D01*
X744Y213D02*
X827Y213D01*
X44Y212D02*
X127Y212D01*
X394Y212D02*
X477Y212D01*
X744Y212D02*
X827Y212D01*
X44Y211D02*
X127Y211D01*
X394Y211D02*
X477Y211D01*
X744Y211D02*
X827Y211D01*
X44Y210D02*
X127Y210D01*
X394Y210D02*
X477Y210D01*
X744Y210D02*
X827Y210D01*
X44Y209D02*
X127Y209D01*
X394Y209D02*
X477Y209D01*
X744Y209D02*
X827Y209D01*
X44Y208D02*
X127Y208D01*
X394Y208D02*
X477Y208D01*
X744Y208D02*
X827Y208D01*
X44Y207D02*
X127Y207D01*
X394Y207D02*
X477Y207D01*
X744Y207D02*
X827Y207D01*
X44Y206D02*
X127Y206D01*
X394Y206D02*
X477Y206D01*
X744Y206D02*
X827Y206D01*
X44Y205D02*
X127Y205D01*
X394Y205D02*
X477Y205D01*
X744Y205D02*
X827Y205D01*
X44Y204D02*
X127Y204D01*
X394Y204D02*
X477Y204D01*
X744Y204D02*
X827Y204D01*
X44Y203D02*
X127Y203D01*
X394Y203D02*
X477Y203D01*
X744Y203D02*
X827Y203D01*
X44Y202D02*
X127Y202D01*
X394Y202D02*
X477Y202D01*
X744Y202D02*
X827Y202D01*
X44Y201D02*
X127Y201D01*
X394Y201D02*
X477Y201D01*
X744Y201D02*
X827Y201D01*
X44Y200D02*
X127Y200D01*
X394Y200D02*
X477Y200D01*
X744Y200D02*
X827Y200D01*
X44Y199D02*
X127Y199D01*
X394Y199D02*
X477Y199D01*
X744Y199D02*
X827Y199D01*
X44Y198D02*
X127Y198D01*
X394Y198D02*
X477Y198D01*
X744Y198D02*
X827Y198D01*
X44Y197D02*
X127Y197D01*
X394Y197D02*
X477Y197D01*
X744Y197D02*
X827Y197D01*
X44Y196D02*
X127Y196D01*
X394Y196D02*
X477Y196D01*
X744Y196D02*
X827Y196D01*
X44Y195D02*
X127Y195D01*
X394Y195D02*
X477Y195D01*
X744Y195D02*
X827Y195D01*
X44Y194D02*
X127Y194D01*
X394Y194D02*
X477Y194D01*
X744Y194D02*
X827Y194D01*
X44Y193D02*
X127Y193D01*
X394Y193D02*
X477Y193D01*
X744Y193D02*
X827Y193D01*
X44Y192D02*
X127Y192D01*
X394Y192D02*
X477Y192D01*
X744Y192D02*
X827Y192D01*
X44Y191D02*
X127Y191D01*
X394Y191D02*
X477Y191D01*
X744Y191D02*
X827Y191D01*
X44Y190D02*
X127Y190D01*
X394Y190D02*
X477Y190D01*
X744Y190D02*
X827Y190D01*
D02*
G04 End of Mask0*
M02*