; NON-PLATED HOLES START AT T1
; THROUGH (PLATED) HOLES START AT T100
M48
INCH
T1C0.056944
T100C0.040000
T101C0.038000
%
T1
X001361Y007313
X001361Y017313
X001361Y011313
X001361Y021313
X001361Y008313
X001361Y018313
X001361Y012313
X001361Y022313
X001361Y009313
X001361Y019313
X001361Y013313
X001361Y015313
X001361Y006313
X001361Y016313
X001361Y010313
X001361Y020313
T100
X008861Y002213
X009861Y002313
X001861Y002213
X002861Y002313
X004361Y002313
X005361Y002213
X006361Y002313
X007861Y002313
X000861Y002313
T101
X004361Y004313
X003861Y022313
X008861Y020313
X002861Y022313
X011861Y020313
X004861Y019313
X010861Y020313
X001861Y019313
X008861Y018313
X011861Y018313
X008861Y022313
X006361Y004313
X010861Y018313
X011861Y022313
X005361Y004313
X010861Y022313
X004861Y022313
X009861Y020313
X001861Y022313
X003861Y019313
X002861Y019313
X009861Y018313
X009861Y022313
T00
M30
