G04 MADE WITH FRITZING*
G04 WWW.FRITZING.ORG*
G04 DOUBLE SIDED*
G04 HOLES PLATED*
G04 CONTOUR ON CENTER OF CONTOUR VECTOR*
%ASAXBY*%
%FSLAX23Y23*%
%MOIN*%
%OFA0B0*%
%SFA1.0B1.0*%
%ADD10C,0.010000*%
%ADD11C,0.005000*%
%ADD12R,0.001000X0.001000*%
%LNSILK1*%
G90*
G70*
G54D10*
X836Y2181D02*
X1236Y2181D01*
D02*
X1236Y2181D02*
X1236Y2281D01*
D02*
X1236Y2281D02*
X836Y2281D01*
D02*
X836Y2281D02*
X836Y2181D01*
D02*
X836Y1981D02*
X1236Y1981D01*
D02*
X1236Y1981D02*
X1236Y2081D01*
D02*
X1236Y2081D02*
X836Y2081D01*
D02*
X836Y2081D02*
X836Y1981D01*
D02*
X836Y1781D02*
X1236Y1781D01*
D02*
X1236Y1781D02*
X1236Y1881D01*
D02*
X1236Y1881D02*
X836Y1881D01*
D02*
X836Y1881D02*
X836Y1781D01*
D02*
X136Y1881D02*
X536Y1881D01*
D02*
X536Y1881D02*
X536Y1981D01*
D02*
X536Y1981D02*
X136Y1981D01*
D02*
X136Y2181D02*
X536Y2181D01*
D02*
X536Y2181D02*
X536Y2281D01*
D02*
X536Y2281D02*
X136Y2281D01*
D02*
X686Y481D02*
X386Y481D01*
D02*
X386Y481D02*
X386Y381D01*
D02*
X386Y381D02*
X686Y381D01*
D02*
X686Y381D02*
X686Y481D01*
G54D11*
D02*
X736Y346D02*
X736Y126D01*
D02*
X1036Y346D02*
X1036Y126D01*
D02*
X1036Y346D02*
X736Y346D01*
D02*
X1036Y126D02*
X986Y126D01*
D02*
X986Y126D02*
X786Y126D01*
D02*
X786Y126D02*
X736Y126D01*
D02*
X786Y126D02*
X786Y176D01*
D02*
X786Y176D02*
X986Y176D01*
D02*
X986Y176D02*
X986Y126D01*
D02*
X36Y346D02*
X36Y126D01*
D02*
X336Y346D02*
X336Y126D01*
D02*
X336Y346D02*
X36Y346D01*
D02*
X336Y126D02*
X286Y126D01*
D02*
X286Y126D02*
X86Y126D01*
D02*
X86Y126D02*
X36Y126D01*
D02*
X86Y126D02*
X86Y176D01*
D02*
X86Y176D02*
X286Y176D01*
D02*
X286Y176D02*
X286Y126D01*
D02*
X386Y346D02*
X386Y126D01*
D02*
X686Y346D02*
X686Y126D01*
D02*
X686Y346D02*
X386Y346D01*
D02*
X686Y126D02*
X636Y126D01*
D02*
X636Y126D02*
X436Y126D01*
D02*
X436Y126D02*
X386Y126D01*
D02*
X436Y126D02*
X436Y176D01*
D02*
X436Y176D02*
X636Y176D01*
D02*
X636Y176D02*
X636Y126D01*
G54D12*
X0Y2323D02*
X1299Y2323D01*
X0Y2322D02*
X1299Y2322D01*
X0Y2321D02*
X1299Y2321D01*
X0Y2320D02*
X1299Y2320D01*
X0Y2319D02*
X1299Y2319D01*
X0Y2318D02*
X1299Y2318D01*
X0Y2317D02*
X1299Y2317D01*
X0Y2316D02*
X1299Y2316D01*
X0Y2315D02*
X7Y2315D01*
X1292Y2315D02*
X1299Y2315D01*
X0Y2314D02*
X7Y2314D01*
X1292Y2314D02*
X1299Y2314D01*
X0Y2313D02*
X7Y2313D01*
X1292Y2313D02*
X1299Y2313D01*
X0Y2312D02*
X7Y2312D01*
X1292Y2312D02*
X1299Y2312D01*
X0Y2311D02*
X7Y2311D01*
X1292Y2311D02*
X1299Y2311D01*
X0Y2310D02*
X7Y2310D01*
X1292Y2310D02*
X1299Y2310D01*
X0Y2309D02*
X7Y2309D01*
X1292Y2309D02*
X1299Y2309D01*
X0Y2308D02*
X7Y2308D01*
X1292Y2308D02*
X1299Y2308D01*
X0Y2307D02*
X7Y2307D01*
X1292Y2307D02*
X1299Y2307D01*
X0Y2306D02*
X7Y2306D01*
X1292Y2306D02*
X1299Y2306D01*
X0Y2305D02*
X7Y2305D01*
X1292Y2305D02*
X1299Y2305D01*
X0Y2304D02*
X7Y2304D01*
X1292Y2304D02*
X1299Y2304D01*
X0Y2303D02*
X7Y2303D01*
X1292Y2303D02*
X1299Y2303D01*
X0Y2302D02*
X7Y2302D01*
X1292Y2302D02*
X1299Y2302D01*
X0Y2301D02*
X7Y2301D01*
X1292Y2301D02*
X1299Y2301D01*
X0Y2300D02*
X7Y2300D01*
X1292Y2300D02*
X1299Y2300D01*
X0Y2299D02*
X7Y2299D01*
X1292Y2299D02*
X1299Y2299D01*
X0Y2298D02*
X7Y2298D01*
X1292Y2298D02*
X1299Y2298D01*
X0Y2297D02*
X7Y2297D01*
X1292Y2297D02*
X1299Y2297D01*
X0Y2296D02*
X7Y2296D01*
X1292Y2296D02*
X1299Y2296D01*
X0Y2295D02*
X7Y2295D01*
X1292Y2295D02*
X1299Y2295D01*
X0Y2294D02*
X7Y2294D01*
X1292Y2294D02*
X1299Y2294D01*
X0Y2293D02*
X7Y2293D01*
X1292Y2293D02*
X1299Y2293D01*
X0Y2292D02*
X7Y2292D01*
X1292Y2292D02*
X1299Y2292D01*
X0Y2291D02*
X7Y2291D01*
X1292Y2291D02*
X1299Y2291D01*
X0Y2290D02*
X7Y2290D01*
X1292Y2290D02*
X1299Y2290D01*
X0Y2289D02*
X7Y2289D01*
X1292Y2289D02*
X1299Y2289D01*
X0Y2288D02*
X7Y2288D01*
X1292Y2288D02*
X1299Y2288D01*
X0Y2287D02*
X7Y2287D01*
X1292Y2287D02*
X1299Y2287D01*
X0Y2286D02*
X7Y2286D01*
X1292Y2286D02*
X1299Y2286D01*
X0Y2285D02*
X7Y2285D01*
X630Y2285D02*
X661Y2285D01*
X680Y2285D02*
X698Y2285D01*
X731Y2285D02*
X763Y2285D01*
X781Y2285D02*
X811Y2285D01*
X1292Y2285D02*
X1299Y2285D01*
X0Y2284D02*
X7Y2284D01*
X629Y2284D02*
X662Y2284D01*
X679Y2284D02*
X700Y2284D01*
X730Y2284D02*
X763Y2284D01*
X780Y2284D02*
X812Y2284D01*
X1292Y2284D02*
X1299Y2284D01*
X0Y2283D02*
X7Y2283D01*
X629Y2283D02*
X662Y2283D01*
X679Y2283D02*
X701Y2283D01*
X729Y2283D02*
X763Y2283D01*
X779Y2283D02*
X813Y2283D01*
X1292Y2283D02*
X1299Y2283D01*
X0Y2282D02*
X7Y2282D01*
X629Y2282D02*
X662Y2282D01*
X679Y2282D02*
X702Y2282D01*
X729Y2282D02*
X763Y2282D01*
X779Y2282D02*
X813Y2282D01*
X1292Y2282D02*
X1299Y2282D01*
X0Y2281D02*
X7Y2281D01*
X131Y2281D02*
X140Y2281D01*
X629Y2281D02*
X662Y2281D01*
X679Y2281D02*
X703Y2281D01*
X729Y2281D02*
X763Y2281D01*
X779Y2281D02*
X813Y2281D01*
X1292Y2281D02*
X1299Y2281D01*
X0Y2280D02*
X7Y2280D01*
X131Y2280D02*
X140Y2280D01*
X629Y2280D02*
X661Y2280D01*
X680Y2280D02*
X704Y2280D01*
X730Y2280D02*
X763Y2280D01*
X780Y2280D02*
X812Y2280D01*
X1292Y2280D02*
X1299Y2280D01*
X0Y2279D02*
X7Y2279D01*
X131Y2279D02*
X140Y2279D01*
X629Y2279D02*
X660Y2279D01*
X681Y2279D02*
X704Y2279D01*
X731Y2279D02*
X763Y2279D01*
X781Y2279D02*
X811Y2279D01*
X1292Y2279D02*
X1299Y2279D01*
X0Y2278D02*
X7Y2278D01*
X131Y2278D02*
X140Y2278D01*
X629Y2278D02*
X635Y2278D01*
X642Y2278D02*
X648Y2278D01*
X697Y2278D02*
X705Y2278D01*
X757Y2278D02*
X763Y2278D01*
X793Y2278D02*
X799Y2278D01*
X1292Y2278D02*
X1299Y2278D01*
X0Y2277D02*
X7Y2277D01*
X131Y2277D02*
X140Y2277D01*
X629Y2277D02*
X635Y2277D01*
X642Y2277D02*
X648Y2277D01*
X698Y2277D02*
X705Y2277D01*
X757Y2277D02*
X763Y2277D01*
X793Y2277D02*
X799Y2277D01*
X1292Y2277D02*
X1299Y2277D01*
X0Y2276D02*
X7Y2276D01*
X131Y2276D02*
X140Y2276D01*
X629Y2276D02*
X635Y2276D01*
X642Y2276D02*
X648Y2276D01*
X699Y2276D02*
X706Y2276D01*
X757Y2276D02*
X763Y2276D01*
X793Y2276D02*
X799Y2276D01*
X1292Y2276D02*
X1299Y2276D01*
X0Y2275D02*
X7Y2275D01*
X131Y2275D02*
X140Y2275D01*
X629Y2275D02*
X635Y2275D01*
X642Y2275D02*
X648Y2275D01*
X699Y2275D02*
X706Y2275D01*
X757Y2275D02*
X763Y2275D01*
X793Y2275D02*
X799Y2275D01*
X1292Y2275D02*
X1299Y2275D01*
X0Y2274D02*
X7Y2274D01*
X131Y2274D02*
X140Y2274D01*
X629Y2274D02*
X635Y2274D01*
X642Y2274D02*
X648Y2274D01*
X700Y2274D02*
X707Y2274D01*
X757Y2274D02*
X763Y2274D01*
X793Y2274D02*
X799Y2274D01*
X1292Y2274D02*
X1299Y2274D01*
X0Y2273D02*
X7Y2273D01*
X131Y2273D02*
X140Y2273D01*
X629Y2273D02*
X635Y2273D01*
X642Y2273D02*
X648Y2273D01*
X700Y2273D02*
X707Y2273D01*
X757Y2273D02*
X763Y2273D01*
X793Y2273D02*
X799Y2273D01*
X1292Y2273D02*
X1299Y2273D01*
X0Y2272D02*
X7Y2272D01*
X131Y2272D02*
X140Y2272D01*
X629Y2272D02*
X635Y2272D01*
X642Y2272D02*
X648Y2272D01*
X701Y2272D02*
X708Y2272D01*
X757Y2272D02*
X763Y2272D01*
X793Y2272D02*
X799Y2272D01*
X1292Y2272D02*
X1299Y2272D01*
X0Y2271D02*
X7Y2271D01*
X131Y2271D02*
X140Y2271D01*
X629Y2271D02*
X635Y2271D01*
X642Y2271D02*
X648Y2271D01*
X701Y2271D02*
X708Y2271D01*
X757Y2271D02*
X763Y2271D01*
X793Y2271D02*
X799Y2271D01*
X1292Y2271D02*
X1299Y2271D01*
X0Y2270D02*
X7Y2270D01*
X131Y2270D02*
X131Y2270D01*
X629Y2270D02*
X635Y2270D01*
X642Y2270D02*
X648Y2270D01*
X702Y2270D02*
X709Y2270D01*
X757Y2270D02*
X763Y2270D01*
X793Y2270D02*
X799Y2270D01*
X1292Y2270D02*
X1299Y2270D01*
X0Y2269D02*
X7Y2269D01*
X629Y2269D02*
X635Y2269D01*
X642Y2269D02*
X648Y2269D01*
X702Y2269D02*
X709Y2269D01*
X757Y2269D02*
X763Y2269D01*
X793Y2269D02*
X799Y2269D01*
X1292Y2269D02*
X1299Y2269D01*
X0Y2268D02*
X7Y2268D01*
X629Y2268D02*
X635Y2268D01*
X642Y2268D02*
X648Y2268D01*
X703Y2268D02*
X710Y2268D01*
X757Y2268D02*
X763Y2268D01*
X793Y2268D02*
X799Y2268D01*
X1292Y2268D02*
X1299Y2268D01*
X0Y2267D02*
X7Y2267D01*
X629Y2267D02*
X635Y2267D01*
X642Y2267D02*
X648Y2267D01*
X703Y2267D02*
X710Y2267D01*
X757Y2267D02*
X763Y2267D01*
X793Y2267D02*
X799Y2267D01*
X1292Y2267D02*
X1299Y2267D01*
X0Y2266D02*
X7Y2266D01*
X629Y2266D02*
X635Y2266D01*
X642Y2266D02*
X648Y2266D01*
X704Y2266D02*
X711Y2266D01*
X757Y2266D02*
X763Y2266D01*
X793Y2266D02*
X799Y2266D01*
X1292Y2266D02*
X1299Y2266D01*
X0Y2265D02*
X7Y2265D01*
X629Y2265D02*
X635Y2265D01*
X642Y2265D02*
X648Y2265D01*
X704Y2265D02*
X711Y2265D01*
X757Y2265D02*
X763Y2265D01*
X793Y2265D02*
X799Y2265D01*
X1292Y2265D02*
X1299Y2265D01*
X0Y2264D02*
X7Y2264D01*
X629Y2264D02*
X635Y2264D01*
X642Y2264D02*
X648Y2264D01*
X705Y2264D02*
X711Y2264D01*
X757Y2264D02*
X763Y2264D01*
X793Y2264D02*
X799Y2264D01*
X1292Y2264D02*
X1299Y2264D01*
X0Y2263D02*
X7Y2263D01*
X629Y2263D02*
X634Y2263D01*
X642Y2263D02*
X648Y2263D01*
X705Y2263D02*
X712Y2263D01*
X757Y2263D02*
X763Y2263D01*
X793Y2263D02*
X799Y2263D01*
X1292Y2263D02*
X1299Y2263D01*
X0Y2262D02*
X7Y2262D01*
X630Y2262D02*
X633Y2262D01*
X642Y2262D02*
X648Y2262D01*
X706Y2262D02*
X712Y2262D01*
X735Y2262D02*
X763Y2262D01*
X793Y2262D02*
X799Y2262D01*
X1292Y2262D02*
X1299Y2262D01*
X0Y2261D02*
X7Y2261D01*
X642Y2261D02*
X648Y2261D01*
X706Y2261D02*
X712Y2261D01*
X732Y2261D02*
X762Y2261D01*
X793Y2261D02*
X799Y2261D01*
X1292Y2261D02*
X1299Y2261D01*
X0Y2260D02*
X7Y2260D01*
X642Y2260D02*
X648Y2260D01*
X706Y2260D02*
X712Y2260D01*
X731Y2260D02*
X762Y2260D01*
X793Y2260D02*
X799Y2260D01*
X1292Y2260D02*
X1299Y2260D01*
X0Y2259D02*
X7Y2259D01*
X642Y2259D02*
X648Y2259D01*
X706Y2259D02*
X712Y2259D01*
X730Y2259D02*
X762Y2259D01*
X793Y2259D02*
X799Y2259D01*
X1292Y2259D02*
X1299Y2259D01*
X0Y2258D02*
X7Y2258D01*
X642Y2258D02*
X648Y2258D01*
X706Y2258D02*
X712Y2258D01*
X730Y2258D02*
X761Y2258D01*
X793Y2258D02*
X799Y2258D01*
X1292Y2258D02*
X1299Y2258D01*
X0Y2257D02*
X7Y2257D01*
X642Y2257D02*
X648Y2257D01*
X706Y2257D02*
X712Y2257D01*
X729Y2257D02*
X760Y2257D01*
X793Y2257D02*
X799Y2257D01*
X1292Y2257D02*
X1299Y2257D01*
X0Y2256D02*
X7Y2256D01*
X642Y2256D02*
X648Y2256D01*
X706Y2256D02*
X712Y2256D01*
X729Y2256D02*
X759Y2256D01*
X793Y2256D02*
X799Y2256D01*
X1292Y2256D02*
X1299Y2256D01*
X0Y2255D02*
X7Y2255D01*
X642Y2255D02*
X648Y2255D01*
X706Y2255D02*
X712Y2255D01*
X729Y2255D02*
X735Y2255D01*
X793Y2255D02*
X799Y2255D01*
X1292Y2255D02*
X1299Y2255D01*
X0Y2254D02*
X7Y2254D01*
X642Y2254D02*
X648Y2254D01*
X705Y2254D02*
X712Y2254D01*
X729Y2254D02*
X735Y2254D01*
X793Y2254D02*
X799Y2254D01*
X1292Y2254D02*
X1299Y2254D01*
X0Y2253D02*
X7Y2253D01*
X642Y2253D02*
X648Y2253D01*
X705Y2253D02*
X711Y2253D01*
X729Y2253D02*
X735Y2253D01*
X793Y2253D02*
X799Y2253D01*
X1292Y2253D02*
X1299Y2253D01*
X0Y2252D02*
X7Y2252D01*
X642Y2252D02*
X648Y2252D01*
X704Y2252D02*
X711Y2252D01*
X729Y2252D02*
X735Y2252D01*
X793Y2252D02*
X799Y2252D01*
X1292Y2252D02*
X1299Y2252D01*
X0Y2251D02*
X7Y2251D01*
X642Y2251D02*
X648Y2251D01*
X704Y2251D02*
X710Y2251D01*
X729Y2251D02*
X735Y2251D01*
X793Y2251D02*
X799Y2251D01*
X1292Y2251D02*
X1299Y2251D01*
X0Y2250D02*
X7Y2250D01*
X642Y2250D02*
X648Y2250D01*
X703Y2250D02*
X710Y2250D01*
X729Y2250D02*
X735Y2250D01*
X793Y2250D02*
X799Y2250D01*
X1292Y2250D02*
X1299Y2250D01*
X0Y2249D02*
X7Y2249D01*
X132Y2249D02*
X140Y2249D01*
X642Y2249D02*
X648Y2249D01*
X703Y2249D02*
X709Y2249D01*
X729Y2249D02*
X735Y2249D01*
X793Y2249D02*
X799Y2249D01*
X1292Y2249D02*
X1299Y2249D01*
X0Y2248D02*
X7Y2248D01*
X131Y2248D02*
X140Y2248D01*
X642Y2248D02*
X648Y2248D01*
X702Y2248D02*
X709Y2248D01*
X729Y2248D02*
X735Y2248D01*
X793Y2248D02*
X799Y2248D01*
X1292Y2248D02*
X1299Y2248D01*
X0Y2247D02*
X7Y2247D01*
X131Y2247D02*
X140Y2247D01*
X642Y2247D02*
X648Y2247D01*
X702Y2247D02*
X709Y2247D01*
X729Y2247D02*
X735Y2247D01*
X793Y2247D02*
X799Y2247D01*
X1292Y2247D02*
X1299Y2247D01*
X0Y2246D02*
X7Y2246D01*
X131Y2246D02*
X140Y2246D01*
X642Y2246D02*
X648Y2246D01*
X701Y2246D02*
X708Y2246D01*
X729Y2246D02*
X735Y2246D01*
X793Y2246D02*
X799Y2246D01*
X1292Y2246D02*
X1299Y2246D01*
X0Y2245D02*
X7Y2245D01*
X131Y2245D02*
X140Y2245D01*
X642Y2245D02*
X648Y2245D01*
X701Y2245D02*
X708Y2245D01*
X729Y2245D02*
X735Y2245D01*
X793Y2245D02*
X799Y2245D01*
X1292Y2245D02*
X1299Y2245D01*
X0Y2244D02*
X7Y2244D01*
X131Y2244D02*
X140Y2244D01*
X642Y2244D02*
X648Y2244D01*
X700Y2244D02*
X707Y2244D01*
X729Y2244D02*
X735Y2244D01*
X793Y2244D02*
X799Y2244D01*
X1292Y2244D02*
X1299Y2244D01*
X0Y2243D02*
X7Y2243D01*
X131Y2243D02*
X140Y2243D01*
X642Y2243D02*
X648Y2243D01*
X700Y2243D02*
X707Y2243D01*
X729Y2243D02*
X735Y2243D01*
X793Y2243D02*
X799Y2243D01*
X1292Y2243D02*
X1299Y2243D01*
X0Y2242D02*
X7Y2242D01*
X131Y2242D02*
X140Y2242D01*
X642Y2242D02*
X648Y2242D01*
X699Y2242D02*
X706Y2242D01*
X729Y2242D02*
X735Y2242D01*
X793Y2242D02*
X799Y2242D01*
X1292Y2242D02*
X1299Y2242D01*
X0Y2241D02*
X7Y2241D01*
X131Y2241D02*
X140Y2241D01*
X642Y2241D02*
X648Y2241D01*
X699Y2241D02*
X706Y2241D01*
X729Y2241D02*
X735Y2241D01*
X793Y2241D02*
X799Y2241D01*
X1292Y2241D02*
X1299Y2241D01*
X0Y2240D02*
X7Y2240D01*
X131Y2240D02*
X140Y2240D01*
X642Y2240D02*
X648Y2240D01*
X698Y2240D02*
X705Y2240D01*
X729Y2240D02*
X735Y2240D01*
X793Y2240D02*
X799Y2240D01*
X1292Y2240D02*
X1299Y2240D01*
X0Y2239D02*
X7Y2239D01*
X131Y2239D02*
X140Y2239D01*
X642Y2239D02*
X648Y2239D01*
X697Y2239D02*
X705Y2239D01*
X729Y2239D02*
X735Y2239D01*
X793Y2239D02*
X799Y2239D01*
X1292Y2239D02*
X1299Y2239D01*
X0Y2238D02*
X7Y2238D01*
X131Y2238D02*
X140Y2238D01*
X642Y2238D02*
X661Y2238D01*
X681Y2238D02*
X704Y2238D01*
X729Y2238D02*
X761Y2238D01*
X781Y2238D02*
X811Y2238D01*
X1292Y2238D02*
X1299Y2238D01*
X0Y2237D02*
X7Y2237D01*
X131Y2237D02*
X140Y2237D01*
X642Y2237D02*
X662Y2237D01*
X679Y2237D02*
X704Y2237D01*
X729Y2237D02*
X762Y2237D01*
X780Y2237D02*
X812Y2237D01*
X1292Y2237D02*
X1299Y2237D01*
X0Y2236D02*
X7Y2236D01*
X131Y2236D02*
X140Y2236D01*
X642Y2236D02*
X662Y2236D01*
X679Y2236D02*
X703Y2236D01*
X730Y2236D02*
X762Y2236D01*
X779Y2236D02*
X813Y2236D01*
X1292Y2236D02*
X1299Y2236D01*
X0Y2235D02*
X7Y2235D01*
X131Y2235D02*
X140Y2235D01*
X642Y2235D02*
X662Y2235D01*
X679Y2235D02*
X702Y2235D01*
X730Y2235D02*
X763Y2235D01*
X779Y2235D02*
X813Y2235D01*
X1292Y2235D02*
X1299Y2235D01*
X0Y2234D02*
X7Y2234D01*
X131Y2234D02*
X140Y2234D01*
X642Y2234D02*
X662Y2234D01*
X679Y2234D02*
X701Y2234D01*
X731Y2234D02*
X762Y2234D01*
X779Y2234D02*
X813Y2234D01*
X1292Y2234D02*
X1299Y2234D01*
X0Y2233D02*
X7Y2233D01*
X131Y2233D02*
X140Y2233D01*
X642Y2233D02*
X661Y2233D01*
X680Y2233D02*
X700Y2233D01*
X732Y2233D02*
X762Y2233D01*
X780Y2233D02*
X812Y2233D01*
X1292Y2233D02*
X1299Y2233D01*
X0Y2232D02*
X7Y2232D01*
X131Y2232D02*
X140Y2232D01*
X642Y2232D02*
X660Y2232D01*
X681Y2232D02*
X697Y2232D01*
X734Y2232D02*
X761Y2232D01*
X781Y2232D02*
X811Y2232D01*
X1292Y2232D02*
X1299Y2232D01*
X0Y2231D02*
X7Y2231D01*
X131Y2231D02*
X140Y2231D01*
X1292Y2231D02*
X1299Y2231D01*
X0Y2230D02*
X7Y2230D01*
X131Y2230D02*
X140Y2230D01*
X1292Y2230D02*
X1299Y2230D01*
X0Y2229D02*
X7Y2229D01*
X131Y2229D02*
X140Y2229D01*
X1292Y2229D02*
X1299Y2229D01*
X0Y2228D02*
X7Y2228D01*
X131Y2228D02*
X140Y2228D01*
X1292Y2228D02*
X1299Y2228D01*
X0Y2227D02*
X7Y2227D01*
X131Y2227D02*
X140Y2227D01*
X1292Y2227D02*
X1299Y2227D01*
X0Y2226D02*
X7Y2226D01*
X131Y2226D02*
X140Y2226D01*
X1292Y2226D02*
X1299Y2226D01*
X0Y2225D02*
X7Y2225D01*
X131Y2225D02*
X140Y2225D01*
X1292Y2225D02*
X1299Y2225D01*
X0Y2224D02*
X7Y2224D01*
X131Y2224D02*
X140Y2224D01*
X1292Y2224D02*
X1299Y2224D01*
X0Y2223D02*
X7Y2223D01*
X131Y2223D02*
X140Y2223D01*
X1292Y2223D02*
X1299Y2223D01*
X0Y2222D02*
X7Y2222D01*
X131Y2222D02*
X140Y2222D01*
X1292Y2222D02*
X1299Y2222D01*
X0Y2221D02*
X7Y2221D01*
X131Y2221D02*
X140Y2221D01*
X1292Y2221D02*
X1299Y2221D01*
X0Y2220D02*
X7Y2220D01*
X131Y2220D02*
X140Y2220D01*
X1292Y2220D02*
X1299Y2220D01*
X0Y2219D02*
X7Y2219D01*
X131Y2219D02*
X140Y2219D01*
X1292Y2219D02*
X1299Y2219D01*
X0Y2218D02*
X7Y2218D01*
X131Y2218D02*
X140Y2218D01*
X1292Y2218D02*
X1299Y2218D01*
X0Y2217D02*
X7Y2217D01*
X131Y2217D02*
X140Y2217D01*
X837Y2217D02*
X838Y2217D01*
X1292Y2217D02*
X1299Y2217D01*
X0Y2216D02*
X7Y2216D01*
X131Y2216D02*
X140Y2216D01*
X836Y2216D02*
X839Y2216D01*
X1292Y2216D02*
X1299Y2216D01*
X0Y2215D02*
X7Y2215D01*
X131Y2215D02*
X140Y2215D01*
X835Y2215D02*
X840Y2215D01*
X1292Y2215D02*
X1299Y2215D01*
X0Y2214D02*
X7Y2214D01*
X131Y2214D02*
X140Y2214D01*
X835Y2214D02*
X841Y2214D01*
X1292Y2214D02*
X1299Y2214D01*
X0Y2213D02*
X7Y2213D01*
X836Y2213D02*
X842Y2213D01*
X1292Y2213D02*
X1299Y2213D01*
X0Y2212D02*
X7Y2212D01*
X837Y2212D02*
X843Y2212D01*
X1292Y2212D02*
X1299Y2212D01*
X0Y2211D02*
X7Y2211D01*
X838Y2211D02*
X844Y2211D01*
X1292Y2211D02*
X1299Y2211D01*
X0Y2210D02*
X7Y2210D01*
X839Y2210D02*
X845Y2210D01*
X1292Y2210D02*
X1299Y2210D01*
X0Y2209D02*
X7Y2209D01*
X840Y2209D02*
X846Y2209D01*
X1292Y2209D02*
X1299Y2209D01*
X0Y2208D02*
X7Y2208D01*
X841Y2208D02*
X847Y2208D01*
X1292Y2208D02*
X1299Y2208D01*
X0Y2207D02*
X7Y2207D01*
X842Y2207D02*
X848Y2207D01*
X1292Y2207D02*
X1299Y2207D01*
X0Y2206D02*
X7Y2206D01*
X843Y2206D02*
X849Y2206D01*
X1292Y2206D02*
X1299Y2206D01*
X0Y2205D02*
X7Y2205D01*
X844Y2205D02*
X850Y2205D01*
X1292Y2205D02*
X1299Y2205D01*
X0Y2204D02*
X7Y2204D01*
X845Y2204D02*
X851Y2204D01*
X1292Y2204D02*
X1299Y2204D01*
X0Y2203D02*
X7Y2203D01*
X846Y2203D02*
X852Y2203D01*
X1292Y2203D02*
X1299Y2203D01*
X0Y2202D02*
X7Y2202D01*
X847Y2202D02*
X852Y2202D01*
X1292Y2202D02*
X1299Y2202D01*
X0Y2201D02*
X7Y2201D01*
X848Y2201D02*
X853Y2201D01*
X1292Y2201D02*
X1299Y2201D01*
X0Y2200D02*
X7Y2200D01*
X849Y2200D02*
X854Y2200D01*
X1292Y2200D02*
X1299Y2200D01*
X0Y2199D02*
X7Y2199D01*
X850Y2199D02*
X855Y2199D01*
X1292Y2199D02*
X1299Y2199D01*
X0Y2198D02*
X7Y2198D01*
X156Y2198D02*
X157Y2198D01*
X851Y2198D02*
X857Y2198D01*
X1292Y2198D02*
X1299Y2198D01*
X0Y2197D02*
X7Y2197D01*
X154Y2197D02*
X158Y2197D01*
X852Y2197D02*
X858Y2197D01*
X1292Y2197D02*
X1299Y2197D01*
X0Y2196D02*
X7Y2196D01*
X153Y2196D02*
X159Y2196D01*
X853Y2196D02*
X859Y2196D01*
X1292Y2196D02*
X1299Y2196D01*
X0Y2195D02*
X7Y2195D01*
X154Y2195D02*
X160Y2195D01*
X854Y2195D02*
X860Y2195D01*
X1292Y2195D02*
X1299Y2195D01*
X0Y2194D02*
X7Y2194D01*
X155Y2194D02*
X161Y2194D01*
X855Y2194D02*
X861Y2194D01*
X1292Y2194D02*
X1299Y2194D01*
X0Y2193D02*
X7Y2193D01*
X156Y2193D02*
X162Y2193D01*
X856Y2193D02*
X862Y2193D01*
X1292Y2193D02*
X1299Y2193D01*
X0Y2192D02*
X7Y2192D01*
X131Y2192D02*
X140Y2192D01*
X157Y2192D02*
X163Y2192D01*
X857Y2192D02*
X863Y2192D01*
X1292Y2192D02*
X1299Y2192D01*
X0Y2191D02*
X7Y2191D01*
X131Y2191D02*
X140Y2191D01*
X158Y2191D02*
X164Y2191D01*
X858Y2191D02*
X864Y2191D01*
X1292Y2191D02*
X1299Y2191D01*
X0Y2190D02*
X7Y2190D01*
X131Y2190D02*
X140Y2190D01*
X159Y2190D02*
X165Y2190D01*
X859Y2190D02*
X865Y2190D01*
X1292Y2190D02*
X1299Y2190D01*
X0Y2189D02*
X7Y2189D01*
X131Y2189D02*
X140Y2189D01*
X160Y2189D02*
X166Y2189D01*
X860Y2189D02*
X866Y2189D01*
X1292Y2189D02*
X1299Y2189D01*
X0Y2188D02*
X7Y2188D01*
X131Y2188D02*
X140Y2188D01*
X161Y2188D02*
X167Y2188D01*
X861Y2188D02*
X867Y2188D01*
X1292Y2188D02*
X1299Y2188D01*
X0Y2187D02*
X7Y2187D01*
X131Y2187D02*
X140Y2187D01*
X162Y2187D02*
X168Y2187D01*
X862Y2187D02*
X868Y2187D01*
X1292Y2187D02*
X1299Y2187D01*
X0Y2186D02*
X7Y2186D01*
X131Y2186D02*
X140Y2186D01*
X163Y2186D02*
X169Y2186D01*
X863Y2186D02*
X869Y2186D01*
X1292Y2186D02*
X1299Y2186D01*
X0Y2185D02*
X7Y2185D01*
X131Y2185D02*
X140Y2185D01*
X164Y2185D02*
X170Y2185D01*
X864Y2185D02*
X870Y2185D01*
X1292Y2185D02*
X1299Y2185D01*
X0Y2184D02*
X7Y2184D01*
X131Y2184D02*
X140Y2184D01*
X165Y2184D02*
X171Y2184D01*
X865Y2184D02*
X871Y2184D01*
X1292Y2184D02*
X1299Y2184D01*
X0Y2183D02*
X7Y2183D01*
X131Y2183D02*
X140Y2183D01*
X166Y2183D02*
X172Y2183D01*
X866Y2183D02*
X872Y2183D01*
X1292Y2183D02*
X1299Y2183D01*
X0Y2182D02*
X7Y2182D01*
X131Y2182D02*
X140Y2182D01*
X167Y2182D02*
X171Y2182D01*
X867Y2182D02*
X871Y2182D01*
X1292Y2182D02*
X1299Y2182D01*
X0Y2181D02*
X7Y2181D01*
X168Y2181D02*
X170Y2181D01*
X868Y2181D02*
X870Y2181D01*
X1292Y2181D02*
X1299Y2181D01*
X0Y2180D02*
X7Y2180D01*
X169Y2180D02*
X169Y2180D01*
X869Y2180D02*
X869Y2180D01*
X1292Y2180D02*
X1299Y2180D01*
X0Y2179D02*
X7Y2179D01*
X1292Y2179D02*
X1299Y2179D01*
X0Y2178D02*
X7Y2178D01*
X1292Y2178D02*
X1299Y2178D01*
X0Y2177D02*
X7Y2177D01*
X1292Y2177D02*
X1299Y2177D01*
X0Y2176D02*
X7Y2176D01*
X1292Y2176D02*
X1299Y2176D01*
X0Y2175D02*
X7Y2175D01*
X1292Y2175D02*
X1299Y2175D01*
X0Y2174D02*
X7Y2174D01*
X1292Y2174D02*
X1299Y2174D01*
X0Y2173D02*
X7Y2173D01*
X1292Y2173D02*
X1299Y2173D01*
X0Y2172D02*
X7Y2172D01*
X1292Y2172D02*
X1299Y2172D01*
X0Y2171D02*
X7Y2171D01*
X1292Y2171D02*
X1299Y2171D01*
X0Y2170D02*
X7Y2170D01*
X1292Y2170D02*
X1299Y2170D01*
X0Y2169D02*
X7Y2169D01*
X1292Y2169D02*
X1299Y2169D01*
X0Y2168D02*
X7Y2168D01*
X1292Y2168D02*
X1299Y2168D01*
X0Y2167D02*
X7Y2167D01*
X1292Y2167D02*
X1299Y2167D01*
X0Y2166D02*
X7Y2166D01*
X1292Y2166D02*
X1299Y2166D01*
X0Y2165D02*
X7Y2165D01*
X1292Y2165D02*
X1299Y2165D01*
X0Y2164D02*
X7Y2164D01*
X1292Y2164D02*
X1299Y2164D01*
X0Y2163D02*
X7Y2163D01*
X1292Y2163D02*
X1299Y2163D01*
X0Y2162D02*
X7Y2162D01*
X1292Y2162D02*
X1299Y2162D01*
X0Y2161D02*
X7Y2161D01*
X1292Y2161D02*
X1299Y2161D01*
X0Y2160D02*
X7Y2160D01*
X1292Y2160D02*
X1299Y2160D01*
X0Y2159D02*
X7Y2159D01*
X1292Y2159D02*
X1299Y2159D01*
X0Y2158D02*
X7Y2158D01*
X1292Y2158D02*
X1299Y2158D01*
X0Y2157D02*
X7Y2157D01*
X1292Y2157D02*
X1299Y2157D01*
X0Y2156D02*
X7Y2156D01*
X1292Y2156D02*
X1299Y2156D01*
X0Y2155D02*
X7Y2155D01*
X1292Y2155D02*
X1299Y2155D01*
X0Y2154D02*
X7Y2154D01*
X1292Y2154D02*
X1299Y2154D01*
X0Y2153D02*
X7Y2153D01*
X1292Y2153D02*
X1299Y2153D01*
X0Y2152D02*
X7Y2152D01*
X1292Y2152D02*
X1299Y2152D01*
X0Y2151D02*
X7Y2151D01*
X1292Y2151D02*
X1299Y2151D01*
X0Y2150D02*
X7Y2150D01*
X1292Y2150D02*
X1299Y2150D01*
X0Y2149D02*
X7Y2149D01*
X1292Y2149D02*
X1299Y2149D01*
X0Y2148D02*
X7Y2148D01*
X1292Y2148D02*
X1299Y2148D01*
X0Y2147D02*
X7Y2147D01*
X1292Y2147D02*
X1299Y2147D01*
X0Y2146D02*
X7Y2146D01*
X1292Y2146D02*
X1299Y2146D01*
X0Y2145D02*
X7Y2145D01*
X278Y2145D02*
X290Y2145D01*
X314Y2145D02*
X326Y2145D01*
X364Y2145D02*
X394Y2145D01*
X1292Y2145D02*
X1299Y2145D01*
X0Y2144D02*
X7Y2144D01*
X274Y2144D02*
X293Y2144D01*
X312Y2144D02*
X330Y2144D01*
X362Y2144D02*
X394Y2144D01*
X1292Y2144D02*
X1299Y2144D01*
X0Y2143D02*
X7Y2143D01*
X272Y2143D02*
X294Y2143D01*
X311Y2143D02*
X332Y2143D01*
X361Y2143D02*
X394Y2143D01*
X1292Y2143D02*
X1299Y2143D01*
X0Y2142D02*
X7Y2142D01*
X271Y2142D02*
X294Y2142D01*
X311Y2142D02*
X333Y2142D01*
X361Y2142D02*
X394Y2142D01*
X1292Y2142D02*
X1299Y2142D01*
X0Y2141D02*
X7Y2141D01*
X270Y2141D02*
X294Y2141D01*
X311Y2141D02*
X334Y2141D01*
X361Y2141D02*
X394Y2141D01*
X1292Y2141D02*
X1299Y2141D01*
X0Y2140D02*
X7Y2140D01*
X270Y2140D02*
X294Y2140D01*
X311Y2140D02*
X335Y2140D01*
X361Y2140D02*
X394Y2140D01*
X1292Y2140D02*
X1299Y2140D01*
X0Y2139D02*
X7Y2139D01*
X269Y2139D02*
X293Y2139D01*
X312Y2139D02*
X335Y2139D01*
X362Y2139D02*
X394Y2139D01*
X1292Y2139D02*
X1299Y2139D01*
X0Y2138D02*
X7Y2138D01*
X268Y2138D02*
X290Y2138D01*
X314Y2138D02*
X336Y2138D01*
X365Y2138D02*
X394Y2138D01*
X1292Y2138D02*
X1299Y2138D01*
X0Y2137D02*
X7Y2137D01*
X268Y2137D02*
X275Y2137D01*
X281Y2137D02*
X287Y2137D01*
X329Y2137D02*
X336Y2137D01*
X388Y2137D02*
X394Y2137D01*
X1292Y2137D02*
X1299Y2137D01*
X0Y2136D02*
X7Y2136D01*
X267Y2136D02*
X274Y2136D01*
X281Y2136D02*
X287Y2136D01*
X330Y2136D02*
X337Y2136D01*
X388Y2136D02*
X394Y2136D01*
X1292Y2136D02*
X1299Y2136D01*
X0Y2135D02*
X7Y2135D01*
X267Y2135D02*
X274Y2135D01*
X281Y2135D02*
X287Y2135D01*
X331Y2135D02*
X337Y2135D01*
X388Y2135D02*
X394Y2135D01*
X1292Y2135D02*
X1299Y2135D01*
X0Y2134D02*
X7Y2134D01*
X266Y2134D02*
X273Y2134D01*
X281Y2134D02*
X287Y2134D01*
X331Y2134D02*
X338Y2134D01*
X388Y2134D02*
X394Y2134D01*
X1292Y2134D02*
X1299Y2134D01*
X0Y2133D02*
X7Y2133D01*
X266Y2133D02*
X273Y2133D01*
X281Y2133D02*
X287Y2133D01*
X332Y2133D02*
X338Y2133D01*
X388Y2133D02*
X394Y2133D01*
X1292Y2133D02*
X1299Y2133D01*
X0Y2132D02*
X7Y2132D01*
X265Y2132D02*
X272Y2132D01*
X281Y2132D02*
X287Y2132D01*
X332Y2132D02*
X339Y2132D01*
X388Y2132D02*
X394Y2132D01*
X1292Y2132D02*
X1299Y2132D01*
X0Y2131D02*
X7Y2131D01*
X265Y2131D02*
X272Y2131D01*
X281Y2131D02*
X287Y2131D01*
X333Y2131D02*
X339Y2131D01*
X388Y2131D02*
X394Y2131D01*
X1292Y2131D02*
X1299Y2131D01*
X0Y2130D02*
X7Y2130D01*
X265Y2130D02*
X271Y2130D01*
X281Y2130D02*
X287Y2130D01*
X333Y2130D02*
X340Y2130D01*
X388Y2130D02*
X394Y2130D01*
X1292Y2130D02*
X1299Y2130D01*
X0Y2129D02*
X7Y2129D01*
X264Y2129D02*
X271Y2129D01*
X281Y2129D02*
X287Y2129D01*
X334Y2129D02*
X340Y2129D01*
X388Y2129D02*
X394Y2129D01*
X1292Y2129D02*
X1299Y2129D01*
X0Y2128D02*
X7Y2128D01*
X264Y2128D02*
X270Y2128D01*
X281Y2128D02*
X287Y2128D01*
X334Y2128D02*
X341Y2128D01*
X388Y2128D02*
X394Y2128D01*
X1292Y2128D02*
X1299Y2128D01*
X0Y2127D02*
X7Y2127D01*
X263Y2127D02*
X270Y2127D01*
X281Y2127D02*
X287Y2127D01*
X335Y2127D02*
X341Y2127D01*
X388Y2127D02*
X394Y2127D01*
X1292Y2127D02*
X1299Y2127D01*
X0Y2126D02*
X7Y2126D01*
X263Y2126D02*
X269Y2126D01*
X281Y2126D02*
X287Y2126D01*
X335Y2126D02*
X342Y2126D01*
X388Y2126D02*
X394Y2126D01*
X1292Y2126D02*
X1299Y2126D01*
X0Y2125D02*
X7Y2125D01*
X262Y2125D02*
X269Y2125D01*
X281Y2125D02*
X287Y2125D01*
X336Y2125D02*
X342Y2125D01*
X388Y2125D02*
X394Y2125D01*
X1292Y2125D02*
X1299Y2125D01*
X0Y2124D02*
X7Y2124D01*
X262Y2124D02*
X268Y2124D01*
X281Y2124D02*
X287Y2124D01*
X336Y2124D02*
X343Y2124D01*
X388Y2124D02*
X394Y2124D01*
X1292Y2124D02*
X1299Y2124D01*
X0Y2123D02*
X7Y2123D01*
X261Y2123D02*
X268Y2123D01*
X281Y2123D02*
X287Y2123D01*
X337Y2123D02*
X343Y2123D01*
X388Y2123D02*
X394Y2123D01*
X1292Y2123D02*
X1299Y2123D01*
X0Y2122D02*
X7Y2122D01*
X261Y2122D02*
X267Y2122D01*
X281Y2122D02*
X287Y2122D01*
X337Y2122D02*
X344Y2122D01*
X388Y2122D02*
X394Y2122D01*
X1292Y2122D02*
X1299Y2122D01*
X0Y2121D02*
X7Y2121D01*
X261Y2121D02*
X267Y2121D01*
X281Y2121D02*
X287Y2121D01*
X338Y2121D02*
X344Y2121D01*
X388Y2121D02*
X394Y2121D01*
X1292Y2121D02*
X1299Y2121D01*
X0Y2120D02*
X7Y2120D01*
X261Y2120D02*
X267Y2120D01*
X281Y2120D02*
X287Y2120D01*
X338Y2120D02*
X344Y2120D01*
X388Y2120D02*
X394Y2120D01*
X1292Y2120D02*
X1299Y2120D01*
X0Y2119D02*
X7Y2119D01*
X260Y2119D02*
X266Y2119D01*
X281Y2119D02*
X287Y2119D01*
X338Y2119D02*
X344Y2119D01*
X388Y2119D02*
X394Y2119D01*
X1292Y2119D02*
X1299Y2119D01*
X0Y2118D02*
X7Y2118D01*
X260Y2118D02*
X266Y2118D01*
X281Y2118D02*
X287Y2118D01*
X338Y2118D02*
X344Y2118D01*
X388Y2118D02*
X394Y2118D01*
X1292Y2118D02*
X1299Y2118D01*
X0Y2117D02*
X7Y2117D01*
X260Y2117D02*
X266Y2117D01*
X281Y2117D02*
X287Y2117D01*
X338Y2117D02*
X344Y2117D01*
X388Y2117D02*
X394Y2117D01*
X1292Y2117D02*
X1299Y2117D01*
X0Y2116D02*
X7Y2116D01*
X260Y2116D02*
X267Y2116D01*
X281Y2116D02*
X287Y2116D01*
X338Y2116D02*
X344Y2116D01*
X388Y2116D02*
X394Y2116D01*
X1292Y2116D02*
X1299Y2116D01*
X0Y2115D02*
X7Y2115D01*
X261Y2115D02*
X267Y2115D01*
X281Y2115D02*
X287Y2115D01*
X338Y2115D02*
X344Y2115D01*
X388Y2115D02*
X394Y2115D01*
X1292Y2115D02*
X1299Y2115D01*
X0Y2114D02*
X7Y2114D01*
X261Y2114D02*
X267Y2114D01*
X281Y2114D02*
X287Y2114D01*
X337Y2114D02*
X344Y2114D01*
X388Y2114D02*
X394Y2114D01*
X1292Y2114D02*
X1299Y2114D01*
X0Y2113D02*
X7Y2113D01*
X261Y2113D02*
X268Y2113D01*
X281Y2113D02*
X287Y2113D01*
X337Y2113D02*
X343Y2113D01*
X388Y2113D02*
X394Y2113D01*
X1292Y2113D02*
X1299Y2113D01*
X0Y2112D02*
X7Y2112D01*
X262Y2112D02*
X268Y2112D01*
X281Y2112D02*
X287Y2112D01*
X336Y2112D02*
X343Y2112D01*
X388Y2112D02*
X394Y2112D01*
X1292Y2112D02*
X1299Y2112D01*
X0Y2111D02*
X7Y2111D01*
X262Y2111D02*
X269Y2111D01*
X281Y2111D02*
X287Y2111D01*
X336Y2111D02*
X343Y2111D01*
X388Y2111D02*
X394Y2111D01*
X1292Y2111D02*
X1299Y2111D01*
X0Y2110D02*
X7Y2110D01*
X262Y2110D02*
X269Y2110D01*
X281Y2110D02*
X287Y2110D01*
X335Y2110D02*
X342Y2110D01*
X388Y2110D02*
X394Y2110D01*
X1292Y2110D02*
X1299Y2110D01*
X0Y2109D02*
X7Y2109D01*
X263Y2109D02*
X270Y2109D01*
X281Y2109D02*
X287Y2109D01*
X335Y2109D02*
X342Y2109D01*
X388Y2109D02*
X394Y2109D01*
X1292Y2109D02*
X1299Y2109D01*
X0Y2108D02*
X7Y2108D01*
X263Y2108D02*
X270Y2108D01*
X281Y2108D02*
X287Y2108D01*
X334Y2108D02*
X341Y2108D01*
X388Y2108D02*
X394Y2108D01*
X1292Y2108D02*
X1299Y2108D01*
X0Y2107D02*
X7Y2107D01*
X264Y2107D02*
X271Y2107D01*
X281Y2107D02*
X287Y2107D01*
X334Y2107D02*
X341Y2107D01*
X388Y2107D02*
X394Y2107D01*
X1292Y2107D02*
X1299Y2107D01*
X0Y2106D02*
X7Y2106D01*
X264Y2106D02*
X271Y2106D01*
X281Y2106D02*
X287Y2106D01*
X333Y2106D02*
X340Y2106D01*
X388Y2106D02*
X394Y2106D01*
X1292Y2106D02*
X1299Y2106D01*
X0Y2105D02*
X7Y2105D01*
X265Y2105D02*
X272Y2105D01*
X281Y2105D02*
X287Y2105D01*
X333Y2105D02*
X340Y2105D01*
X388Y2105D02*
X394Y2105D01*
X1292Y2105D02*
X1299Y2105D01*
X0Y2104D02*
X7Y2104D01*
X265Y2104D02*
X272Y2104D01*
X281Y2104D02*
X287Y2104D01*
X332Y2104D02*
X339Y2104D01*
X388Y2104D02*
X394Y2104D01*
X1292Y2104D02*
X1299Y2104D01*
X0Y2103D02*
X7Y2103D01*
X266Y2103D02*
X273Y2103D01*
X281Y2103D02*
X287Y2103D01*
X332Y2103D02*
X339Y2103D01*
X388Y2103D02*
X394Y2103D01*
X1292Y2103D02*
X1299Y2103D01*
X0Y2102D02*
X7Y2102D01*
X266Y2102D02*
X273Y2102D01*
X281Y2102D02*
X287Y2102D01*
X331Y2102D02*
X338Y2102D01*
X388Y2102D02*
X394Y2102D01*
X1292Y2102D02*
X1299Y2102D01*
X0Y2101D02*
X7Y2101D01*
X267Y2101D02*
X274Y2101D01*
X281Y2101D02*
X287Y2101D01*
X331Y2101D02*
X338Y2101D01*
X388Y2101D02*
X394Y2101D01*
X1292Y2101D02*
X1299Y2101D01*
X0Y2100D02*
X7Y2100D01*
X267Y2100D02*
X274Y2100D01*
X281Y2100D02*
X287Y2100D01*
X330Y2100D02*
X337Y2100D01*
X388Y2100D02*
X394Y2100D01*
X1292Y2100D02*
X1299Y2100D01*
X0Y2099D02*
X7Y2099D01*
X268Y2099D02*
X275Y2099D01*
X281Y2099D02*
X287Y2099D01*
X329Y2099D02*
X337Y2099D01*
X388Y2099D02*
X394Y2099D01*
X1292Y2099D02*
X1299Y2099D01*
X0Y2098D02*
X7Y2098D01*
X268Y2098D02*
X277Y2098D01*
X281Y2098D02*
X287Y2098D01*
X328Y2098D02*
X336Y2098D01*
X388Y2098D02*
X394Y2098D01*
X1292Y2098D02*
X1299Y2098D01*
X0Y2097D02*
X7Y2097D01*
X269Y2097D02*
X293Y2097D01*
X312Y2097D02*
X336Y2097D01*
X388Y2097D02*
X394Y2097D01*
X1292Y2097D02*
X1299Y2097D01*
X0Y2096D02*
X7Y2096D01*
X270Y2096D02*
X293Y2096D01*
X311Y2096D02*
X335Y2096D01*
X388Y2096D02*
X394Y2096D01*
X1292Y2096D02*
X1299Y2096D01*
X0Y2095D02*
X7Y2095D01*
X270Y2095D02*
X294Y2095D01*
X311Y2095D02*
X334Y2095D01*
X388Y2095D02*
X394Y2095D01*
X1292Y2095D02*
X1299Y2095D01*
X0Y2094D02*
X7Y2094D01*
X271Y2094D02*
X294Y2094D01*
X311Y2094D02*
X334Y2094D01*
X388Y2094D02*
X394Y2094D01*
X1292Y2094D02*
X1299Y2094D01*
X0Y2093D02*
X7Y2093D01*
X272Y2093D02*
X294Y2093D01*
X311Y2093D02*
X332Y2093D01*
X389Y2093D02*
X394Y2093D01*
X1292Y2093D02*
X1299Y2093D01*
X0Y2092D02*
X7Y2092D01*
X274Y2092D02*
X293Y2092D01*
X312Y2092D02*
X331Y2092D01*
X389Y2092D02*
X393Y2092D01*
X1292Y2092D02*
X1299Y2092D01*
X0Y2091D02*
X7Y2091D01*
X277Y2091D02*
X291Y2091D01*
X313Y2091D02*
X327Y2091D01*
X391Y2091D02*
X392Y2091D01*
X1292Y2091D02*
X1299Y2091D01*
X0Y2090D02*
X7Y2090D01*
X1292Y2090D02*
X1299Y2090D01*
X0Y2089D02*
X7Y2089D01*
X1292Y2089D02*
X1299Y2089D01*
X0Y2088D02*
X7Y2088D01*
X1292Y2088D02*
X1299Y2088D01*
X0Y2087D02*
X7Y2087D01*
X1292Y2087D02*
X1299Y2087D01*
X0Y2086D02*
X7Y2086D01*
X1292Y2086D02*
X1299Y2086D01*
X0Y2085D02*
X7Y2085D01*
X1292Y2085D02*
X1299Y2085D01*
X0Y2084D02*
X7Y2084D01*
X1292Y2084D02*
X1299Y2084D01*
X0Y2083D02*
X7Y2083D01*
X1292Y2083D02*
X1299Y2083D01*
X0Y2082D02*
X7Y2082D01*
X1292Y2082D02*
X1299Y2082D01*
X0Y2081D02*
X7Y2081D01*
X627Y2081D02*
X658Y2081D01*
X677Y2081D02*
X693Y2081D01*
X727Y2081D02*
X759Y2081D01*
X778Y2081D02*
X807Y2081D01*
X1292Y2081D02*
X1299Y2081D01*
X0Y2080D02*
X7Y2080D01*
X626Y2080D02*
X658Y2080D01*
X676Y2080D02*
X695Y2080D01*
X726Y2080D02*
X759Y2080D01*
X776Y2080D02*
X808Y2080D01*
X1292Y2080D02*
X1299Y2080D01*
X0Y2079D02*
X7Y2079D01*
X625Y2079D02*
X658Y2079D01*
X675Y2079D02*
X697Y2079D01*
X726Y2079D02*
X759Y2079D01*
X776Y2079D02*
X809Y2079D01*
X1292Y2079D02*
X1299Y2079D01*
X0Y2078D02*
X7Y2078D01*
X625Y2078D02*
X658Y2078D01*
X675Y2078D02*
X698Y2078D01*
X725Y2078D02*
X759Y2078D01*
X776Y2078D02*
X809Y2078D01*
X1292Y2078D02*
X1299Y2078D01*
X0Y2077D02*
X7Y2077D01*
X625Y2077D02*
X658Y2077D01*
X675Y2077D02*
X699Y2077D01*
X725Y2077D02*
X759Y2077D01*
X776Y2077D02*
X809Y2077D01*
X1292Y2077D02*
X1299Y2077D01*
X0Y2076D02*
X7Y2076D01*
X625Y2076D02*
X658Y2076D01*
X676Y2076D02*
X700Y2076D01*
X726Y2076D02*
X759Y2076D01*
X776Y2076D02*
X809Y2076D01*
X1292Y2076D02*
X1299Y2076D01*
X0Y2075D02*
X7Y2075D01*
X626Y2075D02*
X658Y2075D01*
X677Y2075D02*
X700Y2075D01*
X727Y2075D02*
X759Y2075D01*
X777Y2075D02*
X808Y2075D01*
X1292Y2075D02*
X1299Y2075D01*
X0Y2074D02*
X7Y2074D01*
X652Y2074D02*
X658Y2074D01*
X693Y2074D02*
X701Y2074D01*
X753Y2074D02*
X759Y2074D01*
X789Y2074D02*
X795Y2074D01*
X1292Y2074D02*
X1299Y2074D01*
X0Y2073D02*
X7Y2073D01*
X652Y2073D02*
X658Y2073D01*
X694Y2073D02*
X701Y2073D01*
X753Y2073D02*
X759Y2073D01*
X789Y2073D02*
X795Y2073D01*
X1292Y2073D02*
X1299Y2073D01*
X0Y2072D02*
X7Y2072D01*
X652Y2072D02*
X658Y2072D01*
X695Y2072D02*
X702Y2072D01*
X753Y2072D02*
X759Y2072D01*
X789Y2072D02*
X795Y2072D01*
X1292Y2072D02*
X1299Y2072D01*
X0Y2071D02*
X7Y2071D01*
X652Y2071D02*
X658Y2071D01*
X695Y2071D02*
X702Y2071D01*
X753Y2071D02*
X759Y2071D01*
X789Y2071D02*
X795Y2071D01*
X1292Y2071D02*
X1299Y2071D01*
X0Y2070D02*
X7Y2070D01*
X652Y2070D02*
X658Y2070D01*
X696Y2070D02*
X703Y2070D01*
X753Y2070D02*
X759Y2070D01*
X789Y2070D02*
X795Y2070D01*
X1292Y2070D02*
X1299Y2070D01*
X0Y2069D02*
X7Y2069D01*
X652Y2069D02*
X658Y2069D01*
X696Y2069D02*
X703Y2069D01*
X753Y2069D02*
X759Y2069D01*
X789Y2069D02*
X795Y2069D01*
X1292Y2069D02*
X1299Y2069D01*
X0Y2068D02*
X7Y2068D01*
X652Y2068D02*
X658Y2068D01*
X697Y2068D02*
X704Y2068D01*
X753Y2068D02*
X759Y2068D01*
X789Y2068D02*
X795Y2068D01*
X1292Y2068D02*
X1299Y2068D01*
X0Y2067D02*
X7Y2067D01*
X652Y2067D02*
X658Y2067D01*
X697Y2067D02*
X704Y2067D01*
X753Y2067D02*
X759Y2067D01*
X789Y2067D02*
X795Y2067D01*
X1292Y2067D02*
X1299Y2067D01*
X0Y2066D02*
X7Y2066D01*
X652Y2066D02*
X658Y2066D01*
X698Y2066D02*
X705Y2066D01*
X753Y2066D02*
X759Y2066D01*
X789Y2066D02*
X795Y2066D01*
X1292Y2066D02*
X1299Y2066D01*
X0Y2065D02*
X7Y2065D01*
X652Y2065D02*
X658Y2065D01*
X698Y2065D02*
X705Y2065D01*
X753Y2065D02*
X759Y2065D01*
X789Y2065D02*
X795Y2065D01*
X1292Y2065D02*
X1299Y2065D01*
X0Y2064D02*
X7Y2064D01*
X652Y2064D02*
X658Y2064D01*
X699Y2064D02*
X706Y2064D01*
X753Y2064D02*
X759Y2064D01*
X789Y2064D02*
X795Y2064D01*
X1292Y2064D02*
X1299Y2064D01*
X0Y2063D02*
X7Y2063D01*
X652Y2063D02*
X658Y2063D01*
X699Y2063D02*
X706Y2063D01*
X753Y2063D02*
X759Y2063D01*
X789Y2063D02*
X795Y2063D01*
X1292Y2063D02*
X1299Y2063D01*
X0Y2062D02*
X7Y2062D01*
X652Y2062D02*
X658Y2062D01*
X700Y2062D02*
X707Y2062D01*
X753Y2062D02*
X759Y2062D01*
X789Y2062D02*
X795Y2062D01*
X1292Y2062D02*
X1299Y2062D01*
X0Y2061D02*
X7Y2061D01*
X652Y2061D02*
X658Y2061D01*
X700Y2061D02*
X707Y2061D01*
X753Y2061D02*
X759Y2061D01*
X789Y2061D02*
X795Y2061D01*
X1292Y2061D02*
X1299Y2061D01*
X0Y2060D02*
X7Y2060D01*
X652Y2060D02*
X658Y2060D01*
X701Y2060D02*
X708Y2060D01*
X753Y2060D02*
X759Y2060D01*
X789Y2060D02*
X795Y2060D01*
X1292Y2060D02*
X1299Y2060D01*
X0Y2059D02*
X7Y2059D01*
X652Y2059D02*
X658Y2059D01*
X701Y2059D02*
X708Y2059D01*
X753Y2059D02*
X759Y2059D01*
X789Y2059D02*
X795Y2059D01*
X1292Y2059D02*
X1299Y2059D01*
X0Y2058D02*
X7Y2058D01*
X652Y2058D02*
X658Y2058D01*
X702Y2058D02*
X708Y2058D01*
X753Y2058D02*
X759Y2058D01*
X789Y2058D02*
X795Y2058D01*
X1292Y2058D02*
X1299Y2058D01*
X0Y2057D02*
X7Y2057D01*
X629Y2057D02*
X658Y2057D01*
X702Y2057D02*
X708Y2057D01*
X729Y2057D02*
X759Y2057D01*
X789Y2057D02*
X795Y2057D01*
X1292Y2057D02*
X1299Y2057D01*
X0Y2056D02*
X7Y2056D01*
X627Y2056D02*
X658Y2056D01*
X702Y2056D02*
X709Y2056D01*
X728Y2056D02*
X759Y2056D01*
X789Y2056D02*
X795Y2056D01*
X1292Y2056D02*
X1299Y2056D01*
X0Y2055D02*
X7Y2055D01*
X626Y2055D02*
X658Y2055D01*
X703Y2055D02*
X709Y2055D01*
X727Y2055D02*
X758Y2055D01*
X789Y2055D02*
X795Y2055D01*
X1292Y2055D02*
X1299Y2055D01*
X0Y2054D02*
X7Y2054D01*
X626Y2054D02*
X657Y2054D01*
X703Y2054D02*
X709Y2054D01*
X726Y2054D02*
X758Y2054D01*
X789Y2054D02*
X795Y2054D01*
X1292Y2054D02*
X1299Y2054D01*
X0Y2053D02*
X7Y2053D01*
X625Y2053D02*
X657Y2053D01*
X703Y2053D02*
X709Y2053D01*
X726Y2053D02*
X757Y2053D01*
X789Y2053D02*
X795Y2053D01*
X1292Y2053D02*
X1299Y2053D01*
X0Y2052D02*
X7Y2052D01*
X625Y2052D02*
X655Y2052D01*
X702Y2052D02*
X709Y2052D01*
X725Y2052D02*
X756Y2052D01*
X789Y2052D02*
X795Y2052D01*
X1292Y2052D02*
X1299Y2052D01*
X0Y2051D02*
X7Y2051D01*
X625Y2051D02*
X653Y2051D01*
X702Y2051D02*
X708Y2051D01*
X725Y2051D02*
X754Y2051D01*
X789Y2051D02*
X795Y2051D01*
X1292Y2051D02*
X1299Y2051D01*
X0Y2050D02*
X7Y2050D01*
X625Y2050D02*
X631Y2050D01*
X702Y2050D02*
X708Y2050D01*
X725Y2050D02*
X731Y2050D01*
X789Y2050D02*
X795Y2050D01*
X1292Y2050D02*
X1299Y2050D01*
X0Y2049D02*
X7Y2049D01*
X625Y2049D02*
X631Y2049D01*
X701Y2049D02*
X708Y2049D01*
X725Y2049D02*
X731Y2049D01*
X789Y2049D02*
X795Y2049D01*
X1292Y2049D02*
X1299Y2049D01*
X0Y2048D02*
X7Y2048D01*
X625Y2048D02*
X631Y2048D01*
X701Y2048D02*
X707Y2048D01*
X725Y2048D02*
X731Y2048D01*
X789Y2048D02*
X795Y2048D01*
X1292Y2048D02*
X1299Y2048D01*
X0Y2047D02*
X7Y2047D01*
X625Y2047D02*
X631Y2047D01*
X700Y2047D02*
X707Y2047D01*
X725Y2047D02*
X731Y2047D01*
X789Y2047D02*
X795Y2047D01*
X1292Y2047D02*
X1299Y2047D01*
X0Y2046D02*
X7Y2046D01*
X625Y2046D02*
X631Y2046D01*
X700Y2046D02*
X706Y2046D01*
X725Y2046D02*
X731Y2046D01*
X789Y2046D02*
X795Y2046D01*
X1292Y2046D02*
X1299Y2046D01*
X0Y2045D02*
X7Y2045D01*
X625Y2045D02*
X631Y2045D01*
X699Y2045D02*
X706Y2045D01*
X725Y2045D02*
X731Y2045D01*
X789Y2045D02*
X795Y2045D01*
X1292Y2045D02*
X1299Y2045D01*
X0Y2044D02*
X7Y2044D01*
X625Y2044D02*
X631Y2044D01*
X699Y2044D02*
X706Y2044D01*
X725Y2044D02*
X731Y2044D01*
X789Y2044D02*
X795Y2044D01*
X1292Y2044D02*
X1299Y2044D01*
X0Y2043D02*
X7Y2043D01*
X625Y2043D02*
X631Y2043D01*
X698Y2043D02*
X705Y2043D01*
X725Y2043D02*
X731Y2043D01*
X789Y2043D02*
X795Y2043D01*
X1292Y2043D02*
X1299Y2043D01*
X0Y2042D02*
X7Y2042D01*
X625Y2042D02*
X631Y2042D01*
X698Y2042D02*
X705Y2042D01*
X725Y2042D02*
X731Y2042D01*
X789Y2042D02*
X795Y2042D01*
X1292Y2042D02*
X1299Y2042D01*
X0Y2041D02*
X7Y2041D01*
X625Y2041D02*
X631Y2041D01*
X697Y2041D02*
X704Y2041D01*
X725Y2041D02*
X731Y2041D01*
X789Y2041D02*
X795Y2041D01*
X1292Y2041D02*
X1299Y2041D01*
X0Y2040D02*
X7Y2040D01*
X625Y2040D02*
X631Y2040D01*
X697Y2040D02*
X704Y2040D01*
X725Y2040D02*
X731Y2040D01*
X789Y2040D02*
X795Y2040D01*
X1292Y2040D02*
X1299Y2040D01*
X0Y2039D02*
X7Y2039D01*
X625Y2039D02*
X631Y2039D01*
X696Y2039D02*
X703Y2039D01*
X725Y2039D02*
X731Y2039D01*
X789Y2039D02*
X795Y2039D01*
X1292Y2039D02*
X1299Y2039D01*
X0Y2038D02*
X7Y2038D01*
X625Y2038D02*
X631Y2038D01*
X696Y2038D02*
X703Y2038D01*
X725Y2038D02*
X731Y2038D01*
X789Y2038D02*
X795Y2038D01*
X1292Y2038D02*
X1299Y2038D01*
X0Y2037D02*
X7Y2037D01*
X625Y2037D02*
X631Y2037D01*
X695Y2037D02*
X702Y2037D01*
X725Y2037D02*
X731Y2037D01*
X789Y2037D02*
X795Y2037D01*
X1292Y2037D02*
X1299Y2037D01*
X0Y2036D02*
X7Y2036D01*
X625Y2036D02*
X631Y2036D01*
X695Y2036D02*
X702Y2036D01*
X725Y2036D02*
X731Y2036D01*
X789Y2036D02*
X795Y2036D01*
X1292Y2036D02*
X1299Y2036D01*
X0Y2035D02*
X7Y2035D01*
X625Y2035D02*
X631Y2035D01*
X694Y2035D02*
X701Y2035D01*
X725Y2035D02*
X731Y2035D01*
X789Y2035D02*
X795Y2035D01*
X1292Y2035D02*
X1299Y2035D01*
X0Y2034D02*
X7Y2034D01*
X625Y2034D02*
X656Y2034D01*
X678Y2034D02*
X701Y2034D01*
X725Y2034D02*
X756Y2034D01*
X778Y2034D02*
X807Y2034D01*
X1292Y2034D02*
X1299Y2034D01*
X0Y2033D02*
X7Y2033D01*
X625Y2033D02*
X658Y2033D01*
X676Y2033D02*
X700Y2033D01*
X725Y2033D02*
X758Y2033D01*
X777Y2033D02*
X808Y2033D01*
X1292Y2033D02*
X1299Y2033D01*
X0Y2032D02*
X7Y2032D01*
X625Y2032D02*
X658Y2032D01*
X675Y2032D02*
X699Y2032D01*
X726Y2032D02*
X759Y2032D01*
X776Y2032D02*
X809Y2032D01*
X1292Y2032D02*
X1299Y2032D01*
X0Y2031D02*
X7Y2031D01*
X626Y2031D02*
X658Y2031D01*
X675Y2031D02*
X699Y2031D01*
X726Y2031D02*
X759Y2031D01*
X776Y2031D02*
X809Y2031D01*
X1292Y2031D02*
X1299Y2031D01*
X0Y2030D02*
X7Y2030D01*
X626Y2030D02*
X658Y2030D01*
X675Y2030D02*
X698Y2030D01*
X727Y2030D02*
X759Y2030D01*
X776Y2030D02*
X809Y2030D01*
X1292Y2030D02*
X1299Y2030D01*
X0Y2029D02*
X7Y2029D01*
X627Y2029D02*
X658Y2029D01*
X676Y2029D02*
X697Y2029D01*
X728Y2029D02*
X758Y2029D01*
X776Y2029D02*
X809Y2029D01*
X1292Y2029D02*
X1299Y2029D01*
X0Y2028D02*
X7Y2028D01*
X629Y2028D02*
X657Y2028D01*
X676Y2028D02*
X695Y2028D01*
X729Y2028D02*
X758Y2028D01*
X777Y2028D02*
X808Y2028D01*
X1292Y2028D02*
X1299Y2028D01*
X0Y2027D02*
X7Y2027D01*
X1292Y2027D02*
X1299Y2027D01*
X0Y2026D02*
X7Y2026D01*
X1292Y2026D02*
X1299Y2026D01*
X0Y2025D02*
X7Y2025D01*
X1292Y2025D02*
X1299Y2025D01*
X0Y2024D02*
X7Y2024D01*
X1292Y2024D02*
X1299Y2024D01*
X0Y2023D02*
X7Y2023D01*
X1292Y2023D02*
X1299Y2023D01*
X0Y2022D02*
X7Y2022D01*
X1292Y2022D02*
X1299Y2022D01*
X0Y2021D02*
X7Y2021D01*
X1292Y2021D02*
X1299Y2021D01*
X0Y2020D02*
X7Y2020D01*
X1292Y2020D02*
X1299Y2020D01*
X0Y2019D02*
X7Y2019D01*
X1292Y2019D02*
X1299Y2019D01*
X0Y2018D02*
X7Y2018D01*
X1292Y2018D02*
X1299Y2018D01*
X0Y2017D02*
X7Y2017D01*
X837Y2017D02*
X838Y2017D01*
X1292Y2017D02*
X1299Y2017D01*
X0Y2016D02*
X7Y2016D01*
X836Y2016D02*
X839Y2016D01*
X1292Y2016D02*
X1299Y2016D01*
X0Y2015D02*
X7Y2015D01*
X835Y2015D02*
X840Y2015D01*
X1292Y2015D02*
X1299Y2015D01*
X0Y2014D02*
X7Y2014D01*
X835Y2014D02*
X841Y2014D01*
X1292Y2014D02*
X1299Y2014D01*
X0Y2013D02*
X7Y2013D01*
X836Y2013D02*
X842Y2013D01*
X1292Y2013D02*
X1299Y2013D01*
X0Y2012D02*
X7Y2012D01*
X837Y2012D02*
X843Y2012D01*
X1292Y2012D02*
X1299Y2012D01*
X0Y2011D02*
X7Y2011D01*
X838Y2011D02*
X844Y2011D01*
X1292Y2011D02*
X1299Y2011D01*
X0Y2010D02*
X7Y2010D01*
X839Y2010D02*
X845Y2010D01*
X1292Y2010D02*
X1299Y2010D01*
X0Y2009D02*
X7Y2009D01*
X840Y2009D02*
X846Y2009D01*
X1292Y2009D02*
X1299Y2009D01*
X0Y2008D02*
X7Y2008D01*
X841Y2008D02*
X847Y2008D01*
X1292Y2008D02*
X1299Y2008D01*
X0Y2007D02*
X7Y2007D01*
X842Y2007D02*
X848Y2007D01*
X1292Y2007D02*
X1299Y2007D01*
X0Y2006D02*
X7Y2006D01*
X843Y2006D02*
X849Y2006D01*
X1292Y2006D02*
X1299Y2006D01*
X0Y2005D02*
X7Y2005D01*
X844Y2005D02*
X850Y2005D01*
X1292Y2005D02*
X1299Y2005D01*
X0Y2004D02*
X7Y2004D01*
X845Y2004D02*
X851Y2004D01*
X1292Y2004D02*
X1299Y2004D01*
X0Y2003D02*
X7Y2003D01*
X846Y2003D02*
X852Y2003D01*
X1292Y2003D02*
X1299Y2003D01*
X0Y2002D02*
X7Y2002D01*
X847Y2002D02*
X852Y2002D01*
X1292Y2002D02*
X1299Y2002D01*
X0Y2001D02*
X7Y2001D01*
X848Y2001D02*
X853Y2001D01*
X1292Y2001D02*
X1299Y2001D01*
X0Y2000D02*
X7Y2000D01*
X849Y2000D02*
X854Y2000D01*
X1292Y2000D02*
X1299Y2000D01*
X0Y1999D02*
X7Y1999D01*
X850Y1999D02*
X855Y1999D01*
X1292Y1999D02*
X1299Y1999D01*
X0Y1998D02*
X7Y1998D01*
X851Y1998D02*
X857Y1998D01*
X1292Y1998D02*
X1299Y1998D01*
X0Y1997D02*
X7Y1997D01*
X852Y1997D02*
X858Y1997D01*
X1292Y1997D02*
X1299Y1997D01*
X0Y1996D02*
X7Y1996D01*
X853Y1996D02*
X859Y1996D01*
X1292Y1996D02*
X1299Y1996D01*
X0Y1995D02*
X7Y1995D01*
X854Y1995D02*
X860Y1995D01*
X1292Y1995D02*
X1299Y1995D01*
X0Y1994D02*
X7Y1994D01*
X855Y1994D02*
X861Y1994D01*
X1292Y1994D02*
X1299Y1994D01*
X0Y1993D02*
X7Y1993D01*
X856Y1993D02*
X862Y1993D01*
X1292Y1993D02*
X1299Y1993D01*
X0Y1992D02*
X7Y1992D01*
X857Y1992D02*
X863Y1992D01*
X1292Y1992D02*
X1299Y1992D01*
X0Y1991D02*
X7Y1991D01*
X858Y1991D02*
X864Y1991D01*
X1292Y1991D02*
X1299Y1991D01*
X0Y1990D02*
X7Y1990D01*
X859Y1990D02*
X865Y1990D01*
X1292Y1990D02*
X1299Y1990D01*
X0Y1989D02*
X7Y1989D01*
X860Y1989D02*
X866Y1989D01*
X1292Y1989D02*
X1299Y1989D01*
X0Y1988D02*
X7Y1988D01*
X861Y1988D02*
X867Y1988D01*
X1292Y1988D02*
X1299Y1988D01*
X0Y1987D02*
X7Y1987D01*
X862Y1987D02*
X868Y1987D01*
X1292Y1987D02*
X1299Y1987D01*
X0Y1986D02*
X7Y1986D01*
X863Y1986D02*
X869Y1986D01*
X1292Y1986D02*
X1299Y1986D01*
X0Y1985D02*
X7Y1985D01*
X864Y1985D02*
X870Y1985D01*
X1292Y1985D02*
X1299Y1985D01*
X0Y1984D02*
X7Y1984D01*
X865Y1984D02*
X871Y1984D01*
X1292Y1984D02*
X1299Y1984D01*
X0Y1983D02*
X7Y1983D01*
X866Y1983D02*
X872Y1983D01*
X1292Y1983D02*
X1299Y1983D01*
X0Y1982D02*
X7Y1982D01*
X867Y1982D02*
X871Y1982D01*
X1292Y1982D02*
X1299Y1982D01*
X0Y1981D02*
X7Y1981D01*
X131Y1981D02*
X140Y1981D01*
X868Y1981D02*
X870Y1981D01*
X1292Y1981D02*
X1299Y1981D01*
X0Y1980D02*
X7Y1980D01*
X131Y1980D02*
X140Y1980D01*
X869Y1980D02*
X869Y1980D01*
X1292Y1980D02*
X1299Y1980D01*
X0Y1979D02*
X7Y1979D01*
X131Y1979D02*
X140Y1979D01*
X1292Y1979D02*
X1299Y1979D01*
X0Y1978D02*
X7Y1978D01*
X131Y1978D02*
X140Y1978D01*
X1292Y1978D02*
X1299Y1978D01*
X0Y1977D02*
X7Y1977D01*
X131Y1977D02*
X140Y1977D01*
X1292Y1977D02*
X1299Y1977D01*
X0Y1976D02*
X7Y1976D01*
X131Y1976D02*
X140Y1976D01*
X1292Y1976D02*
X1299Y1976D01*
X0Y1975D02*
X7Y1975D01*
X131Y1975D02*
X140Y1975D01*
X1292Y1975D02*
X1299Y1975D01*
X0Y1974D02*
X7Y1974D01*
X131Y1974D02*
X140Y1974D01*
X1292Y1974D02*
X1299Y1974D01*
X0Y1973D02*
X7Y1973D01*
X131Y1973D02*
X140Y1973D01*
X1292Y1973D02*
X1299Y1973D01*
X0Y1972D02*
X7Y1972D01*
X131Y1972D02*
X140Y1972D01*
X1292Y1972D02*
X1299Y1972D01*
X0Y1971D02*
X7Y1971D01*
X131Y1971D02*
X140Y1971D01*
X1292Y1971D02*
X1299Y1971D01*
X0Y1970D02*
X7Y1970D01*
X1292Y1970D02*
X1299Y1970D01*
X0Y1969D02*
X7Y1969D01*
X1292Y1969D02*
X1299Y1969D01*
X0Y1968D02*
X7Y1968D01*
X1292Y1968D02*
X1299Y1968D01*
X0Y1967D02*
X7Y1967D01*
X1292Y1967D02*
X1299Y1967D01*
X0Y1966D02*
X7Y1966D01*
X1292Y1966D02*
X1299Y1966D01*
X0Y1965D02*
X7Y1965D01*
X1292Y1965D02*
X1299Y1965D01*
X0Y1964D02*
X7Y1964D01*
X1292Y1964D02*
X1299Y1964D01*
X0Y1963D02*
X7Y1963D01*
X1292Y1963D02*
X1299Y1963D01*
X0Y1962D02*
X7Y1962D01*
X1292Y1962D02*
X1299Y1962D01*
X0Y1961D02*
X7Y1961D01*
X1292Y1961D02*
X1299Y1961D01*
X0Y1960D02*
X7Y1960D01*
X1292Y1960D02*
X1299Y1960D01*
X0Y1959D02*
X7Y1959D01*
X1292Y1959D02*
X1299Y1959D01*
X0Y1958D02*
X7Y1958D01*
X1292Y1958D02*
X1299Y1958D01*
X0Y1957D02*
X7Y1957D01*
X1292Y1957D02*
X1299Y1957D01*
X0Y1956D02*
X7Y1956D01*
X1292Y1956D02*
X1299Y1956D01*
X0Y1955D02*
X7Y1955D01*
X1292Y1955D02*
X1299Y1955D01*
X0Y1954D02*
X7Y1954D01*
X1292Y1954D02*
X1299Y1954D01*
X0Y1953D02*
X7Y1953D01*
X1292Y1953D02*
X1299Y1953D01*
X0Y1952D02*
X7Y1952D01*
X1292Y1952D02*
X1299Y1952D01*
X0Y1951D02*
X7Y1951D01*
X1292Y1951D02*
X1299Y1951D01*
X0Y1950D02*
X7Y1950D01*
X1292Y1950D02*
X1299Y1950D01*
X0Y1949D02*
X7Y1949D01*
X131Y1949D02*
X140Y1949D01*
X1292Y1949D02*
X1299Y1949D01*
X0Y1948D02*
X7Y1948D01*
X131Y1948D02*
X140Y1948D01*
X1292Y1948D02*
X1299Y1948D01*
X0Y1947D02*
X7Y1947D01*
X131Y1947D02*
X140Y1947D01*
X1292Y1947D02*
X1299Y1947D01*
X0Y1946D02*
X7Y1946D01*
X131Y1946D02*
X140Y1946D01*
X1292Y1946D02*
X1299Y1946D01*
X0Y1945D02*
X7Y1945D01*
X131Y1945D02*
X140Y1945D01*
X1292Y1945D02*
X1299Y1945D01*
X0Y1944D02*
X7Y1944D01*
X131Y1944D02*
X140Y1944D01*
X1292Y1944D02*
X1299Y1944D01*
X0Y1943D02*
X7Y1943D01*
X131Y1943D02*
X140Y1943D01*
X1292Y1943D02*
X1299Y1943D01*
X0Y1942D02*
X7Y1942D01*
X131Y1942D02*
X140Y1942D01*
X1292Y1942D02*
X1299Y1942D01*
X0Y1941D02*
X7Y1941D01*
X131Y1941D02*
X140Y1941D01*
X1292Y1941D02*
X1299Y1941D01*
X0Y1940D02*
X7Y1940D01*
X131Y1940D02*
X140Y1940D01*
X1292Y1940D02*
X1299Y1940D01*
X0Y1939D02*
X7Y1939D01*
X131Y1939D02*
X140Y1939D01*
X1292Y1939D02*
X1299Y1939D01*
X0Y1938D02*
X7Y1938D01*
X131Y1938D02*
X140Y1938D01*
X1292Y1938D02*
X1299Y1938D01*
X0Y1937D02*
X7Y1937D01*
X131Y1937D02*
X140Y1937D01*
X1292Y1937D02*
X1299Y1937D01*
X0Y1936D02*
X7Y1936D01*
X131Y1936D02*
X140Y1936D01*
X1292Y1936D02*
X1299Y1936D01*
X0Y1935D02*
X7Y1935D01*
X131Y1935D02*
X140Y1935D01*
X1292Y1935D02*
X1299Y1935D01*
X0Y1934D02*
X7Y1934D01*
X131Y1934D02*
X140Y1934D01*
X1292Y1934D02*
X1299Y1934D01*
X0Y1933D02*
X7Y1933D01*
X131Y1933D02*
X140Y1933D01*
X1292Y1933D02*
X1299Y1933D01*
X0Y1932D02*
X7Y1932D01*
X131Y1932D02*
X140Y1932D01*
X1292Y1932D02*
X1299Y1932D01*
X0Y1931D02*
X7Y1931D01*
X131Y1931D02*
X140Y1931D01*
X1292Y1931D02*
X1299Y1931D01*
X0Y1930D02*
X7Y1930D01*
X131Y1930D02*
X140Y1930D01*
X1292Y1930D02*
X1299Y1930D01*
X0Y1929D02*
X7Y1929D01*
X131Y1929D02*
X140Y1929D01*
X1292Y1929D02*
X1299Y1929D01*
X0Y1928D02*
X7Y1928D01*
X131Y1928D02*
X140Y1928D01*
X1292Y1928D02*
X1299Y1928D01*
X0Y1927D02*
X7Y1927D01*
X131Y1927D02*
X140Y1927D01*
X1292Y1927D02*
X1299Y1927D01*
X0Y1926D02*
X7Y1926D01*
X131Y1926D02*
X140Y1926D01*
X1292Y1926D02*
X1299Y1926D01*
X0Y1925D02*
X7Y1925D01*
X131Y1925D02*
X140Y1925D01*
X1292Y1925D02*
X1299Y1925D01*
X0Y1924D02*
X7Y1924D01*
X131Y1924D02*
X140Y1924D01*
X1292Y1924D02*
X1299Y1924D01*
X0Y1923D02*
X7Y1923D01*
X131Y1923D02*
X140Y1923D01*
X1292Y1923D02*
X1299Y1923D01*
X0Y1922D02*
X7Y1922D01*
X131Y1922D02*
X140Y1922D01*
X1292Y1922D02*
X1299Y1922D01*
X0Y1921D02*
X7Y1921D01*
X131Y1921D02*
X140Y1921D01*
X1292Y1921D02*
X1299Y1921D01*
X0Y1920D02*
X7Y1920D01*
X131Y1920D02*
X140Y1920D01*
X1292Y1920D02*
X1299Y1920D01*
X0Y1919D02*
X7Y1919D01*
X131Y1919D02*
X140Y1919D01*
X1292Y1919D02*
X1299Y1919D01*
X0Y1918D02*
X7Y1918D01*
X131Y1918D02*
X140Y1918D01*
X1292Y1918D02*
X1299Y1918D01*
X0Y1917D02*
X7Y1917D01*
X131Y1917D02*
X140Y1917D01*
X1292Y1917D02*
X1299Y1917D01*
X0Y1916D02*
X7Y1916D01*
X131Y1916D02*
X140Y1916D01*
X1292Y1916D02*
X1299Y1916D01*
X0Y1915D02*
X7Y1915D01*
X131Y1915D02*
X140Y1915D01*
X1292Y1915D02*
X1299Y1915D01*
X0Y1914D02*
X7Y1914D01*
X131Y1914D02*
X140Y1914D01*
X1292Y1914D02*
X1299Y1914D01*
X0Y1913D02*
X7Y1913D01*
X1292Y1913D02*
X1299Y1913D01*
X0Y1912D02*
X7Y1912D01*
X1292Y1912D02*
X1299Y1912D01*
X0Y1911D02*
X7Y1911D01*
X1292Y1911D02*
X1299Y1911D01*
X0Y1910D02*
X7Y1910D01*
X1292Y1910D02*
X1299Y1910D01*
X0Y1909D02*
X7Y1909D01*
X1292Y1909D02*
X1299Y1909D01*
X0Y1908D02*
X7Y1908D01*
X1292Y1908D02*
X1299Y1908D01*
X0Y1907D02*
X7Y1907D01*
X1292Y1907D02*
X1299Y1907D01*
X0Y1906D02*
X7Y1906D01*
X1292Y1906D02*
X1299Y1906D01*
X0Y1905D02*
X7Y1905D01*
X1292Y1905D02*
X1299Y1905D01*
X0Y1904D02*
X7Y1904D01*
X1292Y1904D02*
X1299Y1904D01*
X0Y1903D02*
X7Y1903D01*
X1292Y1903D02*
X1299Y1903D01*
X0Y1902D02*
X7Y1902D01*
X1292Y1902D02*
X1299Y1902D01*
X0Y1901D02*
X7Y1901D01*
X1292Y1901D02*
X1299Y1901D01*
X0Y1900D02*
X7Y1900D01*
X1292Y1900D02*
X1299Y1900D01*
X0Y1899D02*
X7Y1899D01*
X1292Y1899D02*
X1299Y1899D01*
X0Y1898D02*
X7Y1898D01*
X156Y1898D02*
X157Y1898D01*
X1292Y1898D02*
X1299Y1898D01*
X0Y1897D02*
X7Y1897D01*
X154Y1897D02*
X158Y1897D01*
X1292Y1897D02*
X1299Y1897D01*
X0Y1896D02*
X7Y1896D01*
X153Y1896D02*
X159Y1896D01*
X1292Y1896D02*
X1299Y1896D01*
X0Y1895D02*
X7Y1895D01*
X154Y1895D02*
X160Y1895D01*
X1292Y1895D02*
X1299Y1895D01*
X0Y1894D02*
X7Y1894D01*
X155Y1894D02*
X161Y1894D01*
X1292Y1894D02*
X1299Y1894D01*
X0Y1893D02*
X7Y1893D01*
X156Y1893D02*
X162Y1893D01*
X1292Y1893D02*
X1299Y1893D01*
X0Y1892D02*
X7Y1892D01*
X131Y1892D02*
X140Y1892D01*
X157Y1892D02*
X163Y1892D01*
X1292Y1892D02*
X1299Y1892D01*
X0Y1891D02*
X7Y1891D01*
X131Y1891D02*
X140Y1891D01*
X158Y1891D02*
X164Y1891D01*
X1292Y1891D02*
X1299Y1891D01*
X0Y1890D02*
X7Y1890D01*
X131Y1890D02*
X140Y1890D01*
X159Y1890D02*
X165Y1890D01*
X1292Y1890D02*
X1299Y1890D01*
X0Y1889D02*
X7Y1889D01*
X131Y1889D02*
X140Y1889D01*
X160Y1889D02*
X166Y1889D01*
X1292Y1889D02*
X1299Y1889D01*
X0Y1888D02*
X7Y1888D01*
X131Y1888D02*
X140Y1888D01*
X161Y1888D02*
X167Y1888D01*
X1292Y1888D02*
X1299Y1888D01*
X0Y1887D02*
X7Y1887D01*
X131Y1887D02*
X140Y1887D01*
X162Y1887D02*
X168Y1887D01*
X1292Y1887D02*
X1299Y1887D01*
X0Y1886D02*
X7Y1886D01*
X131Y1886D02*
X140Y1886D01*
X163Y1886D02*
X169Y1886D01*
X1292Y1886D02*
X1299Y1886D01*
X0Y1885D02*
X7Y1885D01*
X131Y1885D02*
X140Y1885D01*
X164Y1885D02*
X170Y1885D01*
X1292Y1885D02*
X1299Y1885D01*
X0Y1884D02*
X7Y1884D01*
X131Y1884D02*
X140Y1884D01*
X165Y1884D02*
X171Y1884D01*
X1292Y1884D02*
X1299Y1884D01*
X0Y1883D02*
X7Y1883D01*
X131Y1883D02*
X140Y1883D01*
X166Y1883D02*
X172Y1883D01*
X1292Y1883D02*
X1299Y1883D01*
X0Y1882D02*
X7Y1882D01*
X131Y1882D02*
X140Y1882D01*
X167Y1882D02*
X171Y1882D01*
X1292Y1882D02*
X1299Y1882D01*
X0Y1881D02*
X7Y1881D01*
X168Y1881D02*
X170Y1881D01*
X1292Y1881D02*
X1299Y1881D01*
X0Y1880D02*
X7Y1880D01*
X169Y1880D02*
X169Y1880D01*
X1292Y1880D02*
X1299Y1880D01*
X0Y1879D02*
X7Y1879D01*
X1292Y1879D02*
X1299Y1879D01*
X0Y1878D02*
X7Y1878D01*
X1292Y1878D02*
X1299Y1878D01*
X0Y1877D02*
X7Y1877D01*
X1292Y1877D02*
X1299Y1877D01*
X0Y1876D02*
X7Y1876D01*
X1292Y1876D02*
X1299Y1876D01*
X0Y1875D02*
X7Y1875D01*
X1292Y1875D02*
X1299Y1875D01*
X0Y1874D02*
X7Y1874D01*
X1292Y1874D02*
X1299Y1874D01*
X0Y1873D02*
X7Y1873D01*
X1292Y1873D02*
X1299Y1873D01*
X0Y1872D02*
X7Y1872D01*
X1292Y1872D02*
X1299Y1872D01*
X0Y1871D02*
X7Y1871D01*
X1292Y1871D02*
X1299Y1871D01*
X0Y1870D02*
X7Y1870D01*
X1292Y1870D02*
X1299Y1870D01*
X0Y1869D02*
X7Y1869D01*
X1292Y1869D02*
X1299Y1869D01*
X0Y1868D02*
X7Y1868D01*
X1292Y1868D02*
X1299Y1868D01*
X0Y1867D02*
X7Y1867D01*
X1292Y1867D02*
X1299Y1867D01*
X0Y1866D02*
X7Y1866D01*
X1292Y1866D02*
X1299Y1866D01*
X0Y1865D02*
X7Y1865D01*
X1292Y1865D02*
X1299Y1865D01*
X0Y1864D02*
X7Y1864D01*
X1292Y1864D02*
X1299Y1864D01*
X0Y1863D02*
X7Y1863D01*
X637Y1863D02*
X664Y1863D01*
X684Y1863D02*
X701Y1863D01*
X734Y1863D02*
X766Y1863D01*
X785Y1863D02*
X815Y1863D01*
X1292Y1863D02*
X1299Y1863D01*
X0Y1862D02*
X7Y1862D01*
X635Y1862D02*
X665Y1862D01*
X683Y1862D02*
X703Y1862D01*
X733Y1862D02*
X766Y1862D01*
X784Y1862D02*
X816Y1862D01*
X1292Y1862D02*
X1299Y1862D01*
X0Y1861D02*
X7Y1861D01*
X634Y1861D02*
X666Y1861D01*
X683Y1861D02*
X705Y1861D01*
X733Y1861D02*
X766Y1861D01*
X783Y1861D02*
X816Y1861D01*
X1292Y1861D02*
X1299Y1861D01*
X0Y1860D02*
X7Y1860D01*
X633Y1860D02*
X666Y1860D01*
X683Y1860D02*
X706Y1860D01*
X733Y1860D02*
X766Y1860D01*
X783Y1860D02*
X816Y1860D01*
X1292Y1860D02*
X1299Y1860D01*
X0Y1859D02*
X7Y1859D01*
X633Y1859D02*
X666Y1859D01*
X683Y1859D02*
X706Y1859D01*
X733Y1859D02*
X766Y1859D01*
X783Y1859D02*
X816Y1859D01*
X1292Y1859D02*
X1299Y1859D01*
X0Y1858D02*
X7Y1858D01*
X632Y1858D02*
X665Y1858D01*
X683Y1858D02*
X707Y1858D01*
X733Y1858D02*
X766Y1858D01*
X784Y1858D02*
X816Y1858D01*
X1292Y1858D02*
X1299Y1858D01*
X0Y1857D02*
X7Y1857D01*
X632Y1857D02*
X664Y1857D01*
X684Y1857D02*
X708Y1857D01*
X735Y1857D02*
X766Y1857D01*
X785Y1857D02*
X815Y1857D01*
X1292Y1857D02*
X1299Y1857D01*
X0Y1856D02*
X7Y1856D01*
X632Y1856D02*
X638Y1856D01*
X701Y1856D02*
X708Y1856D01*
X760Y1856D02*
X766Y1856D01*
X797Y1856D02*
X803Y1856D01*
X1292Y1856D02*
X1299Y1856D01*
X0Y1855D02*
X7Y1855D01*
X632Y1855D02*
X638Y1855D01*
X702Y1855D02*
X709Y1855D01*
X760Y1855D02*
X766Y1855D01*
X797Y1855D02*
X803Y1855D01*
X1292Y1855D02*
X1299Y1855D01*
X0Y1854D02*
X7Y1854D01*
X632Y1854D02*
X638Y1854D01*
X702Y1854D02*
X709Y1854D01*
X760Y1854D02*
X766Y1854D01*
X797Y1854D02*
X803Y1854D01*
X1292Y1854D02*
X1299Y1854D01*
X0Y1853D02*
X7Y1853D01*
X632Y1853D02*
X638Y1853D01*
X703Y1853D02*
X710Y1853D01*
X760Y1853D02*
X766Y1853D01*
X797Y1853D02*
X803Y1853D01*
X1292Y1853D02*
X1299Y1853D01*
X0Y1852D02*
X7Y1852D01*
X632Y1852D02*
X638Y1852D01*
X703Y1852D02*
X710Y1852D01*
X760Y1852D02*
X766Y1852D01*
X797Y1852D02*
X803Y1852D01*
X1292Y1852D02*
X1299Y1852D01*
X0Y1851D02*
X7Y1851D01*
X632Y1851D02*
X638Y1851D01*
X704Y1851D02*
X711Y1851D01*
X760Y1851D02*
X766Y1851D01*
X797Y1851D02*
X803Y1851D01*
X1292Y1851D02*
X1299Y1851D01*
X0Y1850D02*
X7Y1850D01*
X632Y1850D02*
X638Y1850D01*
X704Y1850D02*
X711Y1850D01*
X760Y1850D02*
X766Y1850D01*
X797Y1850D02*
X803Y1850D01*
X1292Y1850D02*
X1299Y1850D01*
X0Y1849D02*
X7Y1849D01*
X632Y1849D02*
X638Y1849D01*
X705Y1849D02*
X712Y1849D01*
X760Y1849D02*
X766Y1849D01*
X797Y1849D02*
X803Y1849D01*
X1292Y1849D02*
X1299Y1849D01*
X0Y1848D02*
X7Y1848D01*
X632Y1848D02*
X638Y1848D01*
X705Y1848D02*
X712Y1848D01*
X760Y1848D02*
X766Y1848D01*
X797Y1848D02*
X803Y1848D01*
X1292Y1848D02*
X1299Y1848D01*
X0Y1847D02*
X7Y1847D01*
X632Y1847D02*
X638Y1847D01*
X706Y1847D02*
X713Y1847D01*
X760Y1847D02*
X766Y1847D01*
X797Y1847D02*
X803Y1847D01*
X1292Y1847D02*
X1299Y1847D01*
X0Y1846D02*
X7Y1846D01*
X632Y1846D02*
X638Y1846D01*
X706Y1846D02*
X713Y1846D01*
X760Y1846D02*
X766Y1846D01*
X797Y1846D02*
X803Y1846D01*
X1292Y1846D02*
X1299Y1846D01*
X0Y1845D02*
X7Y1845D01*
X632Y1845D02*
X638Y1845D01*
X707Y1845D02*
X714Y1845D01*
X760Y1845D02*
X766Y1845D01*
X797Y1845D02*
X803Y1845D01*
X1292Y1845D02*
X1299Y1845D01*
X0Y1844D02*
X7Y1844D01*
X632Y1844D02*
X638Y1844D01*
X707Y1844D02*
X714Y1844D01*
X760Y1844D02*
X766Y1844D01*
X797Y1844D02*
X803Y1844D01*
X1292Y1844D02*
X1299Y1844D01*
X0Y1843D02*
X7Y1843D01*
X632Y1843D02*
X638Y1843D01*
X708Y1843D02*
X715Y1843D01*
X760Y1843D02*
X766Y1843D01*
X797Y1843D02*
X803Y1843D01*
X1292Y1843D02*
X1299Y1843D01*
X0Y1842D02*
X7Y1842D01*
X632Y1842D02*
X639Y1842D01*
X708Y1842D02*
X715Y1842D01*
X760Y1842D02*
X766Y1842D01*
X797Y1842D02*
X803Y1842D01*
X1292Y1842D02*
X1299Y1842D01*
X0Y1841D02*
X7Y1841D01*
X633Y1841D02*
X640Y1841D01*
X709Y1841D02*
X715Y1841D01*
X760Y1841D02*
X766Y1841D01*
X797Y1841D02*
X803Y1841D01*
X1292Y1841D02*
X1299Y1841D01*
X0Y1840D02*
X7Y1840D01*
X633Y1840D02*
X642Y1840D01*
X709Y1840D02*
X716Y1840D01*
X760Y1840D02*
X766Y1840D01*
X797Y1840D02*
X803Y1840D01*
X1292Y1840D02*
X1299Y1840D01*
X0Y1839D02*
X7Y1839D01*
X633Y1839D02*
X658Y1839D01*
X710Y1839D02*
X716Y1839D01*
X736Y1839D02*
X766Y1839D01*
X797Y1839D02*
X803Y1839D01*
X1292Y1839D02*
X1299Y1839D01*
X0Y1838D02*
X7Y1838D01*
X634Y1838D02*
X659Y1838D01*
X710Y1838D02*
X716Y1838D01*
X735Y1838D02*
X766Y1838D01*
X797Y1838D02*
X803Y1838D01*
X1292Y1838D02*
X1299Y1838D01*
X0Y1837D02*
X7Y1837D01*
X635Y1837D02*
X659Y1837D01*
X710Y1837D02*
X716Y1837D01*
X734Y1837D02*
X766Y1837D01*
X797Y1837D02*
X803Y1837D01*
X1292Y1837D02*
X1299Y1837D01*
X0Y1836D02*
X7Y1836D01*
X635Y1836D02*
X659Y1836D01*
X710Y1836D02*
X716Y1836D01*
X733Y1836D02*
X765Y1836D01*
X797Y1836D02*
X803Y1836D01*
X1292Y1836D02*
X1299Y1836D01*
X0Y1835D02*
X7Y1835D01*
X634Y1835D02*
X659Y1835D01*
X710Y1835D02*
X716Y1835D01*
X733Y1835D02*
X764Y1835D01*
X797Y1835D02*
X803Y1835D01*
X1292Y1835D02*
X1299Y1835D01*
X0Y1834D02*
X7Y1834D01*
X633Y1834D02*
X658Y1834D01*
X710Y1834D02*
X716Y1834D01*
X733Y1834D02*
X763Y1834D01*
X797Y1834D02*
X803Y1834D01*
X1292Y1834D02*
X1299Y1834D01*
X0Y1833D02*
X7Y1833D01*
X270Y1833D02*
X285Y1833D01*
X334Y1833D02*
X335Y1833D01*
X371Y1833D02*
X372Y1833D01*
X398Y1833D02*
X399Y1833D01*
X633Y1833D02*
X656Y1833D01*
X709Y1833D02*
X716Y1833D01*
X733Y1833D02*
X739Y1833D01*
X797Y1833D02*
X803Y1833D01*
X1292Y1833D02*
X1299Y1833D01*
X0Y1832D02*
X7Y1832D01*
X269Y1832D02*
X288Y1832D01*
X333Y1832D02*
X337Y1832D01*
X369Y1832D02*
X373Y1832D01*
X397Y1832D02*
X401Y1832D01*
X633Y1832D02*
X640Y1832D01*
X709Y1832D02*
X715Y1832D01*
X733Y1832D02*
X739Y1832D01*
X797Y1832D02*
X803Y1832D01*
X1292Y1832D02*
X1299Y1832D01*
X0Y1831D02*
X7Y1831D01*
X268Y1831D02*
X289Y1831D01*
X332Y1831D02*
X337Y1831D01*
X368Y1831D02*
X374Y1831D01*
X396Y1831D02*
X401Y1831D01*
X632Y1831D02*
X639Y1831D01*
X708Y1831D02*
X715Y1831D01*
X733Y1831D02*
X739Y1831D01*
X797Y1831D02*
X803Y1831D01*
X1292Y1831D02*
X1299Y1831D01*
X0Y1830D02*
X7Y1830D01*
X268Y1830D02*
X291Y1830D01*
X332Y1830D02*
X338Y1830D01*
X368Y1830D02*
X375Y1830D01*
X396Y1830D02*
X402Y1830D01*
X632Y1830D02*
X638Y1830D01*
X708Y1830D02*
X715Y1830D01*
X733Y1830D02*
X739Y1830D01*
X797Y1830D02*
X803Y1830D01*
X1292Y1830D02*
X1299Y1830D01*
X0Y1829D02*
X7Y1829D01*
X268Y1829D02*
X291Y1829D01*
X332Y1829D02*
X338Y1829D01*
X368Y1829D02*
X375Y1829D01*
X396Y1829D02*
X402Y1829D01*
X632Y1829D02*
X638Y1829D01*
X707Y1829D02*
X714Y1829D01*
X733Y1829D02*
X739Y1829D01*
X797Y1829D02*
X803Y1829D01*
X1292Y1829D02*
X1299Y1829D01*
X0Y1828D02*
X7Y1828D01*
X268Y1828D02*
X292Y1828D01*
X332Y1828D02*
X338Y1828D01*
X369Y1828D02*
X376Y1828D01*
X396Y1828D02*
X402Y1828D01*
X632Y1828D02*
X638Y1828D01*
X707Y1828D02*
X714Y1828D01*
X733Y1828D02*
X739Y1828D01*
X797Y1828D02*
X803Y1828D01*
X1292Y1828D02*
X1299Y1828D01*
X0Y1827D02*
X7Y1827D01*
X269Y1827D02*
X293Y1827D01*
X332Y1827D02*
X338Y1827D01*
X369Y1827D02*
X376Y1827D01*
X396Y1827D02*
X402Y1827D01*
X632Y1827D02*
X638Y1827D01*
X706Y1827D02*
X713Y1827D01*
X733Y1827D02*
X739Y1827D01*
X797Y1827D02*
X803Y1827D01*
X1292Y1827D02*
X1299Y1827D01*
X0Y1826D02*
X7Y1826D01*
X285Y1826D02*
X293Y1826D01*
X332Y1826D02*
X338Y1826D01*
X370Y1826D02*
X377Y1826D01*
X396Y1826D02*
X402Y1826D01*
X632Y1826D02*
X638Y1826D01*
X706Y1826D02*
X713Y1826D01*
X733Y1826D02*
X739Y1826D01*
X797Y1826D02*
X803Y1826D01*
X1292Y1826D02*
X1299Y1826D01*
X0Y1825D02*
X7Y1825D01*
X287Y1825D02*
X294Y1825D01*
X332Y1825D02*
X338Y1825D01*
X370Y1825D02*
X378Y1825D01*
X396Y1825D02*
X402Y1825D01*
X632Y1825D02*
X638Y1825D01*
X705Y1825D02*
X712Y1825D01*
X733Y1825D02*
X739Y1825D01*
X797Y1825D02*
X803Y1825D01*
X1292Y1825D02*
X1299Y1825D01*
X0Y1824D02*
X7Y1824D01*
X287Y1824D02*
X294Y1824D01*
X332Y1824D02*
X338Y1824D01*
X371Y1824D02*
X378Y1824D01*
X396Y1824D02*
X402Y1824D01*
X632Y1824D02*
X638Y1824D01*
X705Y1824D02*
X712Y1824D01*
X733Y1824D02*
X739Y1824D01*
X797Y1824D02*
X803Y1824D01*
X1292Y1824D02*
X1299Y1824D01*
X0Y1823D02*
X7Y1823D01*
X288Y1823D02*
X295Y1823D01*
X332Y1823D02*
X338Y1823D01*
X372Y1823D02*
X379Y1823D01*
X396Y1823D02*
X402Y1823D01*
X632Y1823D02*
X638Y1823D01*
X704Y1823D02*
X711Y1823D01*
X733Y1823D02*
X739Y1823D01*
X797Y1823D02*
X803Y1823D01*
X1292Y1823D02*
X1299Y1823D01*
X0Y1822D02*
X7Y1822D01*
X288Y1822D02*
X295Y1822D01*
X332Y1822D02*
X338Y1822D01*
X372Y1822D02*
X379Y1822D01*
X396Y1822D02*
X402Y1822D01*
X632Y1822D02*
X638Y1822D01*
X704Y1822D02*
X711Y1822D01*
X733Y1822D02*
X739Y1822D01*
X797Y1822D02*
X803Y1822D01*
X1292Y1822D02*
X1299Y1822D01*
X0Y1821D02*
X7Y1821D01*
X289Y1821D02*
X296Y1821D01*
X332Y1821D02*
X338Y1821D01*
X373Y1821D02*
X380Y1821D01*
X396Y1821D02*
X402Y1821D01*
X632Y1821D02*
X638Y1821D01*
X703Y1821D02*
X710Y1821D01*
X733Y1821D02*
X739Y1821D01*
X797Y1821D02*
X803Y1821D01*
X1292Y1821D02*
X1299Y1821D01*
X0Y1820D02*
X7Y1820D01*
X289Y1820D02*
X296Y1820D01*
X332Y1820D02*
X338Y1820D01*
X373Y1820D02*
X380Y1820D01*
X396Y1820D02*
X402Y1820D01*
X632Y1820D02*
X638Y1820D01*
X703Y1820D02*
X710Y1820D01*
X733Y1820D02*
X739Y1820D01*
X797Y1820D02*
X803Y1820D01*
X1292Y1820D02*
X1299Y1820D01*
X0Y1819D02*
X7Y1819D01*
X290Y1819D02*
X297Y1819D01*
X332Y1819D02*
X338Y1819D01*
X374Y1819D02*
X381Y1819D01*
X396Y1819D02*
X402Y1819D01*
X632Y1819D02*
X638Y1819D01*
X702Y1819D02*
X709Y1819D01*
X733Y1819D02*
X739Y1819D01*
X797Y1819D02*
X803Y1819D01*
X1292Y1819D02*
X1299Y1819D01*
X0Y1818D02*
X7Y1818D01*
X290Y1818D02*
X297Y1818D01*
X332Y1818D02*
X338Y1818D01*
X374Y1818D02*
X382Y1818D01*
X396Y1818D02*
X402Y1818D01*
X632Y1818D02*
X638Y1818D01*
X702Y1818D02*
X709Y1818D01*
X733Y1818D02*
X739Y1818D01*
X797Y1818D02*
X803Y1818D01*
X1292Y1818D02*
X1299Y1818D01*
X0Y1817D02*
X7Y1817D01*
X291Y1817D02*
X298Y1817D01*
X332Y1817D02*
X338Y1817D01*
X375Y1817D02*
X382Y1817D01*
X396Y1817D02*
X402Y1817D01*
X632Y1817D02*
X638Y1817D01*
X701Y1817D02*
X708Y1817D01*
X733Y1817D02*
X739Y1817D01*
X797Y1817D02*
X803Y1817D01*
X837Y1817D02*
X838Y1817D01*
X1292Y1817D02*
X1299Y1817D01*
X0Y1816D02*
X7Y1816D01*
X291Y1816D02*
X298Y1816D01*
X332Y1816D02*
X338Y1816D01*
X376Y1816D02*
X383Y1816D01*
X396Y1816D02*
X402Y1816D01*
X632Y1816D02*
X664Y1816D01*
X684Y1816D02*
X708Y1816D01*
X733Y1816D02*
X764Y1816D01*
X785Y1816D02*
X815Y1816D01*
X836Y1816D02*
X839Y1816D01*
X1292Y1816D02*
X1299Y1816D01*
X0Y1815D02*
X7Y1815D01*
X292Y1815D02*
X299Y1815D01*
X332Y1815D02*
X338Y1815D01*
X376Y1815D02*
X383Y1815D01*
X396Y1815D02*
X402Y1815D01*
X632Y1815D02*
X665Y1815D01*
X683Y1815D02*
X707Y1815D01*
X733Y1815D02*
X766Y1815D01*
X784Y1815D02*
X816Y1815D01*
X835Y1815D02*
X840Y1815D01*
X1292Y1815D02*
X1299Y1815D01*
X0Y1814D02*
X7Y1814D01*
X292Y1814D02*
X299Y1814D01*
X332Y1814D02*
X338Y1814D01*
X377Y1814D02*
X384Y1814D01*
X396Y1814D02*
X402Y1814D01*
X633Y1814D02*
X666Y1814D01*
X683Y1814D02*
X707Y1814D01*
X733Y1814D02*
X766Y1814D01*
X783Y1814D02*
X816Y1814D01*
X835Y1814D02*
X841Y1814D01*
X1292Y1814D02*
X1299Y1814D01*
X0Y1813D02*
X7Y1813D01*
X293Y1813D02*
X300Y1813D01*
X332Y1813D02*
X338Y1813D01*
X377Y1813D02*
X385Y1813D01*
X396Y1813D02*
X402Y1813D01*
X633Y1813D02*
X666Y1813D01*
X683Y1813D02*
X706Y1813D01*
X734Y1813D02*
X766Y1813D01*
X783Y1813D02*
X816Y1813D01*
X836Y1813D02*
X842Y1813D01*
X1292Y1813D02*
X1299Y1813D01*
X0Y1812D02*
X7Y1812D01*
X293Y1812D02*
X300Y1812D01*
X332Y1812D02*
X338Y1812D01*
X378Y1812D02*
X385Y1812D01*
X396Y1812D02*
X402Y1812D01*
X634Y1812D02*
X666Y1812D01*
X683Y1812D02*
X705Y1812D01*
X734Y1812D02*
X766Y1812D01*
X783Y1812D02*
X816Y1812D01*
X837Y1812D02*
X843Y1812D01*
X1292Y1812D02*
X1299Y1812D01*
X0Y1811D02*
X7Y1811D01*
X294Y1811D02*
X300Y1811D01*
X332Y1811D02*
X338Y1811D01*
X379Y1811D02*
X386Y1811D01*
X396Y1811D02*
X402Y1811D01*
X635Y1811D02*
X665Y1811D01*
X683Y1811D02*
X704Y1811D01*
X735Y1811D02*
X766Y1811D01*
X784Y1811D02*
X816Y1811D01*
X838Y1811D02*
X844Y1811D01*
X1292Y1811D02*
X1299Y1811D01*
X0Y1810D02*
X7Y1810D01*
X294Y1810D02*
X301Y1810D01*
X332Y1810D02*
X338Y1810D01*
X379Y1810D02*
X386Y1810D01*
X396Y1810D02*
X402Y1810D01*
X637Y1810D02*
X664Y1810D01*
X684Y1810D02*
X701Y1810D01*
X737Y1810D02*
X765Y1810D01*
X785Y1810D02*
X815Y1810D01*
X839Y1810D02*
X845Y1810D01*
X1292Y1810D02*
X1299Y1810D01*
X0Y1809D02*
X7Y1809D01*
X295Y1809D02*
X301Y1809D01*
X332Y1809D02*
X338Y1809D01*
X380Y1809D02*
X387Y1809D01*
X396Y1809D02*
X402Y1809D01*
X840Y1809D02*
X846Y1809D01*
X1292Y1809D02*
X1299Y1809D01*
X0Y1808D02*
X7Y1808D01*
X295Y1808D02*
X301Y1808D01*
X332Y1808D02*
X338Y1808D01*
X380Y1808D02*
X387Y1808D01*
X396Y1808D02*
X402Y1808D01*
X841Y1808D02*
X847Y1808D01*
X1292Y1808D02*
X1299Y1808D01*
X0Y1807D02*
X7Y1807D01*
X295Y1807D02*
X301Y1807D01*
X332Y1807D02*
X338Y1807D01*
X381Y1807D02*
X388Y1807D01*
X396Y1807D02*
X402Y1807D01*
X842Y1807D02*
X848Y1807D01*
X1292Y1807D02*
X1299Y1807D01*
X0Y1806D02*
X7Y1806D01*
X295Y1806D02*
X301Y1806D01*
X332Y1806D02*
X338Y1806D01*
X381Y1806D02*
X389Y1806D01*
X396Y1806D02*
X402Y1806D01*
X843Y1806D02*
X849Y1806D01*
X1292Y1806D02*
X1299Y1806D01*
X0Y1805D02*
X7Y1805D01*
X295Y1805D02*
X301Y1805D01*
X332Y1805D02*
X338Y1805D01*
X382Y1805D02*
X389Y1805D01*
X396Y1805D02*
X402Y1805D01*
X844Y1805D02*
X850Y1805D01*
X1292Y1805D02*
X1299Y1805D01*
X0Y1804D02*
X7Y1804D01*
X295Y1804D02*
X301Y1804D01*
X332Y1804D02*
X338Y1804D01*
X382Y1804D02*
X390Y1804D01*
X396Y1804D02*
X402Y1804D01*
X845Y1804D02*
X851Y1804D01*
X1292Y1804D02*
X1299Y1804D01*
X0Y1803D02*
X7Y1803D01*
X295Y1803D02*
X301Y1803D01*
X332Y1803D02*
X338Y1803D01*
X375Y1803D02*
X402Y1803D01*
X846Y1803D02*
X852Y1803D01*
X1292Y1803D02*
X1299Y1803D01*
X0Y1802D02*
X7Y1802D01*
X294Y1802D02*
X301Y1802D01*
X332Y1802D02*
X338Y1802D01*
X373Y1802D02*
X402Y1802D01*
X847Y1802D02*
X853Y1802D01*
X1292Y1802D02*
X1299Y1802D01*
X0Y1801D02*
X7Y1801D01*
X294Y1801D02*
X300Y1801D01*
X332Y1801D02*
X338Y1801D01*
X372Y1801D02*
X402Y1801D01*
X848Y1801D02*
X853Y1801D01*
X1292Y1801D02*
X1299Y1801D01*
X0Y1800D02*
X7Y1800D01*
X293Y1800D02*
X300Y1800D01*
X332Y1800D02*
X338Y1800D01*
X371Y1800D02*
X402Y1800D01*
X849Y1800D02*
X854Y1800D01*
X1292Y1800D02*
X1299Y1800D01*
X0Y1799D02*
X7Y1799D01*
X293Y1799D02*
X300Y1799D01*
X332Y1799D02*
X338Y1799D01*
X370Y1799D02*
X402Y1799D01*
X850Y1799D02*
X856Y1799D01*
X1292Y1799D02*
X1299Y1799D01*
X0Y1798D02*
X7Y1798D01*
X292Y1798D02*
X299Y1798D01*
X332Y1798D02*
X338Y1798D01*
X369Y1798D02*
X402Y1798D01*
X851Y1798D02*
X857Y1798D01*
X1292Y1798D02*
X1299Y1798D01*
X0Y1797D02*
X7Y1797D01*
X292Y1797D02*
X299Y1797D01*
X332Y1797D02*
X338Y1797D01*
X369Y1797D02*
X402Y1797D01*
X852Y1797D02*
X858Y1797D01*
X1292Y1797D02*
X1299Y1797D01*
X0Y1796D02*
X7Y1796D01*
X291Y1796D02*
X298Y1796D01*
X332Y1796D02*
X338Y1796D01*
X369Y1796D02*
X376Y1796D01*
X396Y1796D02*
X402Y1796D01*
X853Y1796D02*
X859Y1796D01*
X1292Y1796D02*
X1299Y1796D01*
X0Y1795D02*
X7Y1795D01*
X291Y1795D02*
X298Y1795D01*
X332Y1795D02*
X338Y1795D01*
X368Y1795D02*
X375Y1795D01*
X396Y1795D02*
X402Y1795D01*
X854Y1795D02*
X860Y1795D01*
X1292Y1795D02*
X1299Y1795D01*
X0Y1794D02*
X7Y1794D01*
X290Y1794D02*
X297Y1794D01*
X332Y1794D02*
X338Y1794D01*
X368Y1794D02*
X374Y1794D01*
X396Y1794D02*
X402Y1794D01*
X855Y1794D02*
X861Y1794D01*
X1292Y1794D02*
X1299Y1794D01*
X0Y1793D02*
X7Y1793D01*
X290Y1793D02*
X297Y1793D01*
X332Y1793D02*
X338Y1793D01*
X368Y1793D02*
X374Y1793D01*
X396Y1793D02*
X402Y1793D01*
X856Y1793D02*
X862Y1793D01*
X1292Y1793D02*
X1299Y1793D01*
X0Y1792D02*
X7Y1792D01*
X289Y1792D02*
X296Y1792D01*
X332Y1792D02*
X338Y1792D01*
X368Y1792D02*
X374Y1792D01*
X396Y1792D02*
X402Y1792D01*
X857Y1792D02*
X863Y1792D01*
X1292Y1792D02*
X1299Y1792D01*
X0Y1791D02*
X7Y1791D01*
X289Y1791D02*
X296Y1791D01*
X319Y1791D02*
X323Y1791D01*
X332Y1791D02*
X338Y1791D01*
X347Y1791D02*
X350Y1791D01*
X368Y1791D02*
X374Y1791D01*
X396Y1791D02*
X402Y1791D01*
X858Y1791D02*
X864Y1791D01*
X1292Y1791D02*
X1299Y1791D01*
X0Y1790D02*
X7Y1790D01*
X288Y1790D02*
X295Y1790D01*
X318Y1790D02*
X324Y1790D01*
X332Y1790D02*
X338Y1790D01*
X346Y1790D02*
X351Y1790D01*
X368Y1790D02*
X374Y1790D01*
X396Y1790D02*
X402Y1790D01*
X859Y1790D02*
X865Y1790D01*
X1292Y1790D02*
X1299Y1790D01*
X0Y1789D02*
X7Y1789D01*
X288Y1789D02*
X295Y1789D01*
X318Y1789D02*
X324Y1789D01*
X332Y1789D02*
X338Y1789D01*
X346Y1789D02*
X351Y1789D01*
X368Y1789D02*
X374Y1789D01*
X396Y1789D02*
X402Y1789D01*
X860Y1789D02*
X866Y1789D01*
X1292Y1789D02*
X1299Y1789D01*
X0Y1788D02*
X7Y1788D01*
X287Y1788D02*
X294Y1788D01*
X318Y1788D02*
X324Y1788D01*
X332Y1788D02*
X338Y1788D01*
X346Y1788D02*
X352Y1788D01*
X368Y1788D02*
X375Y1788D01*
X396Y1788D02*
X402Y1788D01*
X861Y1788D02*
X867Y1788D01*
X1292Y1788D02*
X1299Y1788D01*
X0Y1787D02*
X7Y1787D01*
X287Y1787D02*
X294Y1787D01*
X318Y1787D02*
X324Y1787D01*
X332Y1787D02*
X338Y1787D01*
X346Y1787D02*
X352Y1787D01*
X369Y1787D02*
X375Y1787D01*
X396Y1787D02*
X402Y1787D01*
X862Y1787D02*
X868Y1787D01*
X1292Y1787D02*
X1299Y1787D01*
X0Y1786D02*
X7Y1786D01*
X271Y1786D02*
X293Y1786D01*
X318Y1786D02*
X352Y1786D01*
X369Y1786D02*
X402Y1786D01*
X863Y1786D02*
X869Y1786D01*
X1292Y1786D02*
X1299Y1786D01*
X0Y1785D02*
X7Y1785D01*
X269Y1785D02*
X293Y1785D01*
X318Y1785D02*
X352Y1785D01*
X369Y1785D02*
X402Y1785D01*
X864Y1785D02*
X870Y1785D01*
X1292Y1785D02*
X1299Y1785D01*
X0Y1784D02*
X7Y1784D01*
X268Y1784D02*
X292Y1784D01*
X318Y1784D02*
X352Y1784D01*
X370Y1784D02*
X402Y1784D01*
X865Y1784D02*
X871Y1784D01*
X1292Y1784D02*
X1299Y1784D01*
X0Y1783D02*
X7Y1783D01*
X268Y1783D02*
X291Y1783D01*
X318Y1783D02*
X352Y1783D01*
X371Y1783D02*
X402Y1783D01*
X866Y1783D02*
X872Y1783D01*
X1292Y1783D02*
X1299Y1783D01*
X0Y1782D02*
X7Y1782D01*
X268Y1782D02*
X291Y1782D01*
X318Y1782D02*
X352Y1782D01*
X372Y1782D02*
X402Y1782D01*
X867Y1782D02*
X871Y1782D01*
X1292Y1782D02*
X1299Y1782D01*
X0Y1781D02*
X7Y1781D01*
X268Y1781D02*
X289Y1781D01*
X318Y1781D02*
X352Y1781D01*
X373Y1781D02*
X402Y1781D01*
X868Y1781D02*
X870Y1781D01*
X1292Y1781D02*
X1299Y1781D01*
X0Y1780D02*
X7Y1780D01*
X269Y1780D02*
X287Y1780D01*
X318Y1780D02*
X352Y1780D01*
X374Y1780D02*
X402Y1780D01*
X1292Y1780D02*
X1299Y1780D01*
X0Y1779D02*
X7Y1779D01*
X1292Y1779D02*
X1299Y1779D01*
X0Y1778D02*
X7Y1778D01*
X1292Y1778D02*
X1299Y1778D01*
X0Y1777D02*
X7Y1777D01*
X1292Y1777D02*
X1299Y1777D01*
X0Y1776D02*
X7Y1776D01*
X1292Y1776D02*
X1299Y1776D01*
X0Y1775D02*
X7Y1775D01*
X1292Y1775D02*
X1299Y1775D01*
X0Y1774D02*
X7Y1774D01*
X1292Y1774D02*
X1299Y1774D01*
X0Y1773D02*
X7Y1773D01*
X1292Y1773D02*
X1299Y1773D01*
X0Y1772D02*
X7Y1772D01*
X1292Y1772D02*
X1299Y1772D01*
X0Y1771D02*
X7Y1771D01*
X1292Y1771D02*
X1299Y1771D01*
X0Y1770D02*
X7Y1770D01*
X1292Y1770D02*
X1299Y1770D01*
X0Y1769D02*
X7Y1769D01*
X1292Y1769D02*
X1299Y1769D01*
X0Y1768D02*
X7Y1768D01*
X1292Y1768D02*
X1299Y1768D01*
X0Y1767D02*
X7Y1767D01*
X1292Y1767D02*
X1299Y1767D01*
X0Y1766D02*
X7Y1766D01*
X1292Y1766D02*
X1299Y1766D01*
X0Y1765D02*
X7Y1765D01*
X1292Y1765D02*
X1299Y1765D01*
X0Y1764D02*
X7Y1764D01*
X1292Y1764D02*
X1299Y1764D01*
X0Y1763D02*
X7Y1763D01*
X1292Y1763D02*
X1299Y1763D01*
X0Y1762D02*
X7Y1762D01*
X1292Y1762D02*
X1299Y1762D01*
X0Y1761D02*
X7Y1761D01*
X1292Y1761D02*
X1299Y1761D01*
X0Y1760D02*
X7Y1760D01*
X1292Y1760D02*
X1299Y1760D01*
X0Y1759D02*
X7Y1759D01*
X1292Y1759D02*
X1299Y1759D01*
X0Y1758D02*
X7Y1758D01*
X1292Y1758D02*
X1299Y1758D01*
X0Y1757D02*
X7Y1757D01*
X1292Y1757D02*
X1299Y1757D01*
X0Y1756D02*
X7Y1756D01*
X1292Y1756D02*
X1299Y1756D01*
X0Y1755D02*
X7Y1755D01*
X1292Y1755D02*
X1299Y1755D01*
X0Y1754D02*
X7Y1754D01*
X1292Y1754D02*
X1299Y1754D01*
X0Y1753D02*
X7Y1753D01*
X1292Y1753D02*
X1299Y1753D01*
X0Y1752D02*
X7Y1752D01*
X1292Y1752D02*
X1299Y1752D01*
X0Y1751D02*
X7Y1751D01*
X1292Y1751D02*
X1299Y1751D01*
X0Y1750D02*
X7Y1750D01*
X1292Y1750D02*
X1299Y1750D01*
X0Y1749D02*
X7Y1749D01*
X1292Y1749D02*
X1299Y1749D01*
X0Y1748D02*
X7Y1748D01*
X1292Y1748D02*
X1299Y1748D01*
X0Y1747D02*
X7Y1747D01*
X1292Y1747D02*
X1299Y1747D01*
X0Y1746D02*
X7Y1746D01*
X1292Y1746D02*
X1299Y1746D01*
X0Y1745D02*
X7Y1745D01*
X1292Y1745D02*
X1299Y1745D01*
X0Y1744D02*
X7Y1744D01*
X1292Y1744D02*
X1299Y1744D01*
X0Y1743D02*
X7Y1743D01*
X1292Y1743D02*
X1299Y1743D01*
X0Y1742D02*
X7Y1742D01*
X1292Y1742D02*
X1299Y1742D01*
X0Y1741D02*
X7Y1741D01*
X1292Y1741D02*
X1299Y1741D01*
X0Y1740D02*
X7Y1740D01*
X1292Y1740D02*
X1299Y1740D01*
X0Y1739D02*
X7Y1739D01*
X1292Y1739D02*
X1299Y1739D01*
X0Y1738D02*
X7Y1738D01*
X1292Y1738D02*
X1299Y1738D01*
X0Y1737D02*
X7Y1737D01*
X1292Y1737D02*
X1299Y1737D01*
X0Y1736D02*
X7Y1736D01*
X1292Y1736D02*
X1299Y1736D01*
X0Y1735D02*
X7Y1735D01*
X1292Y1735D02*
X1299Y1735D01*
X0Y1734D02*
X7Y1734D01*
X1292Y1734D02*
X1299Y1734D01*
X0Y1733D02*
X7Y1733D01*
X1292Y1733D02*
X1299Y1733D01*
X0Y1732D02*
X7Y1732D01*
X1292Y1732D02*
X1299Y1732D01*
X0Y1731D02*
X7Y1731D01*
X1292Y1731D02*
X1299Y1731D01*
X0Y1730D02*
X7Y1730D01*
X1292Y1730D02*
X1299Y1730D01*
X0Y1729D02*
X7Y1729D01*
X1292Y1729D02*
X1299Y1729D01*
X0Y1728D02*
X7Y1728D01*
X1292Y1728D02*
X1299Y1728D01*
X0Y1727D02*
X7Y1727D01*
X1292Y1727D02*
X1299Y1727D01*
X0Y1726D02*
X7Y1726D01*
X1292Y1726D02*
X1299Y1726D01*
X0Y1725D02*
X7Y1725D01*
X1292Y1725D02*
X1299Y1725D01*
X0Y1724D02*
X7Y1724D01*
X1292Y1724D02*
X1299Y1724D01*
X0Y1723D02*
X7Y1723D01*
X1292Y1723D02*
X1299Y1723D01*
X0Y1722D02*
X7Y1722D01*
X1292Y1722D02*
X1299Y1722D01*
X0Y1721D02*
X7Y1721D01*
X1292Y1721D02*
X1299Y1721D01*
X0Y1720D02*
X7Y1720D01*
X1292Y1720D02*
X1299Y1720D01*
X0Y1719D02*
X7Y1719D01*
X1292Y1719D02*
X1299Y1719D01*
X0Y1718D02*
X7Y1718D01*
X1292Y1718D02*
X1299Y1718D01*
X0Y1717D02*
X7Y1717D01*
X1292Y1717D02*
X1299Y1717D01*
X0Y1716D02*
X7Y1716D01*
X1292Y1716D02*
X1299Y1716D01*
X0Y1715D02*
X7Y1715D01*
X1292Y1715D02*
X1299Y1715D01*
X0Y1714D02*
X7Y1714D01*
X1292Y1714D02*
X1299Y1714D01*
X0Y1713D02*
X7Y1713D01*
X1292Y1713D02*
X1299Y1713D01*
X0Y1712D02*
X7Y1712D01*
X1292Y1712D02*
X1299Y1712D01*
X0Y1711D02*
X7Y1711D01*
X1292Y1711D02*
X1299Y1711D01*
X0Y1710D02*
X7Y1710D01*
X1292Y1710D02*
X1299Y1710D01*
X0Y1709D02*
X7Y1709D01*
X1292Y1709D02*
X1299Y1709D01*
X0Y1708D02*
X7Y1708D01*
X1292Y1708D02*
X1299Y1708D01*
X0Y1707D02*
X7Y1707D01*
X1292Y1707D02*
X1299Y1707D01*
X0Y1706D02*
X7Y1706D01*
X1292Y1706D02*
X1299Y1706D01*
X0Y1705D02*
X7Y1705D01*
X1292Y1705D02*
X1299Y1705D01*
X0Y1704D02*
X7Y1704D01*
X1292Y1704D02*
X1299Y1704D01*
X0Y1703D02*
X7Y1703D01*
X1292Y1703D02*
X1299Y1703D01*
X0Y1702D02*
X7Y1702D01*
X1292Y1702D02*
X1299Y1702D01*
X0Y1701D02*
X7Y1701D01*
X1292Y1701D02*
X1299Y1701D01*
X0Y1700D02*
X7Y1700D01*
X1292Y1700D02*
X1299Y1700D01*
X0Y1699D02*
X7Y1699D01*
X1292Y1699D02*
X1299Y1699D01*
X0Y1698D02*
X7Y1698D01*
X1292Y1698D02*
X1299Y1698D01*
X0Y1697D02*
X7Y1697D01*
X1292Y1697D02*
X1299Y1697D01*
X0Y1696D02*
X7Y1696D01*
X1292Y1696D02*
X1299Y1696D01*
X0Y1695D02*
X7Y1695D01*
X1292Y1695D02*
X1299Y1695D01*
X0Y1694D02*
X7Y1694D01*
X1292Y1694D02*
X1299Y1694D01*
X0Y1693D02*
X7Y1693D01*
X1292Y1693D02*
X1299Y1693D01*
X0Y1692D02*
X7Y1692D01*
X1292Y1692D02*
X1299Y1692D01*
X0Y1691D02*
X7Y1691D01*
X1292Y1691D02*
X1299Y1691D01*
X0Y1690D02*
X7Y1690D01*
X1292Y1690D02*
X1299Y1690D01*
X0Y1689D02*
X7Y1689D01*
X1292Y1689D02*
X1299Y1689D01*
X0Y1688D02*
X7Y1688D01*
X1292Y1688D02*
X1299Y1688D01*
X0Y1687D02*
X7Y1687D01*
X1292Y1687D02*
X1299Y1687D01*
X0Y1686D02*
X7Y1686D01*
X1292Y1686D02*
X1299Y1686D01*
X0Y1685D02*
X7Y1685D01*
X1292Y1685D02*
X1299Y1685D01*
X0Y1684D02*
X7Y1684D01*
X1292Y1684D02*
X1299Y1684D01*
X0Y1683D02*
X7Y1683D01*
X1292Y1683D02*
X1299Y1683D01*
X0Y1682D02*
X7Y1682D01*
X1292Y1682D02*
X1299Y1682D01*
X0Y1681D02*
X7Y1681D01*
X1292Y1681D02*
X1299Y1681D01*
X0Y1680D02*
X7Y1680D01*
X1292Y1680D02*
X1299Y1680D01*
X0Y1679D02*
X7Y1679D01*
X1292Y1679D02*
X1299Y1679D01*
X0Y1678D02*
X7Y1678D01*
X1292Y1678D02*
X1299Y1678D01*
X0Y1677D02*
X7Y1677D01*
X1292Y1677D02*
X1299Y1677D01*
X0Y1676D02*
X7Y1676D01*
X1292Y1676D02*
X1299Y1676D01*
X0Y1675D02*
X7Y1675D01*
X1292Y1675D02*
X1299Y1675D01*
X0Y1674D02*
X7Y1674D01*
X1292Y1674D02*
X1299Y1674D01*
X0Y1673D02*
X7Y1673D01*
X1292Y1673D02*
X1299Y1673D01*
X0Y1672D02*
X7Y1672D01*
X1292Y1672D02*
X1299Y1672D01*
X0Y1671D02*
X7Y1671D01*
X1292Y1671D02*
X1299Y1671D01*
X0Y1670D02*
X7Y1670D01*
X1292Y1670D02*
X1299Y1670D01*
X0Y1669D02*
X7Y1669D01*
X1292Y1669D02*
X1299Y1669D01*
X0Y1668D02*
X7Y1668D01*
X1292Y1668D02*
X1299Y1668D01*
X0Y1667D02*
X7Y1667D01*
X1292Y1667D02*
X1299Y1667D01*
X0Y1666D02*
X7Y1666D01*
X1292Y1666D02*
X1299Y1666D01*
X0Y1665D02*
X7Y1665D01*
X1292Y1665D02*
X1299Y1665D01*
X0Y1664D02*
X7Y1664D01*
X1292Y1664D02*
X1299Y1664D01*
X0Y1663D02*
X7Y1663D01*
X1292Y1663D02*
X1299Y1663D01*
X0Y1662D02*
X7Y1662D01*
X1292Y1662D02*
X1299Y1662D01*
X0Y1661D02*
X7Y1661D01*
X1292Y1661D02*
X1299Y1661D01*
X0Y1660D02*
X7Y1660D01*
X1292Y1660D02*
X1299Y1660D01*
X0Y1659D02*
X7Y1659D01*
X1292Y1659D02*
X1299Y1659D01*
X0Y1658D02*
X7Y1658D01*
X1292Y1658D02*
X1299Y1658D01*
X0Y1657D02*
X7Y1657D01*
X1292Y1657D02*
X1299Y1657D01*
X0Y1656D02*
X7Y1656D01*
X1292Y1656D02*
X1299Y1656D01*
X0Y1655D02*
X7Y1655D01*
X1292Y1655D02*
X1299Y1655D01*
X0Y1654D02*
X7Y1654D01*
X1292Y1654D02*
X1299Y1654D01*
X0Y1653D02*
X7Y1653D01*
X1292Y1653D02*
X1299Y1653D01*
X0Y1652D02*
X7Y1652D01*
X1292Y1652D02*
X1299Y1652D01*
X0Y1651D02*
X7Y1651D01*
X1292Y1651D02*
X1299Y1651D01*
X0Y1650D02*
X7Y1650D01*
X1292Y1650D02*
X1299Y1650D01*
X0Y1649D02*
X7Y1649D01*
X1292Y1649D02*
X1299Y1649D01*
X0Y1648D02*
X7Y1648D01*
X1292Y1648D02*
X1299Y1648D01*
X0Y1647D02*
X7Y1647D01*
X1292Y1647D02*
X1299Y1647D01*
X0Y1646D02*
X7Y1646D01*
X1292Y1646D02*
X1299Y1646D01*
X0Y1645D02*
X7Y1645D01*
X1292Y1645D02*
X1299Y1645D01*
X0Y1644D02*
X7Y1644D01*
X1292Y1644D02*
X1299Y1644D01*
X0Y1643D02*
X7Y1643D01*
X1292Y1643D02*
X1299Y1643D01*
X0Y1642D02*
X7Y1642D01*
X1292Y1642D02*
X1299Y1642D01*
X0Y1641D02*
X7Y1641D01*
X1292Y1641D02*
X1299Y1641D01*
X0Y1640D02*
X7Y1640D01*
X1292Y1640D02*
X1299Y1640D01*
X0Y1639D02*
X7Y1639D01*
X1292Y1639D02*
X1299Y1639D01*
X0Y1638D02*
X7Y1638D01*
X1292Y1638D02*
X1299Y1638D01*
X0Y1637D02*
X7Y1637D01*
X1292Y1637D02*
X1299Y1637D01*
X0Y1636D02*
X7Y1636D01*
X1292Y1636D02*
X1299Y1636D01*
X0Y1635D02*
X7Y1635D01*
X1292Y1635D02*
X1299Y1635D01*
X0Y1634D02*
X7Y1634D01*
X1292Y1634D02*
X1299Y1634D01*
X0Y1633D02*
X7Y1633D01*
X1292Y1633D02*
X1299Y1633D01*
X0Y1632D02*
X7Y1632D01*
X1292Y1632D02*
X1299Y1632D01*
X0Y1631D02*
X7Y1631D01*
X1292Y1631D02*
X1299Y1631D01*
X0Y1630D02*
X7Y1630D01*
X1292Y1630D02*
X1299Y1630D01*
X0Y1629D02*
X7Y1629D01*
X1292Y1629D02*
X1299Y1629D01*
X0Y1628D02*
X7Y1628D01*
X1292Y1628D02*
X1299Y1628D01*
X0Y1627D02*
X7Y1627D01*
X1292Y1627D02*
X1299Y1627D01*
X0Y1626D02*
X7Y1626D01*
X1292Y1626D02*
X1299Y1626D01*
X0Y1625D02*
X7Y1625D01*
X1292Y1625D02*
X1299Y1625D01*
X0Y1624D02*
X7Y1624D01*
X1292Y1624D02*
X1299Y1624D01*
X0Y1623D02*
X7Y1623D01*
X1292Y1623D02*
X1299Y1623D01*
X0Y1622D02*
X7Y1622D01*
X1292Y1622D02*
X1299Y1622D01*
X0Y1621D02*
X7Y1621D01*
X1292Y1621D02*
X1299Y1621D01*
X0Y1620D02*
X7Y1620D01*
X1292Y1620D02*
X1299Y1620D01*
X0Y1619D02*
X7Y1619D01*
X1292Y1619D02*
X1299Y1619D01*
X0Y1618D02*
X7Y1618D01*
X1292Y1618D02*
X1299Y1618D01*
X0Y1617D02*
X7Y1617D01*
X1292Y1617D02*
X1299Y1617D01*
X0Y1616D02*
X7Y1616D01*
X1292Y1616D02*
X1299Y1616D01*
X0Y1615D02*
X7Y1615D01*
X1292Y1615D02*
X1299Y1615D01*
X0Y1614D02*
X7Y1614D01*
X1292Y1614D02*
X1299Y1614D01*
X0Y1613D02*
X7Y1613D01*
X1292Y1613D02*
X1299Y1613D01*
X0Y1612D02*
X7Y1612D01*
X1292Y1612D02*
X1299Y1612D01*
X0Y1611D02*
X7Y1611D01*
X1292Y1611D02*
X1299Y1611D01*
X0Y1610D02*
X7Y1610D01*
X1292Y1610D02*
X1299Y1610D01*
X0Y1609D02*
X7Y1609D01*
X1292Y1609D02*
X1299Y1609D01*
X0Y1608D02*
X7Y1608D01*
X1292Y1608D02*
X1299Y1608D01*
X0Y1607D02*
X7Y1607D01*
X1292Y1607D02*
X1299Y1607D01*
X0Y1606D02*
X7Y1606D01*
X1292Y1606D02*
X1299Y1606D01*
X0Y1605D02*
X7Y1605D01*
X1292Y1605D02*
X1299Y1605D01*
X0Y1604D02*
X7Y1604D01*
X1292Y1604D02*
X1299Y1604D01*
X0Y1603D02*
X7Y1603D01*
X1292Y1603D02*
X1299Y1603D01*
X0Y1602D02*
X7Y1602D01*
X1292Y1602D02*
X1299Y1602D01*
X0Y1601D02*
X7Y1601D01*
X1292Y1601D02*
X1299Y1601D01*
X0Y1600D02*
X7Y1600D01*
X1292Y1600D02*
X1299Y1600D01*
X0Y1599D02*
X7Y1599D01*
X1292Y1599D02*
X1299Y1599D01*
X0Y1598D02*
X7Y1598D01*
X1292Y1598D02*
X1299Y1598D01*
X0Y1597D02*
X7Y1597D01*
X1292Y1597D02*
X1299Y1597D01*
X0Y1596D02*
X7Y1596D01*
X1292Y1596D02*
X1299Y1596D01*
X0Y1595D02*
X7Y1595D01*
X1292Y1595D02*
X1299Y1595D01*
X0Y1594D02*
X7Y1594D01*
X1292Y1594D02*
X1299Y1594D01*
X0Y1593D02*
X7Y1593D01*
X1292Y1593D02*
X1299Y1593D01*
X0Y1592D02*
X7Y1592D01*
X1292Y1592D02*
X1299Y1592D01*
X0Y1591D02*
X7Y1591D01*
X1292Y1591D02*
X1299Y1591D01*
X0Y1590D02*
X7Y1590D01*
X1292Y1590D02*
X1299Y1590D01*
X0Y1589D02*
X7Y1589D01*
X1292Y1589D02*
X1299Y1589D01*
X0Y1588D02*
X7Y1588D01*
X1292Y1588D02*
X1299Y1588D01*
X0Y1587D02*
X7Y1587D01*
X1292Y1587D02*
X1299Y1587D01*
X0Y1586D02*
X7Y1586D01*
X1292Y1586D02*
X1299Y1586D01*
X0Y1585D02*
X7Y1585D01*
X1292Y1585D02*
X1299Y1585D01*
X0Y1584D02*
X7Y1584D01*
X1292Y1584D02*
X1299Y1584D01*
X0Y1583D02*
X7Y1583D01*
X1292Y1583D02*
X1299Y1583D01*
X0Y1582D02*
X7Y1582D01*
X1292Y1582D02*
X1299Y1582D01*
X0Y1581D02*
X7Y1581D01*
X1292Y1581D02*
X1299Y1581D01*
X0Y1580D02*
X7Y1580D01*
X1292Y1580D02*
X1299Y1580D01*
X0Y1579D02*
X7Y1579D01*
X1292Y1579D02*
X1299Y1579D01*
X0Y1578D02*
X7Y1578D01*
X1292Y1578D02*
X1299Y1578D01*
X0Y1577D02*
X7Y1577D01*
X1292Y1577D02*
X1299Y1577D01*
X0Y1576D02*
X7Y1576D01*
X1292Y1576D02*
X1299Y1576D01*
X0Y1575D02*
X7Y1575D01*
X1292Y1575D02*
X1299Y1575D01*
X0Y1574D02*
X7Y1574D01*
X1292Y1574D02*
X1299Y1574D01*
X0Y1573D02*
X7Y1573D01*
X1292Y1573D02*
X1299Y1573D01*
X0Y1572D02*
X7Y1572D01*
X1292Y1572D02*
X1299Y1572D01*
X0Y1571D02*
X7Y1571D01*
X1292Y1571D02*
X1299Y1571D01*
X0Y1570D02*
X7Y1570D01*
X1292Y1570D02*
X1299Y1570D01*
X0Y1569D02*
X7Y1569D01*
X1292Y1569D02*
X1299Y1569D01*
X0Y1568D02*
X7Y1568D01*
X1292Y1568D02*
X1299Y1568D01*
X0Y1567D02*
X7Y1567D01*
X1292Y1567D02*
X1299Y1567D01*
X0Y1566D02*
X7Y1566D01*
X1292Y1566D02*
X1299Y1566D01*
X0Y1565D02*
X7Y1565D01*
X1292Y1565D02*
X1299Y1565D01*
X0Y1564D02*
X7Y1564D01*
X1292Y1564D02*
X1299Y1564D01*
X0Y1563D02*
X7Y1563D01*
X1292Y1563D02*
X1299Y1563D01*
X0Y1562D02*
X7Y1562D01*
X1292Y1562D02*
X1299Y1562D01*
X0Y1561D02*
X7Y1561D01*
X1292Y1561D02*
X1299Y1561D01*
X0Y1560D02*
X7Y1560D01*
X1292Y1560D02*
X1299Y1560D01*
X0Y1559D02*
X7Y1559D01*
X1292Y1559D02*
X1299Y1559D01*
X0Y1558D02*
X7Y1558D01*
X1292Y1558D02*
X1299Y1558D01*
X0Y1557D02*
X7Y1557D01*
X1292Y1557D02*
X1299Y1557D01*
X0Y1556D02*
X7Y1556D01*
X1292Y1556D02*
X1299Y1556D01*
X0Y1555D02*
X7Y1555D01*
X1292Y1555D02*
X1299Y1555D01*
X0Y1554D02*
X7Y1554D01*
X1292Y1554D02*
X1299Y1554D01*
X0Y1553D02*
X7Y1553D01*
X1292Y1553D02*
X1299Y1553D01*
X0Y1552D02*
X7Y1552D01*
X1292Y1552D02*
X1299Y1552D01*
X0Y1551D02*
X7Y1551D01*
X1292Y1551D02*
X1299Y1551D01*
X0Y1550D02*
X7Y1550D01*
X1292Y1550D02*
X1299Y1550D01*
X0Y1549D02*
X7Y1549D01*
X1292Y1549D02*
X1299Y1549D01*
X0Y1548D02*
X7Y1548D01*
X1292Y1548D02*
X1299Y1548D01*
X0Y1547D02*
X7Y1547D01*
X1292Y1547D02*
X1299Y1547D01*
X0Y1546D02*
X7Y1546D01*
X1292Y1546D02*
X1299Y1546D01*
X0Y1545D02*
X7Y1545D01*
X1292Y1545D02*
X1299Y1545D01*
X0Y1544D02*
X7Y1544D01*
X1292Y1544D02*
X1299Y1544D01*
X0Y1543D02*
X7Y1543D01*
X1292Y1543D02*
X1299Y1543D01*
X0Y1542D02*
X7Y1542D01*
X1292Y1542D02*
X1299Y1542D01*
X0Y1541D02*
X7Y1541D01*
X1292Y1541D02*
X1299Y1541D01*
X0Y1540D02*
X7Y1540D01*
X1292Y1540D02*
X1299Y1540D01*
X0Y1539D02*
X7Y1539D01*
X1292Y1539D02*
X1299Y1539D01*
X0Y1538D02*
X7Y1538D01*
X1292Y1538D02*
X1299Y1538D01*
X0Y1537D02*
X7Y1537D01*
X1292Y1537D02*
X1299Y1537D01*
X0Y1536D02*
X7Y1536D01*
X1292Y1536D02*
X1299Y1536D01*
X0Y1535D02*
X7Y1535D01*
X1292Y1535D02*
X1299Y1535D01*
X0Y1534D02*
X7Y1534D01*
X1292Y1534D02*
X1299Y1534D01*
X0Y1533D02*
X7Y1533D01*
X1292Y1533D02*
X1299Y1533D01*
X0Y1532D02*
X7Y1532D01*
X1292Y1532D02*
X1299Y1532D01*
X0Y1531D02*
X7Y1531D01*
X1292Y1531D02*
X1299Y1531D01*
X0Y1530D02*
X7Y1530D01*
X1292Y1530D02*
X1299Y1530D01*
X0Y1529D02*
X7Y1529D01*
X1292Y1529D02*
X1299Y1529D01*
X0Y1528D02*
X7Y1528D01*
X1292Y1528D02*
X1299Y1528D01*
X0Y1527D02*
X7Y1527D01*
X1292Y1527D02*
X1299Y1527D01*
X0Y1526D02*
X7Y1526D01*
X1292Y1526D02*
X1299Y1526D01*
X0Y1525D02*
X7Y1525D01*
X1292Y1525D02*
X1299Y1525D01*
X0Y1524D02*
X7Y1524D01*
X1292Y1524D02*
X1299Y1524D01*
X0Y1523D02*
X7Y1523D01*
X1292Y1523D02*
X1299Y1523D01*
X0Y1522D02*
X7Y1522D01*
X1292Y1522D02*
X1299Y1522D01*
X0Y1521D02*
X7Y1521D01*
X1292Y1521D02*
X1299Y1521D01*
X0Y1520D02*
X7Y1520D01*
X1292Y1520D02*
X1299Y1520D01*
X0Y1519D02*
X7Y1519D01*
X1292Y1519D02*
X1299Y1519D01*
X0Y1518D02*
X7Y1518D01*
X1292Y1518D02*
X1299Y1518D01*
X0Y1517D02*
X7Y1517D01*
X1292Y1517D02*
X1299Y1517D01*
X0Y1516D02*
X7Y1516D01*
X1292Y1516D02*
X1299Y1516D01*
X0Y1515D02*
X7Y1515D01*
X1292Y1515D02*
X1299Y1515D01*
X0Y1514D02*
X7Y1514D01*
X1292Y1514D02*
X1299Y1514D01*
X0Y1513D02*
X7Y1513D01*
X1292Y1513D02*
X1299Y1513D01*
X0Y1512D02*
X7Y1512D01*
X1292Y1512D02*
X1299Y1512D01*
X0Y1511D02*
X7Y1511D01*
X1292Y1511D02*
X1299Y1511D01*
X0Y1510D02*
X7Y1510D01*
X1292Y1510D02*
X1299Y1510D01*
X0Y1509D02*
X7Y1509D01*
X1292Y1509D02*
X1299Y1509D01*
X0Y1508D02*
X7Y1508D01*
X1292Y1508D02*
X1299Y1508D01*
X0Y1507D02*
X7Y1507D01*
X1292Y1507D02*
X1299Y1507D01*
X0Y1506D02*
X7Y1506D01*
X1292Y1506D02*
X1299Y1506D01*
X0Y1505D02*
X7Y1505D01*
X1292Y1505D02*
X1299Y1505D01*
X0Y1504D02*
X7Y1504D01*
X1292Y1504D02*
X1299Y1504D01*
X0Y1503D02*
X7Y1503D01*
X1292Y1503D02*
X1299Y1503D01*
X0Y1502D02*
X7Y1502D01*
X1292Y1502D02*
X1299Y1502D01*
X0Y1501D02*
X7Y1501D01*
X1292Y1501D02*
X1299Y1501D01*
X0Y1500D02*
X7Y1500D01*
X1292Y1500D02*
X1299Y1500D01*
X0Y1499D02*
X7Y1499D01*
X1292Y1499D02*
X1299Y1499D01*
X0Y1498D02*
X7Y1498D01*
X1292Y1498D02*
X1299Y1498D01*
X0Y1497D02*
X7Y1497D01*
X1292Y1497D02*
X1299Y1497D01*
X0Y1496D02*
X7Y1496D01*
X1292Y1496D02*
X1299Y1496D01*
X0Y1495D02*
X7Y1495D01*
X1292Y1495D02*
X1299Y1495D01*
X0Y1494D02*
X7Y1494D01*
X1292Y1494D02*
X1299Y1494D01*
X0Y1493D02*
X7Y1493D01*
X1292Y1493D02*
X1299Y1493D01*
X0Y1492D02*
X7Y1492D01*
X1292Y1492D02*
X1299Y1492D01*
X0Y1491D02*
X7Y1491D01*
X1292Y1491D02*
X1299Y1491D01*
X0Y1490D02*
X7Y1490D01*
X1292Y1490D02*
X1299Y1490D01*
X0Y1489D02*
X7Y1489D01*
X1292Y1489D02*
X1299Y1489D01*
X0Y1488D02*
X7Y1488D01*
X1292Y1488D02*
X1299Y1488D01*
X0Y1487D02*
X7Y1487D01*
X1292Y1487D02*
X1299Y1487D01*
X0Y1486D02*
X7Y1486D01*
X1292Y1486D02*
X1299Y1486D01*
X0Y1485D02*
X7Y1485D01*
X1292Y1485D02*
X1299Y1485D01*
X0Y1484D02*
X7Y1484D01*
X1292Y1484D02*
X1299Y1484D01*
X0Y1483D02*
X7Y1483D01*
X1292Y1483D02*
X1299Y1483D01*
X0Y1482D02*
X7Y1482D01*
X1292Y1482D02*
X1299Y1482D01*
X0Y1481D02*
X7Y1481D01*
X1292Y1481D02*
X1299Y1481D01*
X0Y1480D02*
X7Y1480D01*
X1292Y1480D02*
X1299Y1480D01*
X0Y1479D02*
X7Y1479D01*
X1292Y1479D02*
X1299Y1479D01*
X0Y1478D02*
X7Y1478D01*
X1292Y1478D02*
X1299Y1478D01*
X0Y1477D02*
X7Y1477D01*
X1292Y1477D02*
X1299Y1477D01*
X0Y1476D02*
X7Y1476D01*
X1292Y1476D02*
X1299Y1476D01*
X0Y1475D02*
X7Y1475D01*
X1292Y1475D02*
X1299Y1475D01*
X0Y1474D02*
X7Y1474D01*
X1292Y1474D02*
X1299Y1474D01*
X0Y1473D02*
X7Y1473D01*
X1292Y1473D02*
X1299Y1473D01*
X0Y1472D02*
X7Y1472D01*
X1292Y1472D02*
X1299Y1472D01*
X0Y1471D02*
X7Y1471D01*
X1292Y1471D02*
X1299Y1471D01*
X0Y1470D02*
X7Y1470D01*
X1292Y1470D02*
X1299Y1470D01*
X0Y1469D02*
X7Y1469D01*
X1292Y1469D02*
X1299Y1469D01*
X0Y1468D02*
X7Y1468D01*
X1292Y1468D02*
X1299Y1468D01*
X0Y1467D02*
X7Y1467D01*
X1292Y1467D02*
X1299Y1467D01*
X0Y1466D02*
X7Y1466D01*
X1292Y1466D02*
X1299Y1466D01*
X0Y1465D02*
X7Y1465D01*
X1292Y1465D02*
X1299Y1465D01*
X0Y1464D02*
X7Y1464D01*
X1292Y1464D02*
X1299Y1464D01*
X0Y1463D02*
X7Y1463D01*
X1292Y1463D02*
X1299Y1463D01*
X0Y1462D02*
X7Y1462D01*
X1292Y1462D02*
X1299Y1462D01*
X0Y1461D02*
X7Y1461D01*
X1292Y1461D02*
X1299Y1461D01*
X0Y1460D02*
X7Y1460D01*
X1292Y1460D02*
X1299Y1460D01*
X0Y1459D02*
X7Y1459D01*
X1292Y1459D02*
X1299Y1459D01*
X0Y1458D02*
X7Y1458D01*
X1292Y1458D02*
X1299Y1458D01*
X0Y1457D02*
X7Y1457D01*
X1292Y1457D02*
X1299Y1457D01*
X0Y1456D02*
X7Y1456D01*
X1292Y1456D02*
X1299Y1456D01*
X0Y1455D02*
X7Y1455D01*
X1292Y1455D02*
X1299Y1455D01*
X0Y1454D02*
X7Y1454D01*
X1292Y1454D02*
X1299Y1454D01*
X0Y1453D02*
X7Y1453D01*
X1292Y1453D02*
X1299Y1453D01*
X0Y1452D02*
X7Y1452D01*
X1292Y1452D02*
X1299Y1452D01*
X0Y1451D02*
X7Y1451D01*
X1292Y1451D02*
X1299Y1451D01*
X0Y1450D02*
X7Y1450D01*
X1292Y1450D02*
X1299Y1450D01*
X0Y1449D02*
X7Y1449D01*
X1292Y1449D02*
X1299Y1449D01*
X0Y1448D02*
X7Y1448D01*
X1292Y1448D02*
X1299Y1448D01*
X0Y1447D02*
X7Y1447D01*
X1292Y1447D02*
X1299Y1447D01*
X0Y1446D02*
X7Y1446D01*
X1292Y1446D02*
X1299Y1446D01*
X0Y1445D02*
X7Y1445D01*
X1292Y1445D02*
X1299Y1445D01*
X0Y1444D02*
X7Y1444D01*
X1292Y1444D02*
X1299Y1444D01*
X0Y1443D02*
X7Y1443D01*
X1292Y1443D02*
X1299Y1443D01*
X0Y1442D02*
X7Y1442D01*
X1292Y1442D02*
X1299Y1442D01*
X0Y1441D02*
X7Y1441D01*
X1292Y1441D02*
X1299Y1441D01*
X0Y1440D02*
X7Y1440D01*
X1292Y1440D02*
X1299Y1440D01*
X0Y1439D02*
X7Y1439D01*
X1292Y1439D02*
X1299Y1439D01*
X0Y1438D02*
X7Y1438D01*
X1292Y1438D02*
X1299Y1438D01*
X0Y1437D02*
X7Y1437D01*
X1292Y1437D02*
X1299Y1437D01*
X0Y1436D02*
X7Y1436D01*
X1292Y1436D02*
X1299Y1436D01*
X0Y1435D02*
X7Y1435D01*
X1292Y1435D02*
X1299Y1435D01*
X0Y1434D02*
X7Y1434D01*
X1292Y1434D02*
X1299Y1434D01*
X0Y1433D02*
X7Y1433D01*
X1292Y1433D02*
X1299Y1433D01*
X0Y1432D02*
X7Y1432D01*
X1292Y1432D02*
X1299Y1432D01*
X0Y1431D02*
X7Y1431D01*
X1292Y1431D02*
X1299Y1431D01*
X0Y1430D02*
X7Y1430D01*
X1292Y1430D02*
X1299Y1430D01*
X0Y1429D02*
X7Y1429D01*
X1292Y1429D02*
X1299Y1429D01*
X0Y1428D02*
X7Y1428D01*
X1292Y1428D02*
X1299Y1428D01*
X0Y1427D02*
X7Y1427D01*
X1292Y1427D02*
X1299Y1427D01*
X0Y1426D02*
X7Y1426D01*
X1292Y1426D02*
X1299Y1426D01*
X0Y1425D02*
X7Y1425D01*
X1292Y1425D02*
X1299Y1425D01*
X0Y1424D02*
X7Y1424D01*
X1292Y1424D02*
X1299Y1424D01*
X0Y1423D02*
X7Y1423D01*
X1292Y1423D02*
X1299Y1423D01*
X0Y1422D02*
X7Y1422D01*
X1292Y1422D02*
X1299Y1422D01*
X0Y1421D02*
X7Y1421D01*
X1292Y1421D02*
X1299Y1421D01*
X0Y1420D02*
X7Y1420D01*
X1292Y1420D02*
X1299Y1420D01*
X0Y1419D02*
X7Y1419D01*
X1292Y1419D02*
X1299Y1419D01*
X0Y1418D02*
X7Y1418D01*
X1292Y1418D02*
X1299Y1418D01*
X0Y1417D02*
X7Y1417D01*
X1292Y1417D02*
X1299Y1417D01*
X0Y1416D02*
X7Y1416D01*
X1292Y1416D02*
X1299Y1416D01*
X0Y1415D02*
X7Y1415D01*
X1292Y1415D02*
X1299Y1415D01*
X0Y1414D02*
X7Y1414D01*
X1292Y1414D02*
X1299Y1414D01*
X0Y1413D02*
X7Y1413D01*
X1292Y1413D02*
X1299Y1413D01*
X0Y1412D02*
X7Y1412D01*
X1292Y1412D02*
X1299Y1412D01*
X0Y1411D02*
X7Y1411D01*
X1292Y1411D02*
X1299Y1411D01*
X0Y1410D02*
X7Y1410D01*
X1292Y1410D02*
X1299Y1410D01*
X0Y1409D02*
X7Y1409D01*
X1292Y1409D02*
X1299Y1409D01*
X0Y1408D02*
X7Y1408D01*
X1292Y1408D02*
X1299Y1408D01*
X0Y1407D02*
X7Y1407D01*
X1292Y1407D02*
X1299Y1407D01*
X0Y1406D02*
X7Y1406D01*
X1292Y1406D02*
X1299Y1406D01*
X0Y1405D02*
X7Y1405D01*
X1292Y1405D02*
X1299Y1405D01*
X0Y1404D02*
X7Y1404D01*
X1292Y1404D02*
X1299Y1404D01*
X0Y1403D02*
X7Y1403D01*
X1292Y1403D02*
X1299Y1403D01*
X0Y1402D02*
X7Y1402D01*
X1292Y1402D02*
X1299Y1402D01*
X0Y1401D02*
X7Y1401D01*
X1292Y1401D02*
X1299Y1401D01*
X0Y1400D02*
X7Y1400D01*
X1292Y1400D02*
X1299Y1400D01*
X0Y1399D02*
X7Y1399D01*
X1292Y1399D02*
X1299Y1399D01*
X0Y1398D02*
X7Y1398D01*
X1292Y1398D02*
X1299Y1398D01*
X0Y1397D02*
X7Y1397D01*
X1292Y1397D02*
X1299Y1397D01*
X0Y1396D02*
X7Y1396D01*
X1292Y1396D02*
X1299Y1396D01*
X0Y1395D02*
X7Y1395D01*
X1292Y1395D02*
X1299Y1395D01*
X0Y1394D02*
X7Y1394D01*
X1292Y1394D02*
X1299Y1394D01*
X0Y1393D02*
X7Y1393D01*
X1292Y1393D02*
X1299Y1393D01*
X0Y1392D02*
X7Y1392D01*
X1292Y1392D02*
X1299Y1392D01*
X0Y1391D02*
X7Y1391D01*
X1292Y1391D02*
X1299Y1391D01*
X0Y1390D02*
X7Y1390D01*
X1292Y1390D02*
X1299Y1390D01*
X0Y1389D02*
X7Y1389D01*
X1292Y1389D02*
X1299Y1389D01*
X0Y1388D02*
X7Y1388D01*
X1292Y1388D02*
X1299Y1388D01*
X0Y1387D02*
X7Y1387D01*
X1292Y1387D02*
X1299Y1387D01*
X0Y1386D02*
X7Y1386D01*
X1292Y1386D02*
X1299Y1386D01*
X0Y1385D02*
X7Y1385D01*
X1292Y1385D02*
X1299Y1385D01*
X0Y1384D02*
X7Y1384D01*
X1292Y1384D02*
X1299Y1384D01*
X0Y1383D02*
X7Y1383D01*
X1292Y1383D02*
X1299Y1383D01*
X0Y1382D02*
X7Y1382D01*
X1292Y1382D02*
X1299Y1382D01*
X0Y1381D02*
X7Y1381D01*
X1292Y1381D02*
X1299Y1381D01*
X0Y1380D02*
X7Y1380D01*
X1292Y1380D02*
X1299Y1380D01*
X0Y1379D02*
X7Y1379D01*
X1292Y1379D02*
X1299Y1379D01*
X0Y1378D02*
X7Y1378D01*
X1292Y1378D02*
X1299Y1378D01*
X0Y1377D02*
X7Y1377D01*
X1292Y1377D02*
X1299Y1377D01*
X0Y1376D02*
X7Y1376D01*
X1292Y1376D02*
X1299Y1376D01*
X0Y1375D02*
X7Y1375D01*
X1292Y1375D02*
X1299Y1375D01*
X0Y1374D02*
X7Y1374D01*
X1292Y1374D02*
X1299Y1374D01*
X0Y1373D02*
X7Y1373D01*
X1292Y1373D02*
X1299Y1373D01*
X0Y1372D02*
X7Y1372D01*
X1292Y1372D02*
X1299Y1372D01*
X0Y1371D02*
X7Y1371D01*
X1292Y1371D02*
X1299Y1371D01*
X0Y1370D02*
X7Y1370D01*
X1292Y1370D02*
X1299Y1370D01*
X0Y1369D02*
X7Y1369D01*
X1292Y1369D02*
X1299Y1369D01*
X0Y1368D02*
X7Y1368D01*
X1292Y1368D02*
X1299Y1368D01*
X0Y1367D02*
X7Y1367D01*
X1292Y1367D02*
X1299Y1367D01*
X0Y1366D02*
X7Y1366D01*
X1292Y1366D02*
X1299Y1366D01*
X0Y1365D02*
X7Y1365D01*
X1292Y1365D02*
X1299Y1365D01*
X0Y1364D02*
X7Y1364D01*
X1292Y1364D02*
X1299Y1364D01*
X0Y1363D02*
X7Y1363D01*
X1292Y1363D02*
X1299Y1363D01*
X0Y1362D02*
X7Y1362D01*
X1292Y1362D02*
X1299Y1362D01*
X0Y1361D02*
X7Y1361D01*
X1292Y1361D02*
X1299Y1361D01*
X0Y1360D02*
X7Y1360D01*
X1292Y1360D02*
X1299Y1360D01*
X0Y1359D02*
X7Y1359D01*
X1292Y1359D02*
X1299Y1359D01*
X0Y1358D02*
X7Y1358D01*
X1292Y1358D02*
X1299Y1358D01*
X0Y1357D02*
X7Y1357D01*
X1292Y1357D02*
X1299Y1357D01*
X0Y1356D02*
X7Y1356D01*
X1292Y1356D02*
X1299Y1356D01*
X0Y1355D02*
X7Y1355D01*
X1292Y1355D02*
X1299Y1355D01*
X0Y1354D02*
X7Y1354D01*
X1292Y1354D02*
X1299Y1354D01*
X0Y1353D02*
X7Y1353D01*
X1292Y1353D02*
X1299Y1353D01*
X0Y1352D02*
X7Y1352D01*
X1292Y1352D02*
X1299Y1352D01*
X0Y1351D02*
X7Y1351D01*
X1292Y1351D02*
X1299Y1351D01*
X0Y1350D02*
X7Y1350D01*
X1292Y1350D02*
X1299Y1350D01*
X0Y1349D02*
X7Y1349D01*
X1292Y1349D02*
X1299Y1349D01*
X0Y1348D02*
X7Y1348D01*
X1292Y1348D02*
X1299Y1348D01*
X0Y1347D02*
X7Y1347D01*
X1292Y1347D02*
X1299Y1347D01*
X0Y1346D02*
X7Y1346D01*
X1292Y1346D02*
X1299Y1346D01*
X0Y1345D02*
X7Y1345D01*
X1292Y1345D02*
X1299Y1345D01*
X0Y1344D02*
X7Y1344D01*
X1292Y1344D02*
X1299Y1344D01*
X0Y1343D02*
X7Y1343D01*
X1292Y1343D02*
X1299Y1343D01*
X0Y1342D02*
X7Y1342D01*
X1292Y1342D02*
X1299Y1342D01*
X0Y1341D02*
X7Y1341D01*
X1292Y1341D02*
X1299Y1341D01*
X0Y1340D02*
X7Y1340D01*
X1292Y1340D02*
X1299Y1340D01*
X0Y1339D02*
X7Y1339D01*
X1292Y1339D02*
X1299Y1339D01*
X0Y1338D02*
X7Y1338D01*
X1292Y1338D02*
X1299Y1338D01*
X0Y1337D02*
X7Y1337D01*
X1292Y1337D02*
X1299Y1337D01*
X0Y1336D02*
X7Y1336D01*
X1292Y1336D02*
X1299Y1336D01*
X0Y1335D02*
X7Y1335D01*
X1292Y1335D02*
X1299Y1335D01*
X0Y1334D02*
X7Y1334D01*
X1292Y1334D02*
X1299Y1334D01*
X0Y1333D02*
X7Y1333D01*
X1292Y1333D02*
X1299Y1333D01*
X0Y1332D02*
X7Y1332D01*
X1292Y1332D02*
X1299Y1332D01*
X0Y1331D02*
X7Y1331D01*
X1292Y1331D02*
X1299Y1331D01*
X0Y1330D02*
X7Y1330D01*
X1292Y1330D02*
X1299Y1330D01*
X0Y1329D02*
X7Y1329D01*
X1292Y1329D02*
X1299Y1329D01*
X0Y1328D02*
X7Y1328D01*
X1292Y1328D02*
X1299Y1328D01*
X0Y1327D02*
X7Y1327D01*
X1292Y1327D02*
X1299Y1327D01*
X0Y1326D02*
X7Y1326D01*
X1292Y1326D02*
X1299Y1326D01*
X0Y1325D02*
X7Y1325D01*
X1292Y1325D02*
X1299Y1325D01*
X0Y1324D02*
X7Y1324D01*
X1292Y1324D02*
X1299Y1324D01*
X0Y1323D02*
X7Y1323D01*
X1292Y1323D02*
X1299Y1323D01*
X0Y1322D02*
X7Y1322D01*
X1292Y1322D02*
X1299Y1322D01*
X0Y1321D02*
X7Y1321D01*
X1292Y1321D02*
X1299Y1321D01*
X0Y1320D02*
X7Y1320D01*
X1292Y1320D02*
X1299Y1320D01*
X0Y1319D02*
X7Y1319D01*
X1292Y1319D02*
X1299Y1319D01*
X0Y1318D02*
X7Y1318D01*
X1292Y1318D02*
X1299Y1318D01*
X0Y1317D02*
X7Y1317D01*
X1292Y1317D02*
X1299Y1317D01*
X0Y1316D02*
X7Y1316D01*
X1292Y1316D02*
X1299Y1316D01*
X0Y1315D02*
X7Y1315D01*
X1292Y1315D02*
X1299Y1315D01*
X0Y1314D02*
X7Y1314D01*
X1292Y1314D02*
X1299Y1314D01*
X0Y1313D02*
X7Y1313D01*
X1292Y1313D02*
X1299Y1313D01*
X0Y1312D02*
X7Y1312D01*
X1292Y1312D02*
X1299Y1312D01*
X0Y1311D02*
X7Y1311D01*
X1292Y1311D02*
X1299Y1311D01*
X0Y1310D02*
X7Y1310D01*
X1292Y1310D02*
X1299Y1310D01*
X0Y1309D02*
X7Y1309D01*
X1292Y1309D02*
X1299Y1309D01*
X0Y1308D02*
X7Y1308D01*
X1292Y1308D02*
X1299Y1308D01*
X0Y1307D02*
X7Y1307D01*
X1292Y1307D02*
X1299Y1307D01*
X0Y1306D02*
X7Y1306D01*
X1292Y1306D02*
X1299Y1306D01*
X0Y1305D02*
X7Y1305D01*
X1292Y1305D02*
X1299Y1305D01*
X0Y1304D02*
X7Y1304D01*
X1292Y1304D02*
X1299Y1304D01*
X0Y1303D02*
X7Y1303D01*
X1292Y1303D02*
X1299Y1303D01*
X0Y1302D02*
X7Y1302D01*
X1292Y1302D02*
X1299Y1302D01*
X0Y1301D02*
X7Y1301D01*
X1292Y1301D02*
X1299Y1301D01*
X0Y1300D02*
X7Y1300D01*
X1292Y1300D02*
X1299Y1300D01*
X0Y1299D02*
X7Y1299D01*
X1292Y1299D02*
X1299Y1299D01*
X0Y1298D02*
X7Y1298D01*
X1292Y1298D02*
X1299Y1298D01*
X0Y1297D02*
X7Y1297D01*
X1292Y1297D02*
X1299Y1297D01*
X0Y1296D02*
X7Y1296D01*
X1292Y1296D02*
X1299Y1296D01*
X0Y1295D02*
X7Y1295D01*
X1292Y1295D02*
X1299Y1295D01*
X0Y1294D02*
X7Y1294D01*
X1292Y1294D02*
X1299Y1294D01*
X0Y1293D02*
X7Y1293D01*
X1292Y1293D02*
X1299Y1293D01*
X0Y1292D02*
X7Y1292D01*
X1292Y1292D02*
X1299Y1292D01*
X0Y1291D02*
X7Y1291D01*
X1292Y1291D02*
X1299Y1291D01*
X0Y1290D02*
X7Y1290D01*
X1292Y1290D02*
X1299Y1290D01*
X0Y1289D02*
X7Y1289D01*
X1292Y1289D02*
X1299Y1289D01*
X0Y1288D02*
X7Y1288D01*
X1292Y1288D02*
X1299Y1288D01*
X0Y1287D02*
X7Y1287D01*
X1292Y1287D02*
X1299Y1287D01*
X0Y1286D02*
X7Y1286D01*
X1292Y1286D02*
X1299Y1286D01*
X0Y1285D02*
X7Y1285D01*
X1292Y1285D02*
X1299Y1285D01*
X0Y1284D02*
X7Y1284D01*
X1292Y1284D02*
X1299Y1284D01*
X0Y1283D02*
X7Y1283D01*
X1292Y1283D02*
X1299Y1283D01*
X0Y1282D02*
X7Y1282D01*
X1292Y1282D02*
X1299Y1282D01*
X0Y1281D02*
X7Y1281D01*
X1292Y1281D02*
X1299Y1281D01*
X0Y1280D02*
X7Y1280D01*
X1292Y1280D02*
X1299Y1280D01*
X0Y1279D02*
X7Y1279D01*
X1292Y1279D02*
X1299Y1279D01*
X0Y1278D02*
X7Y1278D01*
X1292Y1278D02*
X1299Y1278D01*
X0Y1277D02*
X7Y1277D01*
X1292Y1277D02*
X1299Y1277D01*
X0Y1276D02*
X7Y1276D01*
X1292Y1276D02*
X1299Y1276D01*
X0Y1275D02*
X7Y1275D01*
X1292Y1275D02*
X1299Y1275D01*
X0Y1274D02*
X7Y1274D01*
X1292Y1274D02*
X1299Y1274D01*
X0Y1273D02*
X7Y1273D01*
X1292Y1273D02*
X1299Y1273D01*
X0Y1272D02*
X7Y1272D01*
X1292Y1272D02*
X1299Y1272D01*
X0Y1271D02*
X7Y1271D01*
X1292Y1271D02*
X1299Y1271D01*
X0Y1270D02*
X7Y1270D01*
X1292Y1270D02*
X1299Y1270D01*
X0Y1269D02*
X7Y1269D01*
X1292Y1269D02*
X1299Y1269D01*
X0Y1268D02*
X7Y1268D01*
X1292Y1268D02*
X1299Y1268D01*
X0Y1267D02*
X7Y1267D01*
X1292Y1267D02*
X1299Y1267D01*
X0Y1266D02*
X7Y1266D01*
X1292Y1266D02*
X1299Y1266D01*
X0Y1265D02*
X7Y1265D01*
X1292Y1265D02*
X1299Y1265D01*
X0Y1264D02*
X7Y1264D01*
X1292Y1264D02*
X1299Y1264D01*
X0Y1263D02*
X7Y1263D01*
X1292Y1263D02*
X1299Y1263D01*
X0Y1262D02*
X7Y1262D01*
X1292Y1262D02*
X1299Y1262D01*
X0Y1261D02*
X7Y1261D01*
X1292Y1261D02*
X1299Y1261D01*
X0Y1260D02*
X7Y1260D01*
X1292Y1260D02*
X1299Y1260D01*
X0Y1259D02*
X7Y1259D01*
X1292Y1259D02*
X1299Y1259D01*
X0Y1258D02*
X7Y1258D01*
X1292Y1258D02*
X1299Y1258D01*
X0Y1257D02*
X7Y1257D01*
X1292Y1257D02*
X1299Y1257D01*
X0Y1256D02*
X7Y1256D01*
X1292Y1256D02*
X1299Y1256D01*
X0Y1255D02*
X7Y1255D01*
X1292Y1255D02*
X1299Y1255D01*
X0Y1254D02*
X7Y1254D01*
X1292Y1254D02*
X1299Y1254D01*
X0Y1253D02*
X7Y1253D01*
X1292Y1253D02*
X1299Y1253D01*
X0Y1252D02*
X7Y1252D01*
X1292Y1252D02*
X1299Y1252D01*
X0Y1251D02*
X7Y1251D01*
X1292Y1251D02*
X1299Y1251D01*
X0Y1250D02*
X7Y1250D01*
X1292Y1250D02*
X1299Y1250D01*
X0Y1249D02*
X7Y1249D01*
X1292Y1249D02*
X1299Y1249D01*
X0Y1248D02*
X7Y1248D01*
X1292Y1248D02*
X1299Y1248D01*
X0Y1247D02*
X7Y1247D01*
X1292Y1247D02*
X1299Y1247D01*
X0Y1246D02*
X7Y1246D01*
X1292Y1246D02*
X1299Y1246D01*
X0Y1245D02*
X7Y1245D01*
X1292Y1245D02*
X1299Y1245D01*
X0Y1244D02*
X7Y1244D01*
X1292Y1244D02*
X1299Y1244D01*
X0Y1243D02*
X7Y1243D01*
X1292Y1243D02*
X1299Y1243D01*
X0Y1242D02*
X7Y1242D01*
X1292Y1242D02*
X1299Y1242D01*
X0Y1241D02*
X7Y1241D01*
X1292Y1241D02*
X1299Y1241D01*
X0Y1240D02*
X7Y1240D01*
X1292Y1240D02*
X1299Y1240D01*
X0Y1239D02*
X7Y1239D01*
X1292Y1239D02*
X1299Y1239D01*
X0Y1238D02*
X7Y1238D01*
X1292Y1238D02*
X1299Y1238D01*
X0Y1237D02*
X7Y1237D01*
X1292Y1237D02*
X1299Y1237D01*
X0Y1236D02*
X7Y1236D01*
X1292Y1236D02*
X1299Y1236D01*
X0Y1235D02*
X7Y1235D01*
X1292Y1235D02*
X1299Y1235D01*
X0Y1234D02*
X7Y1234D01*
X1292Y1234D02*
X1299Y1234D01*
X0Y1233D02*
X7Y1233D01*
X1292Y1233D02*
X1299Y1233D01*
X0Y1232D02*
X7Y1232D01*
X1292Y1232D02*
X1299Y1232D01*
X0Y1231D02*
X7Y1231D01*
X1292Y1231D02*
X1299Y1231D01*
X0Y1230D02*
X7Y1230D01*
X1292Y1230D02*
X1299Y1230D01*
X0Y1229D02*
X7Y1229D01*
X1292Y1229D02*
X1299Y1229D01*
X0Y1228D02*
X7Y1228D01*
X1292Y1228D02*
X1299Y1228D01*
X0Y1227D02*
X7Y1227D01*
X1292Y1227D02*
X1299Y1227D01*
X0Y1226D02*
X7Y1226D01*
X1292Y1226D02*
X1299Y1226D01*
X0Y1225D02*
X7Y1225D01*
X1292Y1225D02*
X1299Y1225D01*
X0Y1224D02*
X7Y1224D01*
X1292Y1224D02*
X1299Y1224D01*
X0Y1223D02*
X7Y1223D01*
X1292Y1223D02*
X1299Y1223D01*
X0Y1222D02*
X7Y1222D01*
X1292Y1222D02*
X1299Y1222D01*
X0Y1221D02*
X7Y1221D01*
X1292Y1221D02*
X1299Y1221D01*
X0Y1220D02*
X7Y1220D01*
X1292Y1220D02*
X1299Y1220D01*
X0Y1219D02*
X7Y1219D01*
X1292Y1219D02*
X1299Y1219D01*
X0Y1218D02*
X7Y1218D01*
X1292Y1218D02*
X1299Y1218D01*
X0Y1217D02*
X7Y1217D01*
X1292Y1217D02*
X1299Y1217D01*
X0Y1216D02*
X7Y1216D01*
X1292Y1216D02*
X1299Y1216D01*
X0Y1215D02*
X7Y1215D01*
X1292Y1215D02*
X1299Y1215D01*
X0Y1214D02*
X7Y1214D01*
X1292Y1214D02*
X1299Y1214D01*
X0Y1213D02*
X7Y1213D01*
X1292Y1213D02*
X1299Y1213D01*
X0Y1212D02*
X7Y1212D01*
X1292Y1212D02*
X1299Y1212D01*
X0Y1211D02*
X7Y1211D01*
X1292Y1211D02*
X1299Y1211D01*
X0Y1210D02*
X7Y1210D01*
X1292Y1210D02*
X1299Y1210D01*
X0Y1209D02*
X7Y1209D01*
X1292Y1209D02*
X1299Y1209D01*
X0Y1208D02*
X7Y1208D01*
X1292Y1208D02*
X1299Y1208D01*
X0Y1207D02*
X7Y1207D01*
X1292Y1207D02*
X1299Y1207D01*
X0Y1206D02*
X7Y1206D01*
X1292Y1206D02*
X1299Y1206D01*
X0Y1205D02*
X7Y1205D01*
X1292Y1205D02*
X1299Y1205D01*
X0Y1204D02*
X7Y1204D01*
X1292Y1204D02*
X1299Y1204D01*
X0Y1203D02*
X7Y1203D01*
X1292Y1203D02*
X1299Y1203D01*
X0Y1202D02*
X7Y1202D01*
X1292Y1202D02*
X1299Y1202D01*
X0Y1201D02*
X7Y1201D01*
X1292Y1201D02*
X1299Y1201D01*
X0Y1200D02*
X7Y1200D01*
X1292Y1200D02*
X1299Y1200D01*
X0Y1199D02*
X7Y1199D01*
X1292Y1199D02*
X1299Y1199D01*
X0Y1198D02*
X7Y1198D01*
X1292Y1198D02*
X1299Y1198D01*
X0Y1197D02*
X7Y1197D01*
X1292Y1197D02*
X1299Y1197D01*
X0Y1196D02*
X7Y1196D01*
X1292Y1196D02*
X1299Y1196D01*
X0Y1195D02*
X7Y1195D01*
X1292Y1195D02*
X1299Y1195D01*
X0Y1194D02*
X7Y1194D01*
X1292Y1194D02*
X1299Y1194D01*
X0Y1193D02*
X7Y1193D01*
X1292Y1193D02*
X1299Y1193D01*
X0Y1192D02*
X7Y1192D01*
X1292Y1192D02*
X1299Y1192D01*
X0Y1191D02*
X7Y1191D01*
X1292Y1191D02*
X1299Y1191D01*
X0Y1190D02*
X7Y1190D01*
X1292Y1190D02*
X1299Y1190D01*
X0Y1189D02*
X7Y1189D01*
X1292Y1189D02*
X1299Y1189D01*
X0Y1188D02*
X7Y1188D01*
X1292Y1188D02*
X1299Y1188D01*
X0Y1187D02*
X7Y1187D01*
X1292Y1187D02*
X1299Y1187D01*
X0Y1186D02*
X7Y1186D01*
X1292Y1186D02*
X1299Y1186D01*
X0Y1185D02*
X7Y1185D01*
X1292Y1185D02*
X1299Y1185D01*
X0Y1184D02*
X7Y1184D01*
X1292Y1184D02*
X1299Y1184D01*
X0Y1183D02*
X7Y1183D01*
X1292Y1183D02*
X1299Y1183D01*
X0Y1182D02*
X7Y1182D01*
X1292Y1182D02*
X1299Y1182D01*
X0Y1181D02*
X7Y1181D01*
X1292Y1181D02*
X1299Y1181D01*
X0Y1180D02*
X7Y1180D01*
X1292Y1180D02*
X1299Y1180D01*
X0Y1179D02*
X7Y1179D01*
X1292Y1179D02*
X1299Y1179D01*
X0Y1178D02*
X7Y1178D01*
X1292Y1178D02*
X1299Y1178D01*
X0Y1177D02*
X7Y1177D01*
X1292Y1177D02*
X1299Y1177D01*
X0Y1176D02*
X7Y1176D01*
X1292Y1176D02*
X1299Y1176D01*
X0Y1175D02*
X7Y1175D01*
X1292Y1175D02*
X1299Y1175D01*
X0Y1174D02*
X7Y1174D01*
X1292Y1174D02*
X1299Y1174D01*
X0Y1173D02*
X7Y1173D01*
X1292Y1173D02*
X1299Y1173D01*
X0Y1172D02*
X7Y1172D01*
X1292Y1172D02*
X1299Y1172D01*
X0Y1171D02*
X7Y1171D01*
X1292Y1171D02*
X1299Y1171D01*
X0Y1170D02*
X7Y1170D01*
X1292Y1170D02*
X1299Y1170D01*
X0Y1169D02*
X7Y1169D01*
X1292Y1169D02*
X1299Y1169D01*
X0Y1168D02*
X7Y1168D01*
X1292Y1168D02*
X1299Y1168D01*
X0Y1167D02*
X7Y1167D01*
X1292Y1167D02*
X1299Y1167D01*
X0Y1166D02*
X7Y1166D01*
X1292Y1166D02*
X1299Y1166D01*
X0Y1165D02*
X7Y1165D01*
X1292Y1165D02*
X1299Y1165D01*
X0Y1164D02*
X7Y1164D01*
X1292Y1164D02*
X1299Y1164D01*
X0Y1163D02*
X7Y1163D01*
X1292Y1163D02*
X1299Y1163D01*
X0Y1162D02*
X7Y1162D01*
X40Y1162D02*
X49Y1162D01*
X1292Y1162D02*
X1299Y1162D01*
X0Y1161D02*
X7Y1161D01*
X39Y1161D02*
X51Y1161D01*
X1292Y1161D02*
X1299Y1161D01*
X0Y1160D02*
X7Y1160D01*
X39Y1160D02*
X51Y1160D01*
X1292Y1160D02*
X1299Y1160D01*
X0Y1159D02*
X7Y1159D01*
X39Y1159D02*
X51Y1159D01*
X1292Y1159D02*
X1299Y1159D01*
X0Y1158D02*
X7Y1158D01*
X39Y1158D02*
X51Y1158D01*
X1292Y1158D02*
X1299Y1158D01*
X0Y1157D02*
X7Y1157D01*
X39Y1157D02*
X51Y1157D01*
X1292Y1157D02*
X1299Y1157D01*
X0Y1156D02*
X7Y1156D01*
X39Y1156D02*
X50Y1156D01*
X1292Y1156D02*
X1299Y1156D01*
X0Y1155D02*
X7Y1155D01*
X39Y1155D02*
X46Y1155D01*
X1292Y1155D02*
X1299Y1155D01*
X0Y1154D02*
X7Y1154D01*
X39Y1154D02*
X46Y1154D01*
X1292Y1154D02*
X1299Y1154D01*
X0Y1153D02*
X7Y1153D01*
X39Y1153D02*
X46Y1153D01*
X1292Y1153D02*
X1299Y1153D01*
X0Y1152D02*
X7Y1152D01*
X39Y1152D02*
X46Y1152D01*
X1292Y1152D02*
X1299Y1152D01*
X0Y1151D02*
X7Y1151D01*
X39Y1151D02*
X46Y1151D01*
X1292Y1151D02*
X1299Y1151D01*
X0Y1150D02*
X7Y1150D01*
X39Y1150D02*
X46Y1150D01*
X1292Y1150D02*
X1299Y1150D01*
X0Y1149D02*
X7Y1149D01*
X39Y1149D02*
X46Y1149D01*
X1292Y1149D02*
X1299Y1149D01*
X0Y1148D02*
X7Y1148D01*
X39Y1148D02*
X91Y1148D01*
X1292Y1148D02*
X1299Y1148D01*
X0Y1147D02*
X7Y1147D01*
X39Y1147D02*
X92Y1147D01*
X1292Y1147D02*
X1299Y1147D01*
X0Y1146D02*
X7Y1146D01*
X39Y1146D02*
X92Y1146D01*
X1292Y1146D02*
X1299Y1146D01*
X0Y1145D02*
X7Y1145D01*
X39Y1145D02*
X93Y1145D01*
X1292Y1145D02*
X1299Y1145D01*
X0Y1144D02*
X7Y1144D01*
X39Y1144D02*
X92Y1144D01*
X1292Y1144D02*
X1299Y1144D01*
X0Y1143D02*
X7Y1143D01*
X39Y1143D02*
X92Y1143D01*
X1292Y1143D02*
X1299Y1143D01*
X0Y1142D02*
X7Y1142D01*
X39Y1142D02*
X91Y1142D01*
X1292Y1142D02*
X1299Y1142D01*
X0Y1141D02*
X7Y1141D01*
X39Y1141D02*
X46Y1141D01*
X1292Y1141D02*
X1299Y1141D01*
X0Y1140D02*
X7Y1140D01*
X39Y1140D02*
X46Y1140D01*
X1292Y1140D02*
X1299Y1140D01*
X0Y1139D02*
X7Y1139D01*
X39Y1139D02*
X46Y1139D01*
X1292Y1139D02*
X1299Y1139D01*
X0Y1138D02*
X7Y1138D01*
X39Y1138D02*
X46Y1138D01*
X1292Y1138D02*
X1299Y1138D01*
X0Y1137D02*
X7Y1137D01*
X39Y1137D02*
X46Y1137D01*
X1292Y1137D02*
X1299Y1137D01*
X0Y1136D02*
X7Y1136D01*
X39Y1136D02*
X46Y1136D01*
X1292Y1136D02*
X1299Y1136D01*
X0Y1135D02*
X7Y1135D01*
X39Y1135D02*
X46Y1135D01*
X1292Y1135D02*
X1299Y1135D01*
X0Y1134D02*
X7Y1134D01*
X39Y1134D02*
X50Y1134D01*
X1292Y1134D02*
X1299Y1134D01*
X0Y1133D02*
X7Y1133D01*
X39Y1133D02*
X51Y1133D01*
X1292Y1133D02*
X1299Y1133D01*
X0Y1132D02*
X7Y1132D01*
X39Y1132D02*
X51Y1132D01*
X1292Y1132D02*
X1299Y1132D01*
X0Y1131D02*
X7Y1131D01*
X39Y1131D02*
X51Y1131D01*
X1292Y1131D02*
X1299Y1131D01*
X0Y1130D02*
X7Y1130D01*
X39Y1130D02*
X51Y1130D01*
X1292Y1130D02*
X1299Y1130D01*
X0Y1129D02*
X7Y1129D01*
X39Y1129D02*
X50Y1129D01*
X1292Y1129D02*
X1299Y1129D01*
X0Y1128D02*
X7Y1128D01*
X40Y1128D02*
X49Y1128D01*
X1292Y1128D02*
X1299Y1128D01*
X0Y1127D02*
X7Y1127D01*
X1292Y1127D02*
X1299Y1127D01*
X0Y1126D02*
X7Y1126D01*
X1292Y1126D02*
X1299Y1126D01*
X0Y1125D02*
X7Y1125D01*
X1292Y1125D02*
X1299Y1125D01*
X0Y1124D02*
X7Y1124D01*
X1292Y1124D02*
X1299Y1124D01*
X0Y1123D02*
X7Y1123D01*
X1292Y1123D02*
X1299Y1123D01*
X0Y1122D02*
X7Y1122D01*
X1292Y1122D02*
X1299Y1122D01*
X0Y1121D02*
X7Y1121D01*
X1292Y1121D02*
X1299Y1121D01*
X0Y1120D02*
X7Y1120D01*
X1292Y1120D02*
X1299Y1120D01*
X0Y1119D02*
X7Y1119D01*
X1292Y1119D02*
X1299Y1119D01*
X0Y1118D02*
X7Y1118D01*
X1292Y1118D02*
X1299Y1118D01*
X0Y1117D02*
X7Y1117D01*
X1292Y1117D02*
X1299Y1117D01*
X0Y1116D02*
X7Y1116D01*
X1292Y1116D02*
X1299Y1116D01*
X0Y1115D02*
X7Y1115D01*
X1292Y1115D02*
X1299Y1115D01*
X0Y1114D02*
X7Y1114D01*
X1292Y1114D02*
X1299Y1114D01*
X0Y1113D02*
X7Y1113D01*
X1292Y1113D02*
X1299Y1113D01*
X0Y1112D02*
X7Y1112D01*
X42Y1112D02*
X92Y1112D01*
X1292Y1112D02*
X1299Y1112D01*
X0Y1111D02*
X7Y1111D01*
X41Y1111D02*
X93Y1111D01*
X1292Y1111D02*
X1299Y1111D01*
X0Y1110D02*
X7Y1110D01*
X40Y1110D02*
X93Y1110D01*
X1292Y1110D02*
X1299Y1110D01*
X0Y1109D02*
X7Y1109D01*
X40Y1109D02*
X93Y1109D01*
X1292Y1109D02*
X1299Y1109D01*
X0Y1108D02*
X7Y1108D01*
X40Y1108D02*
X93Y1108D01*
X1292Y1108D02*
X1299Y1108D01*
X0Y1107D02*
X7Y1107D01*
X40Y1107D02*
X93Y1107D01*
X1292Y1107D02*
X1299Y1107D01*
X0Y1106D02*
X7Y1106D01*
X41Y1106D02*
X93Y1106D01*
X1292Y1106D02*
X1299Y1106D01*
X0Y1105D02*
X7Y1105D01*
X80Y1105D02*
X93Y1105D01*
X1292Y1105D02*
X1299Y1105D01*
X0Y1104D02*
X7Y1104D01*
X79Y1104D02*
X93Y1104D01*
X1292Y1104D02*
X1299Y1104D01*
X0Y1103D02*
X7Y1103D01*
X76Y1103D02*
X93Y1103D01*
X1292Y1103D02*
X1299Y1103D01*
X0Y1102D02*
X7Y1102D01*
X74Y1102D02*
X91Y1102D01*
X1292Y1102D02*
X1299Y1102D01*
X0Y1101D02*
X7Y1101D01*
X72Y1101D02*
X88Y1101D01*
X1292Y1101D02*
X1299Y1101D01*
X0Y1100D02*
X7Y1100D01*
X70Y1100D02*
X86Y1100D01*
X1292Y1100D02*
X1299Y1100D01*
X0Y1099D02*
X7Y1099D01*
X67Y1099D02*
X84Y1099D01*
X1292Y1099D02*
X1299Y1099D01*
X0Y1098D02*
X7Y1098D01*
X65Y1098D02*
X82Y1098D01*
X1292Y1098D02*
X1299Y1098D01*
X0Y1097D02*
X7Y1097D01*
X63Y1097D02*
X79Y1097D01*
X1292Y1097D02*
X1299Y1097D01*
X0Y1096D02*
X7Y1096D01*
X60Y1096D02*
X77Y1096D01*
X1292Y1096D02*
X1299Y1096D01*
X0Y1095D02*
X7Y1095D01*
X58Y1095D02*
X75Y1095D01*
X1292Y1095D02*
X1299Y1095D01*
X0Y1094D02*
X7Y1094D01*
X56Y1094D02*
X72Y1094D01*
X1292Y1094D02*
X1299Y1094D01*
X0Y1093D02*
X7Y1093D01*
X54Y1093D02*
X70Y1093D01*
X1292Y1093D02*
X1299Y1093D01*
X0Y1092D02*
X7Y1092D01*
X51Y1092D02*
X68Y1092D01*
X1292Y1092D02*
X1299Y1092D01*
X0Y1091D02*
X7Y1091D01*
X49Y1091D02*
X66Y1091D01*
X1292Y1091D02*
X1299Y1091D01*
X0Y1090D02*
X7Y1090D01*
X47Y1090D02*
X63Y1090D01*
X1292Y1090D02*
X1299Y1090D01*
X0Y1089D02*
X7Y1089D01*
X44Y1089D02*
X61Y1089D01*
X1292Y1089D02*
X1299Y1089D01*
X0Y1088D02*
X7Y1088D01*
X42Y1088D02*
X59Y1088D01*
X1292Y1088D02*
X1299Y1088D01*
X0Y1087D02*
X7Y1087D01*
X40Y1087D02*
X57Y1087D01*
X1292Y1087D02*
X1299Y1087D01*
X0Y1086D02*
X7Y1086D01*
X39Y1086D02*
X54Y1086D01*
X1292Y1086D02*
X1299Y1086D01*
X0Y1085D02*
X7Y1085D01*
X39Y1085D02*
X52Y1085D01*
X1292Y1085D02*
X1299Y1085D01*
X0Y1084D02*
X7Y1084D01*
X39Y1084D02*
X91Y1084D01*
X1292Y1084D02*
X1299Y1084D01*
X0Y1083D02*
X7Y1083D01*
X39Y1083D02*
X92Y1083D01*
X1292Y1083D02*
X1299Y1083D01*
X0Y1082D02*
X7Y1082D01*
X39Y1082D02*
X92Y1082D01*
X1292Y1082D02*
X1299Y1082D01*
X0Y1081D02*
X7Y1081D01*
X39Y1081D02*
X93Y1081D01*
X1292Y1081D02*
X1299Y1081D01*
X0Y1080D02*
X7Y1080D01*
X39Y1080D02*
X92Y1080D01*
X1292Y1080D02*
X1299Y1080D01*
X0Y1079D02*
X7Y1079D01*
X39Y1079D02*
X92Y1079D01*
X1292Y1079D02*
X1299Y1079D01*
X0Y1078D02*
X7Y1078D01*
X40Y1078D02*
X91Y1078D01*
X1292Y1078D02*
X1299Y1078D01*
X0Y1077D02*
X7Y1077D01*
X1292Y1077D02*
X1299Y1077D01*
X0Y1076D02*
X7Y1076D01*
X1292Y1076D02*
X1299Y1076D01*
X0Y1075D02*
X7Y1075D01*
X1292Y1075D02*
X1299Y1075D01*
X0Y1074D02*
X7Y1074D01*
X1292Y1074D02*
X1299Y1074D01*
X0Y1073D02*
X7Y1073D01*
X1292Y1073D02*
X1299Y1073D01*
X0Y1072D02*
X7Y1072D01*
X1292Y1072D02*
X1299Y1072D01*
X0Y1071D02*
X7Y1071D01*
X1292Y1071D02*
X1299Y1071D01*
X0Y1070D02*
X7Y1070D01*
X1292Y1070D02*
X1299Y1070D01*
X0Y1069D02*
X7Y1069D01*
X1292Y1069D02*
X1299Y1069D01*
X0Y1068D02*
X7Y1068D01*
X1292Y1068D02*
X1299Y1068D01*
X0Y1067D02*
X7Y1067D01*
X1292Y1067D02*
X1299Y1067D01*
X0Y1066D02*
X7Y1066D01*
X1292Y1066D02*
X1299Y1066D01*
X0Y1065D02*
X7Y1065D01*
X1292Y1065D02*
X1299Y1065D01*
X0Y1064D02*
X7Y1064D01*
X1292Y1064D02*
X1299Y1064D01*
X0Y1063D02*
X7Y1063D01*
X1292Y1063D02*
X1299Y1063D01*
X0Y1062D02*
X7Y1062D01*
X1292Y1062D02*
X1299Y1062D01*
X0Y1061D02*
X7Y1061D01*
X87Y1061D02*
X91Y1061D01*
X1292Y1061D02*
X1299Y1061D01*
X0Y1060D02*
X7Y1060D01*
X83Y1060D02*
X92Y1060D01*
X1292Y1060D02*
X1299Y1060D01*
X0Y1059D02*
X7Y1059D01*
X80Y1059D02*
X93Y1059D01*
X1292Y1059D02*
X1299Y1059D01*
X0Y1058D02*
X7Y1058D01*
X76Y1058D02*
X93Y1058D01*
X1292Y1058D02*
X1299Y1058D01*
X0Y1057D02*
X7Y1057D01*
X73Y1057D02*
X92Y1057D01*
X1292Y1057D02*
X1299Y1057D01*
X0Y1056D02*
X7Y1056D01*
X69Y1056D02*
X92Y1056D01*
X1292Y1056D02*
X1299Y1056D01*
X0Y1055D02*
X7Y1055D01*
X66Y1055D02*
X90Y1055D01*
X1292Y1055D02*
X1299Y1055D01*
X0Y1054D02*
X7Y1054D01*
X63Y1054D02*
X86Y1054D01*
X1292Y1054D02*
X1299Y1054D01*
X0Y1053D02*
X7Y1053D01*
X59Y1053D02*
X83Y1053D01*
X1292Y1053D02*
X1299Y1053D01*
X0Y1052D02*
X7Y1052D01*
X56Y1052D02*
X81Y1052D01*
X1292Y1052D02*
X1299Y1052D01*
X0Y1051D02*
X7Y1051D01*
X52Y1051D02*
X81Y1051D01*
X1292Y1051D02*
X1299Y1051D01*
X0Y1050D02*
X7Y1050D01*
X49Y1050D02*
X73Y1050D01*
X75Y1050D02*
X81Y1050D01*
X1292Y1050D02*
X1299Y1050D01*
X0Y1049D02*
X7Y1049D01*
X45Y1049D02*
X69Y1049D01*
X75Y1049D02*
X81Y1049D01*
X1292Y1049D02*
X1299Y1049D01*
X0Y1048D02*
X7Y1048D01*
X42Y1048D02*
X66Y1048D01*
X75Y1048D02*
X81Y1048D01*
X1292Y1048D02*
X1299Y1048D01*
X0Y1047D02*
X7Y1047D01*
X40Y1047D02*
X63Y1047D01*
X75Y1047D02*
X81Y1047D01*
X1292Y1047D02*
X1299Y1047D01*
X0Y1046D02*
X7Y1046D01*
X40Y1046D02*
X59Y1046D01*
X75Y1046D02*
X81Y1046D01*
X1292Y1046D02*
X1299Y1046D01*
X0Y1045D02*
X7Y1045D01*
X40Y1045D02*
X56Y1045D01*
X75Y1045D02*
X81Y1045D01*
X1292Y1045D02*
X1299Y1045D01*
X0Y1044D02*
X7Y1044D01*
X40Y1044D02*
X57Y1044D01*
X75Y1044D02*
X81Y1044D01*
X1292Y1044D02*
X1299Y1044D01*
X0Y1043D02*
X7Y1043D01*
X40Y1043D02*
X60Y1043D01*
X75Y1043D02*
X81Y1043D01*
X1292Y1043D02*
X1299Y1043D01*
X0Y1042D02*
X7Y1042D01*
X41Y1042D02*
X63Y1042D01*
X75Y1042D02*
X81Y1042D01*
X1292Y1042D02*
X1299Y1042D01*
X0Y1041D02*
X7Y1041D01*
X43Y1041D02*
X67Y1041D01*
X75Y1041D02*
X81Y1041D01*
X1292Y1041D02*
X1299Y1041D01*
X0Y1040D02*
X7Y1040D01*
X46Y1040D02*
X70Y1040D01*
X75Y1040D02*
X81Y1040D01*
X1292Y1040D02*
X1299Y1040D01*
X0Y1039D02*
X7Y1039D01*
X50Y1039D02*
X81Y1039D01*
X1292Y1039D02*
X1299Y1039D01*
X0Y1038D02*
X7Y1038D01*
X53Y1038D02*
X81Y1038D01*
X1292Y1038D02*
X1299Y1038D01*
X0Y1037D02*
X7Y1037D01*
X56Y1037D02*
X81Y1037D01*
X1292Y1037D02*
X1299Y1037D01*
X0Y1036D02*
X7Y1036D01*
X60Y1036D02*
X84Y1036D01*
X1292Y1036D02*
X1299Y1036D01*
X0Y1035D02*
X7Y1035D01*
X63Y1035D02*
X87Y1035D01*
X1292Y1035D02*
X1299Y1035D01*
X0Y1034D02*
X7Y1034D01*
X67Y1034D02*
X91Y1034D01*
X1292Y1034D02*
X1299Y1034D01*
X0Y1033D02*
X7Y1033D01*
X70Y1033D02*
X92Y1033D01*
X1292Y1033D02*
X1299Y1033D01*
X0Y1032D02*
X7Y1032D01*
X74Y1032D02*
X92Y1032D01*
X1292Y1032D02*
X1299Y1032D01*
X0Y1031D02*
X7Y1031D01*
X77Y1031D02*
X93Y1031D01*
X1292Y1031D02*
X1299Y1031D01*
X0Y1030D02*
X7Y1030D01*
X80Y1030D02*
X93Y1030D01*
X1292Y1030D02*
X1299Y1030D01*
X0Y1029D02*
X7Y1029D01*
X84Y1029D02*
X92Y1029D01*
X1292Y1029D02*
X1299Y1029D01*
X0Y1028D02*
X7Y1028D01*
X87Y1028D02*
X91Y1028D01*
X1292Y1028D02*
X1299Y1028D01*
X0Y1027D02*
X7Y1027D01*
X1292Y1027D02*
X1299Y1027D01*
X0Y1026D02*
X7Y1026D01*
X1292Y1026D02*
X1299Y1026D01*
X0Y1025D02*
X7Y1025D01*
X1292Y1025D02*
X1299Y1025D01*
X0Y1024D02*
X7Y1024D01*
X1292Y1024D02*
X1299Y1024D01*
X0Y1023D02*
X7Y1023D01*
X1292Y1023D02*
X1299Y1023D01*
X0Y1022D02*
X7Y1022D01*
X1292Y1022D02*
X1299Y1022D01*
X0Y1021D02*
X7Y1021D01*
X1292Y1021D02*
X1299Y1021D01*
X0Y1020D02*
X7Y1020D01*
X1292Y1020D02*
X1299Y1020D01*
X0Y1019D02*
X7Y1019D01*
X1292Y1019D02*
X1299Y1019D01*
X0Y1018D02*
X7Y1018D01*
X1292Y1018D02*
X1299Y1018D01*
X0Y1017D02*
X7Y1017D01*
X1292Y1017D02*
X1299Y1017D01*
X0Y1016D02*
X7Y1016D01*
X1292Y1016D02*
X1299Y1016D01*
X0Y1015D02*
X7Y1015D01*
X1292Y1015D02*
X1299Y1015D01*
X0Y1014D02*
X7Y1014D01*
X1292Y1014D02*
X1299Y1014D01*
X0Y1013D02*
X7Y1013D01*
X1292Y1013D02*
X1299Y1013D01*
X0Y1012D02*
X7Y1012D01*
X1292Y1012D02*
X1299Y1012D01*
X0Y1011D02*
X7Y1011D01*
X1292Y1011D02*
X1299Y1011D01*
X0Y1010D02*
X7Y1010D01*
X1292Y1010D02*
X1299Y1010D01*
X0Y1009D02*
X7Y1009D01*
X1292Y1009D02*
X1299Y1009D01*
X0Y1008D02*
X7Y1008D01*
X1292Y1008D02*
X1299Y1008D01*
X0Y1007D02*
X7Y1007D01*
X1292Y1007D02*
X1299Y1007D01*
X0Y1006D02*
X7Y1006D01*
X1292Y1006D02*
X1299Y1006D01*
X0Y1005D02*
X7Y1005D01*
X1292Y1005D02*
X1299Y1005D01*
X0Y1004D02*
X7Y1004D01*
X1292Y1004D02*
X1299Y1004D01*
X0Y1003D02*
X7Y1003D01*
X1292Y1003D02*
X1299Y1003D01*
X0Y1002D02*
X7Y1002D01*
X1292Y1002D02*
X1299Y1002D01*
X0Y1001D02*
X7Y1001D01*
X1292Y1001D02*
X1299Y1001D01*
X0Y1000D02*
X7Y1000D01*
X1292Y1000D02*
X1299Y1000D01*
X0Y999D02*
X7Y999D01*
X1292Y999D02*
X1299Y999D01*
X0Y998D02*
X7Y998D01*
X1292Y998D02*
X1299Y998D01*
X0Y997D02*
X7Y997D01*
X1292Y997D02*
X1299Y997D01*
X0Y996D02*
X7Y996D01*
X1292Y996D02*
X1299Y996D01*
X0Y995D02*
X7Y995D01*
X1292Y995D02*
X1299Y995D01*
X0Y994D02*
X7Y994D01*
X1292Y994D02*
X1299Y994D01*
X0Y993D02*
X7Y993D01*
X1292Y993D02*
X1299Y993D01*
X0Y992D02*
X7Y992D01*
X1292Y992D02*
X1299Y992D01*
X0Y991D02*
X7Y991D01*
X1292Y991D02*
X1299Y991D01*
X0Y990D02*
X7Y990D01*
X1292Y990D02*
X1299Y990D01*
X0Y989D02*
X7Y989D01*
X1292Y989D02*
X1299Y989D01*
X0Y988D02*
X7Y988D01*
X1292Y988D02*
X1299Y988D01*
X0Y987D02*
X7Y987D01*
X1292Y987D02*
X1299Y987D01*
X0Y986D02*
X7Y986D01*
X1292Y986D02*
X1299Y986D01*
X0Y985D02*
X7Y985D01*
X1292Y985D02*
X1299Y985D01*
X0Y984D02*
X7Y984D01*
X1292Y984D02*
X1299Y984D01*
X0Y983D02*
X7Y983D01*
X1292Y983D02*
X1299Y983D01*
X0Y982D02*
X7Y982D01*
X1292Y982D02*
X1299Y982D01*
X0Y981D02*
X7Y981D01*
X1292Y981D02*
X1299Y981D01*
X0Y980D02*
X7Y980D01*
X1292Y980D02*
X1299Y980D01*
X0Y979D02*
X7Y979D01*
X1292Y979D02*
X1299Y979D01*
X0Y978D02*
X7Y978D01*
X1292Y978D02*
X1299Y978D01*
X0Y977D02*
X7Y977D01*
X1292Y977D02*
X1299Y977D01*
X0Y976D02*
X7Y976D01*
X1292Y976D02*
X1299Y976D01*
X0Y975D02*
X7Y975D01*
X1292Y975D02*
X1299Y975D01*
X0Y974D02*
X7Y974D01*
X1292Y974D02*
X1299Y974D01*
X0Y973D02*
X7Y973D01*
X1292Y973D02*
X1299Y973D01*
X0Y972D02*
X7Y972D01*
X1292Y972D02*
X1299Y972D01*
X0Y971D02*
X7Y971D01*
X1292Y971D02*
X1299Y971D01*
X0Y970D02*
X7Y970D01*
X1292Y970D02*
X1299Y970D01*
X0Y969D02*
X7Y969D01*
X1292Y969D02*
X1299Y969D01*
X0Y968D02*
X7Y968D01*
X1292Y968D02*
X1299Y968D01*
X0Y967D02*
X7Y967D01*
X1292Y967D02*
X1299Y967D01*
X0Y966D02*
X7Y966D01*
X1292Y966D02*
X1299Y966D01*
X0Y965D02*
X7Y965D01*
X1292Y965D02*
X1299Y965D01*
X0Y964D02*
X7Y964D01*
X1292Y964D02*
X1299Y964D01*
X0Y963D02*
X7Y963D01*
X1292Y963D02*
X1299Y963D01*
X0Y962D02*
X7Y962D01*
X1292Y962D02*
X1299Y962D01*
X0Y961D02*
X7Y961D01*
X1292Y961D02*
X1299Y961D01*
X0Y960D02*
X7Y960D01*
X1292Y960D02*
X1299Y960D01*
X0Y959D02*
X7Y959D01*
X1292Y959D02*
X1299Y959D01*
X0Y958D02*
X7Y958D01*
X1292Y958D02*
X1299Y958D01*
X0Y957D02*
X7Y957D01*
X1292Y957D02*
X1299Y957D01*
X0Y956D02*
X7Y956D01*
X1292Y956D02*
X1299Y956D01*
X0Y955D02*
X7Y955D01*
X1292Y955D02*
X1299Y955D01*
X0Y954D02*
X7Y954D01*
X1292Y954D02*
X1299Y954D01*
X0Y953D02*
X7Y953D01*
X1292Y953D02*
X1299Y953D01*
X0Y952D02*
X7Y952D01*
X1292Y952D02*
X1299Y952D01*
X0Y951D02*
X7Y951D01*
X1292Y951D02*
X1299Y951D01*
X0Y950D02*
X7Y950D01*
X1292Y950D02*
X1299Y950D01*
X0Y949D02*
X7Y949D01*
X1292Y949D02*
X1299Y949D01*
X0Y948D02*
X7Y948D01*
X1292Y948D02*
X1299Y948D01*
X0Y947D02*
X7Y947D01*
X1292Y947D02*
X1299Y947D01*
X0Y946D02*
X7Y946D01*
X1292Y946D02*
X1299Y946D01*
X0Y945D02*
X7Y945D01*
X1292Y945D02*
X1299Y945D01*
X0Y944D02*
X7Y944D01*
X1292Y944D02*
X1299Y944D01*
X0Y943D02*
X7Y943D01*
X1292Y943D02*
X1299Y943D01*
X0Y942D02*
X7Y942D01*
X1292Y942D02*
X1299Y942D01*
X0Y941D02*
X7Y941D01*
X1292Y941D02*
X1299Y941D01*
X0Y940D02*
X7Y940D01*
X1292Y940D02*
X1299Y940D01*
X0Y939D02*
X7Y939D01*
X1292Y939D02*
X1299Y939D01*
X0Y938D02*
X7Y938D01*
X1292Y938D02*
X1299Y938D01*
X0Y937D02*
X7Y937D01*
X1292Y937D02*
X1299Y937D01*
X0Y936D02*
X7Y936D01*
X1292Y936D02*
X1299Y936D01*
X0Y935D02*
X7Y935D01*
X1292Y935D02*
X1299Y935D01*
X0Y934D02*
X7Y934D01*
X1292Y934D02*
X1299Y934D01*
X0Y933D02*
X7Y933D01*
X1292Y933D02*
X1299Y933D01*
X0Y932D02*
X7Y932D01*
X1292Y932D02*
X1299Y932D01*
X0Y931D02*
X7Y931D01*
X1292Y931D02*
X1299Y931D01*
X0Y930D02*
X7Y930D01*
X1292Y930D02*
X1299Y930D01*
X0Y929D02*
X7Y929D01*
X1292Y929D02*
X1299Y929D01*
X0Y928D02*
X7Y928D01*
X1292Y928D02*
X1299Y928D01*
X0Y927D02*
X7Y927D01*
X1292Y927D02*
X1299Y927D01*
X0Y926D02*
X7Y926D01*
X1292Y926D02*
X1299Y926D01*
X0Y925D02*
X7Y925D01*
X1292Y925D02*
X1299Y925D01*
X0Y924D02*
X7Y924D01*
X1292Y924D02*
X1299Y924D01*
X0Y923D02*
X7Y923D01*
X1292Y923D02*
X1299Y923D01*
X0Y922D02*
X7Y922D01*
X1292Y922D02*
X1299Y922D01*
X0Y921D02*
X7Y921D01*
X1292Y921D02*
X1299Y921D01*
X0Y920D02*
X7Y920D01*
X1292Y920D02*
X1299Y920D01*
X0Y919D02*
X7Y919D01*
X1292Y919D02*
X1299Y919D01*
X0Y918D02*
X7Y918D01*
X1292Y918D02*
X1299Y918D01*
X0Y917D02*
X7Y917D01*
X1292Y917D02*
X1299Y917D01*
X0Y916D02*
X7Y916D01*
X1292Y916D02*
X1299Y916D01*
X0Y915D02*
X7Y915D01*
X1292Y915D02*
X1299Y915D01*
X0Y914D02*
X7Y914D01*
X1292Y914D02*
X1299Y914D01*
X0Y913D02*
X7Y913D01*
X1292Y913D02*
X1299Y913D01*
X0Y912D02*
X7Y912D01*
X1292Y912D02*
X1299Y912D01*
X0Y911D02*
X7Y911D01*
X1292Y911D02*
X1299Y911D01*
X0Y910D02*
X7Y910D01*
X1292Y910D02*
X1299Y910D01*
X0Y909D02*
X7Y909D01*
X1292Y909D02*
X1299Y909D01*
X0Y908D02*
X7Y908D01*
X1292Y908D02*
X1299Y908D01*
X0Y907D02*
X7Y907D01*
X1292Y907D02*
X1299Y907D01*
X0Y906D02*
X7Y906D01*
X1292Y906D02*
X1299Y906D01*
X0Y905D02*
X7Y905D01*
X1292Y905D02*
X1299Y905D01*
X0Y904D02*
X7Y904D01*
X1292Y904D02*
X1299Y904D01*
X0Y903D02*
X7Y903D01*
X1292Y903D02*
X1299Y903D01*
X0Y902D02*
X7Y902D01*
X1292Y902D02*
X1299Y902D01*
X0Y901D02*
X7Y901D01*
X1292Y901D02*
X1299Y901D01*
X0Y900D02*
X7Y900D01*
X1292Y900D02*
X1299Y900D01*
X0Y899D02*
X7Y899D01*
X1292Y899D02*
X1299Y899D01*
X0Y898D02*
X7Y898D01*
X1292Y898D02*
X1299Y898D01*
X0Y897D02*
X7Y897D01*
X1292Y897D02*
X1299Y897D01*
X0Y896D02*
X7Y896D01*
X1292Y896D02*
X1299Y896D01*
X0Y895D02*
X7Y895D01*
X1292Y895D02*
X1299Y895D01*
X0Y894D02*
X7Y894D01*
X1292Y894D02*
X1299Y894D01*
X0Y893D02*
X7Y893D01*
X1292Y893D02*
X1299Y893D01*
X0Y892D02*
X7Y892D01*
X1292Y892D02*
X1299Y892D01*
X0Y891D02*
X7Y891D01*
X1292Y891D02*
X1299Y891D01*
X0Y890D02*
X7Y890D01*
X1292Y890D02*
X1299Y890D01*
X0Y889D02*
X7Y889D01*
X1292Y889D02*
X1299Y889D01*
X0Y888D02*
X7Y888D01*
X1292Y888D02*
X1299Y888D01*
X0Y887D02*
X7Y887D01*
X1292Y887D02*
X1299Y887D01*
X0Y886D02*
X7Y886D01*
X1292Y886D02*
X1299Y886D01*
X0Y885D02*
X7Y885D01*
X1292Y885D02*
X1299Y885D01*
X0Y884D02*
X7Y884D01*
X1292Y884D02*
X1299Y884D01*
X0Y883D02*
X7Y883D01*
X1292Y883D02*
X1299Y883D01*
X0Y882D02*
X7Y882D01*
X1292Y882D02*
X1299Y882D01*
X0Y881D02*
X7Y881D01*
X1292Y881D02*
X1299Y881D01*
X0Y880D02*
X7Y880D01*
X1292Y880D02*
X1299Y880D01*
X0Y879D02*
X7Y879D01*
X1292Y879D02*
X1299Y879D01*
X0Y878D02*
X7Y878D01*
X1292Y878D02*
X1299Y878D01*
X0Y877D02*
X7Y877D01*
X1292Y877D02*
X1299Y877D01*
X0Y876D02*
X7Y876D01*
X1292Y876D02*
X1299Y876D01*
X0Y875D02*
X7Y875D01*
X1292Y875D02*
X1299Y875D01*
X0Y874D02*
X7Y874D01*
X1292Y874D02*
X1299Y874D01*
X0Y873D02*
X7Y873D01*
X1292Y873D02*
X1299Y873D01*
X0Y872D02*
X7Y872D01*
X1292Y872D02*
X1299Y872D01*
X0Y871D02*
X7Y871D01*
X1292Y871D02*
X1299Y871D01*
X0Y870D02*
X7Y870D01*
X1292Y870D02*
X1299Y870D01*
X0Y869D02*
X7Y869D01*
X1292Y869D02*
X1299Y869D01*
X0Y868D02*
X7Y868D01*
X1292Y868D02*
X1299Y868D01*
X0Y867D02*
X7Y867D01*
X1292Y867D02*
X1299Y867D01*
X0Y866D02*
X7Y866D01*
X1292Y866D02*
X1299Y866D01*
X0Y865D02*
X7Y865D01*
X1292Y865D02*
X1299Y865D01*
X0Y864D02*
X7Y864D01*
X1292Y864D02*
X1299Y864D01*
X0Y863D02*
X7Y863D01*
X1292Y863D02*
X1299Y863D01*
X0Y862D02*
X7Y862D01*
X1292Y862D02*
X1299Y862D01*
X0Y861D02*
X7Y861D01*
X1292Y861D02*
X1299Y861D01*
X0Y860D02*
X7Y860D01*
X1292Y860D02*
X1299Y860D01*
X0Y859D02*
X7Y859D01*
X1292Y859D02*
X1299Y859D01*
X0Y858D02*
X7Y858D01*
X1292Y858D02*
X1299Y858D01*
X0Y857D02*
X7Y857D01*
X1292Y857D02*
X1299Y857D01*
X0Y856D02*
X7Y856D01*
X1292Y856D02*
X1299Y856D01*
X0Y855D02*
X7Y855D01*
X1292Y855D02*
X1299Y855D01*
X0Y854D02*
X7Y854D01*
X1292Y854D02*
X1299Y854D01*
X0Y853D02*
X7Y853D01*
X1292Y853D02*
X1299Y853D01*
X0Y852D02*
X7Y852D01*
X1292Y852D02*
X1299Y852D01*
X0Y851D02*
X7Y851D01*
X1292Y851D02*
X1299Y851D01*
X0Y850D02*
X7Y850D01*
X1292Y850D02*
X1299Y850D01*
X0Y849D02*
X7Y849D01*
X1292Y849D02*
X1299Y849D01*
X0Y848D02*
X7Y848D01*
X1292Y848D02*
X1299Y848D01*
X0Y847D02*
X7Y847D01*
X1292Y847D02*
X1299Y847D01*
X0Y846D02*
X7Y846D01*
X1292Y846D02*
X1299Y846D01*
X0Y845D02*
X7Y845D01*
X1292Y845D02*
X1299Y845D01*
X0Y844D02*
X7Y844D01*
X1292Y844D02*
X1299Y844D01*
X0Y843D02*
X7Y843D01*
X1292Y843D02*
X1299Y843D01*
X0Y842D02*
X7Y842D01*
X1292Y842D02*
X1299Y842D01*
X0Y841D02*
X7Y841D01*
X1292Y841D02*
X1299Y841D01*
X0Y840D02*
X7Y840D01*
X1292Y840D02*
X1299Y840D01*
X0Y839D02*
X7Y839D01*
X1292Y839D02*
X1299Y839D01*
X0Y838D02*
X7Y838D01*
X1292Y838D02*
X1299Y838D01*
X0Y837D02*
X7Y837D01*
X1292Y837D02*
X1299Y837D01*
X0Y836D02*
X7Y836D01*
X1292Y836D02*
X1299Y836D01*
X0Y835D02*
X7Y835D01*
X1292Y835D02*
X1299Y835D01*
X0Y834D02*
X7Y834D01*
X1292Y834D02*
X1299Y834D01*
X0Y833D02*
X7Y833D01*
X1292Y833D02*
X1299Y833D01*
X0Y832D02*
X7Y832D01*
X1292Y832D02*
X1299Y832D01*
X0Y831D02*
X7Y831D01*
X1292Y831D02*
X1299Y831D01*
X0Y830D02*
X7Y830D01*
X1292Y830D02*
X1299Y830D01*
X0Y829D02*
X7Y829D01*
X1292Y829D02*
X1299Y829D01*
X0Y828D02*
X7Y828D01*
X1292Y828D02*
X1299Y828D01*
X0Y827D02*
X7Y827D01*
X1292Y827D02*
X1299Y827D01*
X0Y826D02*
X7Y826D01*
X1292Y826D02*
X1299Y826D01*
X0Y825D02*
X7Y825D01*
X1292Y825D02*
X1299Y825D01*
X0Y824D02*
X7Y824D01*
X1292Y824D02*
X1299Y824D01*
X0Y823D02*
X7Y823D01*
X1292Y823D02*
X1299Y823D01*
X0Y822D02*
X7Y822D01*
X1292Y822D02*
X1299Y822D01*
X0Y821D02*
X7Y821D01*
X1292Y821D02*
X1299Y821D01*
X0Y820D02*
X7Y820D01*
X1292Y820D02*
X1299Y820D01*
X0Y819D02*
X7Y819D01*
X1292Y819D02*
X1299Y819D01*
X0Y818D02*
X7Y818D01*
X1292Y818D02*
X1299Y818D01*
X0Y817D02*
X7Y817D01*
X1292Y817D02*
X1299Y817D01*
X0Y816D02*
X7Y816D01*
X1292Y816D02*
X1299Y816D01*
X0Y815D02*
X7Y815D01*
X1292Y815D02*
X1299Y815D01*
X0Y814D02*
X7Y814D01*
X1292Y814D02*
X1299Y814D01*
X0Y813D02*
X7Y813D01*
X1292Y813D02*
X1299Y813D01*
X0Y812D02*
X7Y812D01*
X1292Y812D02*
X1299Y812D01*
X0Y811D02*
X7Y811D01*
X1292Y811D02*
X1299Y811D01*
X0Y810D02*
X7Y810D01*
X1292Y810D02*
X1299Y810D01*
X0Y809D02*
X7Y809D01*
X1292Y809D02*
X1299Y809D01*
X0Y808D02*
X7Y808D01*
X1292Y808D02*
X1299Y808D01*
X0Y807D02*
X7Y807D01*
X1292Y807D02*
X1299Y807D01*
X0Y806D02*
X7Y806D01*
X1292Y806D02*
X1299Y806D01*
X0Y805D02*
X7Y805D01*
X1292Y805D02*
X1299Y805D01*
X0Y804D02*
X7Y804D01*
X1292Y804D02*
X1299Y804D01*
X0Y803D02*
X7Y803D01*
X1292Y803D02*
X1299Y803D01*
X0Y802D02*
X7Y802D01*
X1292Y802D02*
X1299Y802D01*
X0Y801D02*
X7Y801D01*
X1292Y801D02*
X1299Y801D01*
X0Y800D02*
X7Y800D01*
X1292Y800D02*
X1299Y800D01*
X0Y799D02*
X7Y799D01*
X1292Y799D02*
X1299Y799D01*
X0Y798D02*
X7Y798D01*
X1292Y798D02*
X1299Y798D01*
X0Y797D02*
X7Y797D01*
X1292Y797D02*
X1299Y797D01*
X0Y796D02*
X7Y796D01*
X1292Y796D02*
X1299Y796D01*
X0Y795D02*
X7Y795D01*
X1292Y795D02*
X1299Y795D01*
X0Y794D02*
X7Y794D01*
X1292Y794D02*
X1299Y794D01*
X0Y793D02*
X7Y793D01*
X1292Y793D02*
X1299Y793D01*
X0Y792D02*
X7Y792D01*
X1292Y792D02*
X1299Y792D01*
X0Y791D02*
X7Y791D01*
X1292Y791D02*
X1299Y791D01*
X0Y790D02*
X7Y790D01*
X1292Y790D02*
X1299Y790D01*
X0Y789D02*
X7Y789D01*
X1292Y789D02*
X1299Y789D01*
X0Y788D02*
X7Y788D01*
X1292Y788D02*
X1299Y788D01*
X0Y787D02*
X7Y787D01*
X1292Y787D02*
X1299Y787D01*
X0Y786D02*
X7Y786D01*
X1292Y786D02*
X1299Y786D01*
X0Y785D02*
X7Y785D01*
X1292Y785D02*
X1299Y785D01*
X0Y784D02*
X7Y784D01*
X1292Y784D02*
X1299Y784D01*
X0Y783D02*
X7Y783D01*
X1292Y783D02*
X1299Y783D01*
X0Y782D02*
X7Y782D01*
X1292Y782D02*
X1299Y782D01*
X0Y781D02*
X7Y781D01*
X1292Y781D02*
X1299Y781D01*
X0Y780D02*
X7Y780D01*
X1292Y780D02*
X1299Y780D01*
X0Y779D02*
X7Y779D01*
X1292Y779D02*
X1299Y779D01*
X0Y778D02*
X7Y778D01*
X1292Y778D02*
X1299Y778D01*
X0Y777D02*
X7Y777D01*
X1292Y777D02*
X1299Y777D01*
X0Y776D02*
X7Y776D01*
X1292Y776D02*
X1299Y776D01*
X0Y775D02*
X7Y775D01*
X1292Y775D02*
X1299Y775D01*
X0Y774D02*
X7Y774D01*
X1292Y774D02*
X1299Y774D01*
X0Y773D02*
X7Y773D01*
X1292Y773D02*
X1299Y773D01*
X0Y772D02*
X7Y772D01*
X1292Y772D02*
X1299Y772D01*
X0Y771D02*
X7Y771D01*
X1292Y771D02*
X1299Y771D01*
X0Y770D02*
X7Y770D01*
X1292Y770D02*
X1299Y770D01*
X0Y769D02*
X7Y769D01*
X1292Y769D02*
X1299Y769D01*
X0Y768D02*
X7Y768D01*
X1292Y768D02*
X1299Y768D01*
X0Y767D02*
X7Y767D01*
X1292Y767D02*
X1299Y767D01*
X0Y766D02*
X7Y766D01*
X1292Y766D02*
X1299Y766D01*
X0Y765D02*
X7Y765D01*
X1292Y765D02*
X1299Y765D01*
X0Y764D02*
X7Y764D01*
X1292Y764D02*
X1299Y764D01*
X0Y763D02*
X7Y763D01*
X1292Y763D02*
X1299Y763D01*
X0Y762D02*
X7Y762D01*
X1292Y762D02*
X1299Y762D01*
X0Y761D02*
X7Y761D01*
X1292Y761D02*
X1299Y761D01*
X0Y760D02*
X7Y760D01*
X1292Y760D02*
X1299Y760D01*
X0Y759D02*
X7Y759D01*
X1292Y759D02*
X1299Y759D01*
X0Y758D02*
X7Y758D01*
X1292Y758D02*
X1299Y758D01*
X0Y757D02*
X7Y757D01*
X1292Y757D02*
X1299Y757D01*
X0Y756D02*
X7Y756D01*
X1292Y756D02*
X1299Y756D01*
X0Y755D02*
X7Y755D01*
X1292Y755D02*
X1299Y755D01*
X0Y754D02*
X7Y754D01*
X1292Y754D02*
X1299Y754D01*
X0Y753D02*
X7Y753D01*
X1292Y753D02*
X1299Y753D01*
X0Y752D02*
X7Y752D01*
X1292Y752D02*
X1299Y752D01*
X0Y751D02*
X7Y751D01*
X1292Y751D02*
X1299Y751D01*
X0Y750D02*
X7Y750D01*
X1292Y750D02*
X1299Y750D01*
X0Y749D02*
X7Y749D01*
X1292Y749D02*
X1299Y749D01*
X0Y748D02*
X7Y748D01*
X1292Y748D02*
X1299Y748D01*
X0Y747D02*
X7Y747D01*
X1292Y747D02*
X1299Y747D01*
X0Y746D02*
X7Y746D01*
X1292Y746D02*
X1299Y746D01*
X0Y745D02*
X7Y745D01*
X1292Y745D02*
X1299Y745D01*
X0Y744D02*
X7Y744D01*
X1292Y744D02*
X1299Y744D01*
X0Y743D02*
X7Y743D01*
X1292Y743D02*
X1299Y743D01*
X0Y742D02*
X7Y742D01*
X1292Y742D02*
X1299Y742D01*
X0Y741D02*
X7Y741D01*
X1292Y741D02*
X1299Y741D01*
X0Y740D02*
X7Y740D01*
X1292Y740D02*
X1299Y740D01*
X0Y739D02*
X7Y739D01*
X1292Y739D02*
X1299Y739D01*
X0Y738D02*
X7Y738D01*
X1292Y738D02*
X1299Y738D01*
X0Y737D02*
X7Y737D01*
X1292Y737D02*
X1299Y737D01*
X0Y736D02*
X7Y736D01*
X1292Y736D02*
X1299Y736D01*
X0Y735D02*
X7Y735D01*
X1292Y735D02*
X1299Y735D01*
X0Y734D02*
X7Y734D01*
X1292Y734D02*
X1299Y734D01*
X0Y733D02*
X7Y733D01*
X1292Y733D02*
X1299Y733D01*
X0Y732D02*
X7Y732D01*
X1292Y732D02*
X1299Y732D01*
X0Y731D02*
X7Y731D01*
X1292Y731D02*
X1299Y731D01*
X0Y730D02*
X7Y730D01*
X1292Y730D02*
X1299Y730D01*
X0Y729D02*
X7Y729D01*
X1292Y729D02*
X1299Y729D01*
X0Y728D02*
X7Y728D01*
X1292Y728D02*
X1299Y728D01*
X0Y727D02*
X7Y727D01*
X1292Y727D02*
X1299Y727D01*
X0Y726D02*
X7Y726D01*
X1292Y726D02*
X1299Y726D01*
X0Y725D02*
X7Y725D01*
X1292Y725D02*
X1299Y725D01*
X0Y724D02*
X7Y724D01*
X1292Y724D02*
X1299Y724D01*
X0Y723D02*
X7Y723D01*
X1292Y723D02*
X1299Y723D01*
X0Y722D02*
X7Y722D01*
X1292Y722D02*
X1299Y722D01*
X0Y721D02*
X7Y721D01*
X1292Y721D02*
X1299Y721D01*
X0Y720D02*
X7Y720D01*
X1292Y720D02*
X1299Y720D01*
X0Y719D02*
X7Y719D01*
X1292Y719D02*
X1299Y719D01*
X0Y718D02*
X7Y718D01*
X1292Y718D02*
X1299Y718D01*
X0Y717D02*
X7Y717D01*
X1292Y717D02*
X1299Y717D01*
X0Y716D02*
X7Y716D01*
X1292Y716D02*
X1299Y716D01*
X0Y715D02*
X7Y715D01*
X1292Y715D02*
X1299Y715D01*
X0Y714D02*
X7Y714D01*
X1292Y714D02*
X1299Y714D01*
X0Y713D02*
X7Y713D01*
X1292Y713D02*
X1299Y713D01*
X0Y712D02*
X7Y712D01*
X1292Y712D02*
X1299Y712D01*
X0Y711D02*
X7Y711D01*
X1292Y711D02*
X1299Y711D01*
X0Y710D02*
X7Y710D01*
X1292Y710D02*
X1299Y710D01*
X0Y709D02*
X7Y709D01*
X1292Y709D02*
X1299Y709D01*
X0Y708D02*
X7Y708D01*
X1292Y708D02*
X1299Y708D01*
X0Y707D02*
X7Y707D01*
X1292Y707D02*
X1299Y707D01*
X0Y706D02*
X7Y706D01*
X1292Y706D02*
X1299Y706D01*
X0Y705D02*
X7Y705D01*
X1292Y705D02*
X1299Y705D01*
X0Y704D02*
X7Y704D01*
X1292Y704D02*
X1299Y704D01*
X0Y703D02*
X7Y703D01*
X1292Y703D02*
X1299Y703D01*
X0Y702D02*
X7Y702D01*
X1292Y702D02*
X1299Y702D01*
X0Y701D02*
X7Y701D01*
X1292Y701D02*
X1299Y701D01*
X0Y700D02*
X7Y700D01*
X1292Y700D02*
X1299Y700D01*
X0Y699D02*
X7Y699D01*
X1292Y699D02*
X1299Y699D01*
X0Y698D02*
X7Y698D01*
X1292Y698D02*
X1299Y698D01*
X0Y697D02*
X7Y697D01*
X1292Y697D02*
X1299Y697D01*
X0Y696D02*
X7Y696D01*
X1292Y696D02*
X1299Y696D01*
X0Y695D02*
X7Y695D01*
X1292Y695D02*
X1299Y695D01*
X0Y694D02*
X7Y694D01*
X1292Y694D02*
X1299Y694D01*
X0Y693D02*
X7Y693D01*
X1292Y693D02*
X1299Y693D01*
X0Y692D02*
X7Y692D01*
X1292Y692D02*
X1299Y692D01*
X0Y691D02*
X7Y691D01*
X1292Y691D02*
X1299Y691D01*
X0Y690D02*
X7Y690D01*
X1292Y690D02*
X1299Y690D01*
X0Y689D02*
X7Y689D01*
X1292Y689D02*
X1299Y689D01*
X0Y688D02*
X7Y688D01*
X1292Y688D02*
X1299Y688D01*
X0Y687D02*
X7Y687D01*
X1292Y687D02*
X1299Y687D01*
X0Y686D02*
X7Y686D01*
X1292Y686D02*
X1299Y686D01*
X0Y685D02*
X7Y685D01*
X1292Y685D02*
X1299Y685D01*
X0Y684D02*
X7Y684D01*
X1292Y684D02*
X1299Y684D01*
X0Y683D02*
X7Y683D01*
X1292Y683D02*
X1299Y683D01*
X0Y682D02*
X7Y682D01*
X1292Y682D02*
X1299Y682D01*
X0Y681D02*
X7Y681D01*
X1292Y681D02*
X1299Y681D01*
X0Y680D02*
X7Y680D01*
X1292Y680D02*
X1299Y680D01*
X0Y679D02*
X7Y679D01*
X1292Y679D02*
X1299Y679D01*
X0Y678D02*
X7Y678D01*
X1292Y678D02*
X1299Y678D01*
X0Y677D02*
X7Y677D01*
X1292Y677D02*
X1299Y677D01*
X0Y676D02*
X7Y676D01*
X1292Y676D02*
X1299Y676D01*
X0Y675D02*
X7Y675D01*
X1292Y675D02*
X1299Y675D01*
X0Y674D02*
X7Y674D01*
X1292Y674D02*
X1299Y674D01*
X0Y673D02*
X7Y673D01*
X1292Y673D02*
X1299Y673D01*
X0Y672D02*
X7Y672D01*
X1292Y672D02*
X1299Y672D01*
X0Y671D02*
X7Y671D01*
X1292Y671D02*
X1299Y671D01*
X0Y670D02*
X7Y670D01*
X1292Y670D02*
X1299Y670D01*
X0Y669D02*
X7Y669D01*
X1292Y669D02*
X1299Y669D01*
X0Y668D02*
X7Y668D01*
X1292Y668D02*
X1299Y668D01*
X0Y667D02*
X7Y667D01*
X1292Y667D02*
X1299Y667D01*
X0Y666D02*
X7Y666D01*
X1292Y666D02*
X1299Y666D01*
X0Y665D02*
X7Y665D01*
X1292Y665D02*
X1299Y665D01*
X0Y664D02*
X7Y664D01*
X1292Y664D02*
X1299Y664D01*
X0Y663D02*
X7Y663D01*
X1292Y663D02*
X1299Y663D01*
X0Y662D02*
X7Y662D01*
X1292Y662D02*
X1299Y662D01*
X0Y661D02*
X7Y661D01*
X1292Y661D02*
X1299Y661D01*
X0Y660D02*
X7Y660D01*
X1292Y660D02*
X1299Y660D01*
X0Y659D02*
X7Y659D01*
X1292Y659D02*
X1299Y659D01*
X0Y658D02*
X7Y658D01*
X1292Y658D02*
X1299Y658D01*
X0Y657D02*
X7Y657D01*
X1292Y657D02*
X1299Y657D01*
X0Y656D02*
X7Y656D01*
X1292Y656D02*
X1299Y656D01*
X0Y655D02*
X7Y655D01*
X1292Y655D02*
X1299Y655D01*
X0Y654D02*
X7Y654D01*
X1292Y654D02*
X1299Y654D01*
X0Y653D02*
X7Y653D01*
X1292Y653D02*
X1299Y653D01*
X0Y652D02*
X7Y652D01*
X1292Y652D02*
X1299Y652D01*
X0Y651D02*
X7Y651D01*
X1292Y651D02*
X1299Y651D01*
X0Y650D02*
X7Y650D01*
X1292Y650D02*
X1299Y650D01*
X0Y649D02*
X7Y649D01*
X1292Y649D02*
X1299Y649D01*
X0Y648D02*
X7Y648D01*
X1292Y648D02*
X1299Y648D01*
X0Y647D02*
X7Y647D01*
X1292Y647D02*
X1299Y647D01*
X0Y646D02*
X7Y646D01*
X1292Y646D02*
X1299Y646D01*
X0Y645D02*
X7Y645D01*
X1292Y645D02*
X1299Y645D01*
X0Y644D02*
X7Y644D01*
X1292Y644D02*
X1299Y644D01*
X0Y643D02*
X7Y643D01*
X1292Y643D02*
X1299Y643D01*
X0Y642D02*
X7Y642D01*
X1292Y642D02*
X1299Y642D01*
X0Y641D02*
X7Y641D01*
X1292Y641D02*
X1299Y641D01*
X0Y640D02*
X7Y640D01*
X1292Y640D02*
X1299Y640D01*
X0Y639D02*
X7Y639D01*
X1292Y639D02*
X1299Y639D01*
X0Y638D02*
X7Y638D01*
X1292Y638D02*
X1299Y638D01*
X0Y637D02*
X7Y637D01*
X1292Y637D02*
X1299Y637D01*
X0Y636D02*
X7Y636D01*
X1292Y636D02*
X1299Y636D01*
X0Y635D02*
X7Y635D01*
X1292Y635D02*
X1299Y635D01*
X0Y634D02*
X7Y634D01*
X1292Y634D02*
X1299Y634D01*
X0Y633D02*
X7Y633D01*
X1292Y633D02*
X1299Y633D01*
X0Y632D02*
X7Y632D01*
X1292Y632D02*
X1299Y632D01*
X0Y631D02*
X7Y631D01*
X1292Y631D02*
X1299Y631D01*
X0Y630D02*
X7Y630D01*
X1292Y630D02*
X1299Y630D01*
X0Y629D02*
X7Y629D01*
X1292Y629D02*
X1299Y629D01*
X0Y628D02*
X7Y628D01*
X1292Y628D02*
X1299Y628D01*
X0Y627D02*
X7Y627D01*
X1292Y627D02*
X1299Y627D01*
X0Y626D02*
X7Y626D01*
X1292Y626D02*
X1299Y626D01*
X0Y625D02*
X7Y625D01*
X1292Y625D02*
X1299Y625D01*
X0Y624D02*
X7Y624D01*
X1292Y624D02*
X1299Y624D01*
X0Y623D02*
X7Y623D01*
X1292Y623D02*
X1299Y623D01*
X0Y622D02*
X7Y622D01*
X1292Y622D02*
X1299Y622D01*
X0Y621D02*
X7Y621D01*
X1292Y621D02*
X1299Y621D01*
X0Y620D02*
X7Y620D01*
X1292Y620D02*
X1299Y620D01*
X0Y619D02*
X7Y619D01*
X1292Y619D02*
X1299Y619D01*
X0Y618D02*
X7Y618D01*
X1292Y618D02*
X1299Y618D01*
X0Y617D02*
X7Y617D01*
X1292Y617D02*
X1299Y617D01*
X0Y616D02*
X7Y616D01*
X1292Y616D02*
X1299Y616D01*
X0Y615D02*
X7Y615D01*
X1292Y615D02*
X1299Y615D01*
X0Y614D02*
X7Y614D01*
X1292Y614D02*
X1299Y614D01*
X0Y613D02*
X7Y613D01*
X1292Y613D02*
X1299Y613D01*
X0Y612D02*
X7Y612D01*
X1292Y612D02*
X1299Y612D01*
X0Y611D02*
X7Y611D01*
X1292Y611D02*
X1299Y611D01*
X0Y610D02*
X7Y610D01*
X1292Y610D02*
X1299Y610D01*
X0Y609D02*
X7Y609D01*
X1292Y609D02*
X1299Y609D01*
X0Y608D02*
X7Y608D01*
X1292Y608D02*
X1299Y608D01*
X0Y607D02*
X7Y607D01*
X1292Y607D02*
X1299Y607D01*
X0Y606D02*
X7Y606D01*
X1292Y606D02*
X1299Y606D01*
X0Y605D02*
X7Y605D01*
X1292Y605D02*
X1299Y605D01*
X0Y604D02*
X7Y604D01*
X1292Y604D02*
X1299Y604D01*
X0Y603D02*
X7Y603D01*
X1292Y603D02*
X1299Y603D01*
X0Y602D02*
X7Y602D01*
X1292Y602D02*
X1299Y602D01*
X0Y601D02*
X7Y601D01*
X1292Y601D02*
X1299Y601D01*
X0Y600D02*
X7Y600D01*
X1292Y600D02*
X1299Y600D01*
X0Y599D02*
X7Y599D01*
X1292Y599D02*
X1299Y599D01*
X0Y598D02*
X7Y598D01*
X1292Y598D02*
X1299Y598D01*
X0Y597D02*
X7Y597D01*
X1292Y597D02*
X1299Y597D01*
X0Y596D02*
X7Y596D01*
X1292Y596D02*
X1299Y596D01*
X0Y595D02*
X7Y595D01*
X1292Y595D02*
X1299Y595D01*
X0Y594D02*
X7Y594D01*
X1292Y594D02*
X1299Y594D01*
X0Y593D02*
X7Y593D01*
X1292Y593D02*
X1299Y593D01*
X0Y592D02*
X7Y592D01*
X1292Y592D02*
X1299Y592D01*
X0Y591D02*
X7Y591D01*
X1292Y591D02*
X1299Y591D01*
X0Y590D02*
X7Y590D01*
X1292Y590D02*
X1299Y590D01*
X0Y589D02*
X7Y589D01*
X1292Y589D02*
X1299Y589D01*
X0Y588D02*
X7Y588D01*
X1292Y588D02*
X1299Y588D01*
X0Y587D02*
X7Y587D01*
X1292Y587D02*
X1299Y587D01*
X0Y586D02*
X7Y586D01*
X1292Y586D02*
X1299Y586D01*
X0Y585D02*
X7Y585D01*
X1292Y585D02*
X1299Y585D01*
X0Y584D02*
X7Y584D01*
X1292Y584D02*
X1299Y584D01*
X0Y583D02*
X7Y583D01*
X1292Y583D02*
X1299Y583D01*
X0Y582D02*
X7Y582D01*
X1292Y582D02*
X1299Y582D01*
X0Y581D02*
X7Y581D01*
X1292Y581D02*
X1299Y581D01*
X0Y580D02*
X7Y580D01*
X1292Y580D02*
X1299Y580D01*
X0Y579D02*
X7Y579D01*
X1292Y579D02*
X1299Y579D01*
X0Y578D02*
X7Y578D01*
X1292Y578D02*
X1299Y578D01*
X0Y577D02*
X7Y577D01*
X1292Y577D02*
X1299Y577D01*
X0Y576D02*
X7Y576D01*
X1292Y576D02*
X1299Y576D01*
X0Y575D02*
X7Y575D01*
X1292Y575D02*
X1299Y575D01*
X0Y574D02*
X7Y574D01*
X1292Y574D02*
X1299Y574D01*
X0Y573D02*
X7Y573D01*
X1292Y573D02*
X1299Y573D01*
X0Y572D02*
X7Y572D01*
X1292Y572D02*
X1299Y572D01*
X0Y571D02*
X7Y571D01*
X1292Y571D02*
X1299Y571D01*
X0Y570D02*
X7Y570D01*
X1292Y570D02*
X1299Y570D01*
X0Y569D02*
X7Y569D01*
X1292Y569D02*
X1299Y569D01*
X0Y568D02*
X7Y568D01*
X1292Y568D02*
X1299Y568D01*
X0Y567D02*
X7Y567D01*
X1292Y567D02*
X1299Y567D01*
X0Y566D02*
X7Y566D01*
X1292Y566D02*
X1299Y566D01*
X0Y565D02*
X7Y565D01*
X1292Y565D02*
X1299Y565D01*
X0Y564D02*
X7Y564D01*
X1292Y564D02*
X1299Y564D01*
X0Y563D02*
X7Y563D01*
X1292Y563D02*
X1299Y563D01*
X0Y562D02*
X7Y562D01*
X1292Y562D02*
X1299Y562D01*
X0Y561D02*
X7Y561D01*
X1292Y561D02*
X1299Y561D01*
X0Y560D02*
X7Y560D01*
X1292Y560D02*
X1299Y560D01*
X0Y559D02*
X7Y559D01*
X1292Y559D02*
X1299Y559D01*
X0Y558D02*
X7Y558D01*
X1292Y558D02*
X1299Y558D01*
X0Y557D02*
X7Y557D01*
X1292Y557D02*
X1299Y557D01*
X0Y556D02*
X7Y556D01*
X1292Y556D02*
X1299Y556D01*
X0Y555D02*
X7Y555D01*
X1292Y555D02*
X1299Y555D01*
X0Y554D02*
X7Y554D01*
X1292Y554D02*
X1299Y554D01*
X0Y553D02*
X7Y553D01*
X1292Y553D02*
X1299Y553D01*
X0Y552D02*
X7Y552D01*
X1292Y552D02*
X1299Y552D01*
X0Y551D02*
X7Y551D01*
X1292Y551D02*
X1299Y551D01*
X0Y550D02*
X7Y550D01*
X1292Y550D02*
X1299Y550D01*
X0Y549D02*
X7Y549D01*
X1292Y549D02*
X1299Y549D01*
X0Y548D02*
X7Y548D01*
X1292Y548D02*
X1299Y548D01*
X0Y547D02*
X7Y547D01*
X1292Y547D02*
X1299Y547D01*
X0Y546D02*
X7Y546D01*
X1292Y546D02*
X1299Y546D01*
X0Y545D02*
X7Y545D01*
X1292Y545D02*
X1299Y545D01*
X0Y544D02*
X7Y544D01*
X1292Y544D02*
X1299Y544D01*
X0Y543D02*
X7Y543D01*
X1292Y543D02*
X1299Y543D01*
X0Y542D02*
X7Y542D01*
X1292Y542D02*
X1299Y542D01*
X0Y541D02*
X7Y541D01*
X1292Y541D02*
X1299Y541D01*
X0Y540D02*
X7Y540D01*
X1292Y540D02*
X1299Y540D01*
X0Y539D02*
X7Y539D01*
X1292Y539D02*
X1299Y539D01*
X0Y538D02*
X7Y538D01*
X1292Y538D02*
X1299Y538D01*
X0Y537D02*
X7Y537D01*
X1292Y537D02*
X1299Y537D01*
X0Y536D02*
X7Y536D01*
X1292Y536D02*
X1299Y536D01*
X0Y535D02*
X7Y535D01*
X1292Y535D02*
X1299Y535D01*
X0Y534D02*
X7Y534D01*
X1292Y534D02*
X1299Y534D01*
X0Y533D02*
X7Y533D01*
X1292Y533D02*
X1299Y533D01*
X0Y532D02*
X7Y532D01*
X1292Y532D02*
X1299Y532D01*
X0Y531D02*
X7Y531D01*
X1292Y531D02*
X1299Y531D01*
X0Y530D02*
X7Y530D01*
X1292Y530D02*
X1299Y530D01*
X0Y529D02*
X7Y529D01*
X1292Y529D02*
X1299Y529D01*
X0Y528D02*
X7Y528D01*
X1292Y528D02*
X1299Y528D01*
X0Y527D02*
X7Y527D01*
X1292Y527D02*
X1299Y527D01*
X0Y526D02*
X7Y526D01*
X1292Y526D02*
X1299Y526D01*
X0Y525D02*
X7Y525D01*
X1292Y525D02*
X1299Y525D01*
X0Y524D02*
X7Y524D01*
X185Y524D02*
X186Y524D01*
X221Y524D02*
X250Y524D01*
X299Y524D02*
X300Y524D01*
X328Y524D02*
X344Y524D01*
X1292Y524D02*
X1299Y524D01*
X0Y523D02*
X7Y523D01*
X182Y523D02*
X189Y523D01*
X220Y523D02*
X251Y523D01*
X298Y523D02*
X302Y523D01*
X325Y523D02*
X347Y523D01*
X1292Y523D02*
X1299Y523D01*
X0Y522D02*
X7Y522D01*
X180Y522D02*
X191Y522D01*
X219Y522D02*
X252Y522D01*
X297Y522D02*
X302Y522D01*
X324Y522D02*
X349Y522D01*
X1292Y522D02*
X1299Y522D01*
X0Y521D02*
X7Y521D01*
X179Y521D02*
X192Y521D01*
X219Y521D02*
X252Y521D01*
X297Y521D02*
X303Y521D01*
X322Y521D02*
X350Y521D01*
X1292Y521D02*
X1299Y521D01*
X0Y520D02*
X7Y520D01*
X178Y520D02*
X193Y520D01*
X219Y520D02*
X252Y520D01*
X297Y520D02*
X303Y520D01*
X322Y520D02*
X351Y520D01*
X1292Y520D02*
X1299Y520D01*
X0Y519D02*
X7Y519D01*
X178Y519D02*
X193Y519D01*
X219Y519D02*
X252Y519D01*
X297Y519D02*
X303Y519D01*
X321Y519D02*
X351Y519D01*
X1292Y519D02*
X1299Y519D01*
X0Y518D02*
X7Y518D01*
X177Y518D02*
X194Y518D01*
X220Y518D02*
X251Y518D01*
X297Y518D02*
X303Y518D01*
X320Y518D02*
X352Y518D01*
X1292Y518D02*
X1299Y518D01*
X0Y517D02*
X7Y517D01*
X177Y517D02*
X184Y517D01*
X187Y517D02*
X194Y517D01*
X232Y517D02*
X239Y517D01*
X297Y517D02*
X303Y517D01*
X320Y517D02*
X328Y517D01*
X344Y517D02*
X352Y517D01*
X1292Y517D02*
X1299Y517D01*
X0Y516D02*
X7Y516D01*
X176Y516D02*
X183Y516D01*
X188Y516D02*
X195Y516D01*
X233Y516D02*
X239Y516D01*
X297Y516D02*
X303Y516D01*
X320Y516D02*
X326Y516D01*
X346Y516D02*
X353Y516D01*
X1292Y516D02*
X1299Y516D01*
X0Y515D02*
X7Y515D01*
X176Y515D02*
X183Y515D01*
X188Y515D02*
X195Y515D01*
X233Y515D02*
X239Y515D01*
X297Y515D02*
X303Y515D01*
X319Y515D02*
X326Y515D01*
X347Y515D02*
X353Y515D01*
X1292Y515D02*
X1299Y515D01*
X0Y514D02*
X7Y514D01*
X175Y514D02*
X182Y514D01*
X189Y514D02*
X196Y514D01*
X233Y514D02*
X239Y514D01*
X297Y514D02*
X303Y514D01*
X319Y514D02*
X325Y514D01*
X347Y514D02*
X353Y514D01*
X1292Y514D02*
X1299Y514D01*
X0Y513D02*
X7Y513D01*
X175Y513D02*
X182Y513D01*
X189Y513D02*
X196Y513D01*
X233Y513D02*
X239Y513D01*
X297Y513D02*
X303Y513D01*
X319Y513D02*
X325Y513D01*
X347Y513D02*
X353Y513D01*
X1292Y513D02*
X1299Y513D01*
X0Y512D02*
X7Y512D01*
X174Y512D02*
X181Y512D01*
X190Y512D02*
X197Y512D01*
X233Y512D02*
X239Y512D01*
X297Y512D02*
X303Y512D01*
X319Y512D02*
X325Y512D01*
X347Y512D02*
X353Y512D01*
X1292Y512D02*
X1299Y512D01*
X0Y511D02*
X7Y511D01*
X174Y511D02*
X181Y511D01*
X190Y511D02*
X197Y511D01*
X233Y511D02*
X239Y511D01*
X297Y511D02*
X303Y511D01*
X319Y511D02*
X325Y511D01*
X347Y511D02*
X353Y511D01*
X1292Y511D02*
X1299Y511D01*
X0Y510D02*
X7Y510D01*
X173Y510D02*
X180Y510D01*
X191Y510D02*
X198Y510D01*
X233Y510D02*
X239Y510D01*
X297Y510D02*
X303Y510D01*
X319Y510D02*
X325Y510D01*
X347Y510D02*
X353Y510D01*
X1292Y510D02*
X1299Y510D01*
X0Y509D02*
X7Y509D01*
X173Y509D02*
X180Y509D01*
X191Y509D02*
X198Y509D01*
X233Y509D02*
X239Y509D01*
X297Y509D02*
X303Y509D01*
X319Y509D02*
X325Y509D01*
X347Y509D02*
X353Y509D01*
X1292Y509D02*
X1299Y509D01*
X0Y508D02*
X7Y508D01*
X172Y508D02*
X179Y508D01*
X192Y508D02*
X199Y508D01*
X233Y508D02*
X239Y508D01*
X297Y508D02*
X303Y508D01*
X319Y508D02*
X325Y508D01*
X347Y508D02*
X353Y508D01*
X1292Y508D02*
X1299Y508D01*
X0Y507D02*
X7Y507D01*
X172Y507D02*
X179Y507D01*
X192Y507D02*
X199Y507D01*
X233Y507D02*
X239Y507D01*
X297Y507D02*
X303Y507D01*
X319Y507D02*
X325Y507D01*
X347Y507D02*
X353Y507D01*
X1292Y507D02*
X1299Y507D01*
X0Y506D02*
X7Y506D01*
X171Y506D02*
X178Y506D01*
X193Y506D02*
X200Y506D01*
X233Y506D02*
X239Y506D01*
X297Y506D02*
X303Y506D01*
X319Y506D02*
X334Y506D01*
X347Y506D02*
X353Y506D01*
X1292Y506D02*
X1299Y506D01*
X0Y505D02*
X7Y505D01*
X171Y505D02*
X178Y505D01*
X193Y505D02*
X200Y505D01*
X233Y505D02*
X239Y505D01*
X297Y505D02*
X303Y505D01*
X319Y505D02*
X335Y505D01*
X347Y505D02*
X353Y505D01*
X1292Y505D02*
X1299Y505D01*
X0Y504D02*
X7Y504D01*
X170Y504D02*
X177Y504D01*
X194Y504D02*
X201Y504D01*
X233Y504D02*
X239Y504D01*
X297Y504D02*
X303Y504D01*
X319Y504D02*
X335Y504D01*
X347Y504D02*
X353Y504D01*
X1292Y504D02*
X1299Y504D01*
X0Y503D02*
X7Y503D01*
X170Y503D02*
X177Y503D01*
X194Y503D02*
X201Y503D01*
X233Y503D02*
X239Y503D01*
X276Y503D02*
X303Y503D01*
X319Y503D02*
X336Y503D01*
X347Y503D02*
X353Y503D01*
X1292Y503D02*
X1299Y503D01*
X0Y502D02*
X7Y502D01*
X170Y502D02*
X176Y502D01*
X195Y502D02*
X201Y502D01*
X233Y502D02*
X239Y502D01*
X274Y502D02*
X303Y502D01*
X319Y502D02*
X335Y502D01*
X347Y502D02*
X353Y502D01*
X1292Y502D02*
X1299Y502D01*
X0Y501D02*
X7Y501D01*
X169Y501D02*
X176Y501D01*
X195Y501D02*
X202Y501D01*
X233Y501D02*
X239Y501D01*
X273Y501D02*
X303Y501D01*
X319Y501D02*
X335Y501D01*
X347Y501D02*
X353Y501D01*
X1292Y501D02*
X1299Y501D01*
X0Y500D02*
X7Y500D01*
X169Y500D02*
X175Y500D01*
X196Y500D02*
X202Y500D01*
X233Y500D02*
X239Y500D01*
X272Y500D02*
X303Y500D01*
X319Y500D02*
X334Y500D01*
X347Y500D02*
X353Y500D01*
X1292Y500D02*
X1299Y500D01*
X0Y499D02*
X7Y499D01*
X169Y499D02*
X175Y499D01*
X196Y499D02*
X202Y499D01*
X233Y499D02*
X239Y499D01*
X271Y499D02*
X303Y499D01*
X347Y499D02*
X353Y499D01*
X1292Y499D02*
X1299Y499D01*
X0Y498D02*
X7Y498D01*
X169Y498D02*
X175Y498D01*
X196Y498D02*
X202Y498D01*
X233Y498D02*
X239Y498D01*
X270Y498D02*
X303Y498D01*
X347Y498D02*
X353Y498D01*
X1292Y498D02*
X1299Y498D01*
X0Y497D02*
X7Y497D01*
X169Y497D02*
X175Y497D01*
X196Y497D02*
X202Y497D01*
X233Y497D02*
X239Y497D01*
X270Y497D02*
X303Y497D01*
X347Y497D02*
X353Y497D01*
X1292Y497D02*
X1299Y497D01*
X0Y496D02*
X7Y496D01*
X169Y496D02*
X175Y496D01*
X196Y496D02*
X202Y496D01*
X233Y496D02*
X239Y496D01*
X270Y496D02*
X277Y496D01*
X297Y496D02*
X303Y496D01*
X347Y496D02*
X353Y496D01*
X1292Y496D02*
X1299Y496D01*
X0Y495D02*
X7Y495D01*
X169Y495D02*
X175Y495D01*
X196Y495D02*
X202Y495D01*
X233Y495D02*
X239Y495D01*
X269Y495D02*
X276Y495D01*
X297Y495D02*
X303Y495D01*
X347Y495D02*
X353Y495D01*
X1292Y495D02*
X1299Y495D01*
X0Y494D02*
X7Y494D01*
X169Y494D02*
X175Y494D01*
X196Y494D02*
X202Y494D01*
X233Y494D02*
X239Y494D01*
X269Y494D02*
X275Y494D01*
X297Y494D02*
X303Y494D01*
X347Y494D02*
X353Y494D01*
X1292Y494D02*
X1299Y494D01*
X0Y493D02*
X7Y493D01*
X169Y493D02*
X176Y493D01*
X195Y493D02*
X202Y493D01*
X233Y493D02*
X239Y493D01*
X269Y493D02*
X275Y493D01*
X297Y493D02*
X303Y493D01*
X347Y493D02*
X353Y493D01*
X1292Y493D02*
X1299Y493D01*
X0Y492D02*
X7Y492D01*
X170Y492D02*
X176Y492D01*
X195Y492D02*
X201Y492D01*
X233Y492D02*
X239Y492D01*
X269Y492D02*
X275Y492D01*
X297Y492D02*
X303Y492D01*
X346Y492D02*
X353Y492D01*
X1292Y492D02*
X1299Y492D01*
X0Y491D02*
X7Y491D01*
X170Y491D02*
X177Y491D01*
X194Y491D02*
X201Y491D01*
X233Y491D02*
X239Y491D01*
X269Y491D02*
X275Y491D01*
X297Y491D02*
X303Y491D01*
X346Y491D02*
X352Y491D01*
X1292Y491D02*
X1299Y491D01*
X0Y490D02*
X7Y490D01*
X170Y490D02*
X177Y490D01*
X194Y490D02*
X201Y490D01*
X233Y490D02*
X239Y490D01*
X269Y490D02*
X275Y490D01*
X297Y490D02*
X303Y490D01*
X345Y490D02*
X352Y490D01*
X1292Y490D02*
X1299Y490D01*
X0Y489D02*
X7Y489D01*
X171Y489D02*
X178Y489D01*
X193Y489D02*
X200Y489D01*
X233Y489D02*
X239Y489D01*
X269Y489D02*
X275Y489D01*
X297Y489D02*
X303Y489D01*
X344Y489D02*
X352Y489D01*
X1292Y489D02*
X1299Y489D01*
X0Y488D02*
X7Y488D01*
X171Y488D02*
X178Y488D01*
X193Y488D02*
X200Y488D01*
X233Y488D02*
X239Y488D01*
X269Y488D02*
X275Y488D01*
X297Y488D02*
X303Y488D01*
X343Y488D02*
X351Y488D01*
X1292Y488D02*
X1299Y488D01*
X0Y487D02*
X7Y487D01*
X172Y487D02*
X179Y487D01*
X192Y487D02*
X199Y487D01*
X233Y487D02*
X239Y487D01*
X269Y487D02*
X275Y487D01*
X297Y487D02*
X303Y487D01*
X343Y487D02*
X350Y487D01*
X1292Y487D02*
X1299Y487D01*
X0Y486D02*
X7Y486D01*
X172Y486D02*
X179Y486D01*
X192Y486D02*
X199Y486D01*
X233Y486D02*
X239Y486D01*
X269Y486D02*
X275Y486D01*
X297Y486D02*
X303Y486D01*
X342Y486D02*
X350Y486D01*
X1292Y486D02*
X1299Y486D01*
X0Y485D02*
X7Y485D01*
X173Y485D02*
X180Y485D01*
X191Y485D02*
X198Y485D01*
X233Y485D02*
X239Y485D01*
X269Y485D02*
X275Y485D01*
X297Y485D02*
X303Y485D01*
X341Y485D02*
X349Y485D01*
X1292Y485D02*
X1299Y485D01*
X0Y484D02*
X7Y484D01*
X173Y484D02*
X180Y484D01*
X191Y484D02*
X198Y484D01*
X233Y484D02*
X239Y484D01*
X269Y484D02*
X275Y484D01*
X297Y484D02*
X303Y484D01*
X340Y484D02*
X348Y484D01*
X1292Y484D02*
X1299Y484D01*
X0Y483D02*
X7Y483D01*
X174Y483D02*
X181Y483D01*
X190Y483D02*
X197Y483D01*
X233Y483D02*
X239Y483D01*
X269Y483D02*
X275Y483D01*
X297Y483D02*
X303Y483D01*
X340Y483D02*
X347Y483D01*
X652Y483D02*
X652Y483D01*
X1292Y483D02*
X1299Y483D01*
X0Y482D02*
X7Y482D01*
X174Y482D02*
X181Y482D01*
X190Y482D02*
X197Y482D01*
X233Y482D02*
X239Y482D01*
X269Y482D02*
X275Y482D01*
X297Y482D02*
X303Y482D01*
X339Y482D02*
X347Y482D01*
X651Y482D02*
X653Y482D01*
X1292Y482D02*
X1299Y482D01*
X0Y481D02*
X7Y481D01*
X175Y481D02*
X182Y481D01*
X189Y481D02*
X196Y481D01*
X233Y481D02*
X239Y481D01*
X269Y481D02*
X275Y481D01*
X297Y481D02*
X303Y481D01*
X338Y481D02*
X346Y481D01*
X650Y481D02*
X654Y481D01*
X1292Y481D02*
X1299Y481D01*
X0Y480D02*
X7Y480D01*
X175Y480D02*
X182Y480D01*
X189Y480D02*
X196Y480D01*
X233Y480D02*
X239Y480D01*
X269Y480D02*
X275Y480D01*
X297Y480D02*
X303Y480D01*
X337Y480D02*
X345Y480D01*
X650Y480D02*
X655Y480D01*
X1292Y480D02*
X1299Y480D01*
X0Y479D02*
X7Y479D01*
X176Y479D02*
X183Y479D01*
X188Y479D02*
X195Y479D01*
X233Y479D02*
X239Y479D01*
X269Y479D02*
X276Y479D01*
X297Y479D02*
X303Y479D01*
X336Y479D02*
X344Y479D01*
X650Y479D02*
X656Y479D01*
X1292Y479D02*
X1299Y479D01*
X0Y478D02*
X7Y478D01*
X176Y478D02*
X183Y478D01*
X188Y478D02*
X195Y478D01*
X233Y478D02*
X239Y478D01*
X269Y478D02*
X276Y478D01*
X297Y478D02*
X303Y478D01*
X335Y478D02*
X344Y478D01*
X651Y478D02*
X657Y478D01*
X1292Y478D02*
X1299Y478D01*
X0Y477D02*
X7Y477D01*
X177Y477D02*
X194Y477D01*
X222Y477D02*
X249Y477D01*
X270Y477D02*
X303Y477D01*
X323Y477D02*
X343Y477D01*
X652Y477D02*
X658Y477D01*
X1292Y477D02*
X1299Y477D01*
X0Y476D02*
X7Y476D01*
X177Y476D02*
X194Y476D01*
X220Y476D02*
X251Y476D01*
X270Y476D02*
X303Y476D01*
X320Y476D02*
X342Y476D01*
X653Y476D02*
X659Y476D01*
X1292Y476D02*
X1299Y476D01*
X0Y475D02*
X7Y475D01*
X178Y475D02*
X193Y475D01*
X219Y475D02*
X252Y475D01*
X271Y475D02*
X303Y475D01*
X320Y475D02*
X341Y475D01*
X654Y475D02*
X660Y475D01*
X1292Y475D02*
X1299Y475D01*
X0Y474D02*
X7Y474D01*
X179Y474D02*
X192Y474D01*
X219Y474D02*
X252Y474D01*
X271Y474D02*
X303Y474D01*
X319Y474D02*
X340Y474D01*
X655Y474D02*
X661Y474D01*
X1292Y474D02*
X1299Y474D01*
X0Y473D02*
X7Y473D01*
X179Y473D02*
X192Y473D01*
X219Y473D02*
X252Y473D01*
X272Y473D02*
X303Y473D01*
X319Y473D02*
X339Y473D01*
X656Y473D02*
X662Y473D01*
X1292Y473D02*
X1299Y473D01*
X0Y472D02*
X7Y472D01*
X180Y472D02*
X190Y472D01*
X219Y472D02*
X252Y472D01*
X274Y472D02*
X303Y472D01*
X320Y472D02*
X338Y472D01*
X657Y472D02*
X663Y472D01*
X1292Y472D02*
X1299Y472D01*
X0Y471D02*
X7Y471D01*
X182Y471D02*
X189Y471D01*
X220Y471D02*
X251Y471D01*
X275Y471D02*
X303Y471D01*
X320Y471D02*
X337Y471D01*
X658Y471D02*
X664Y471D01*
X1292Y471D02*
X1299Y471D01*
X0Y470D02*
X7Y470D01*
X659Y470D02*
X665Y470D01*
X1292Y470D02*
X1299Y470D01*
X0Y469D02*
X7Y469D01*
X660Y469D02*
X666Y469D01*
X1292Y469D02*
X1299Y469D01*
X0Y468D02*
X7Y468D01*
X661Y468D02*
X667Y468D01*
X1292Y468D02*
X1299Y468D01*
X0Y467D02*
X7Y467D01*
X662Y467D02*
X668Y467D01*
X1292Y467D02*
X1299Y467D01*
X0Y466D02*
X7Y466D01*
X664Y466D02*
X669Y466D01*
X1292Y466D02*
X1299Y466D01*
X0Y465D02*
X7Y465D01*
X665Y465D02*
X670Y465D01*
X1292Y465D02*
X1299Y465D01*
X0Y464D02*
X7Y464D01*
X666Y464D02*
X671Y464D01*
X1292Y464D02*
X1299Y464D01*
X0Y463D02*
X7Y463D01*
X667Y463D02*
X672Y463D01*
X1292Y463D02*
X1299Y463D01*
X0Y462D02*
X7Y462D01*
X668Y462D02*
X673Y462D01*
X1292Y462D02*
X1299Y462D01*
X0Y461D02*
X7Y461D01*
X669Y461D02*
X674Y461D01*
X1292Y461D02*
X1299Y461D01*
X0Y460D02*
X7Y460D01*
X670Y460D02*
X675Y460D01*
X1292Y460D02*
X1299Y460D01*
X0Y459D02*
X7Y459D01*
X671Y459D02*
X676Y459D01*
X1292Y459D02*
X1299Y459D01*
X0Y458D02*
X7Y458D01*
X671Y458D02*
X677Y458D01*
X1292Y458D02*
X1299Y458D01*
X0Y457D02*
X7Y457D01*
X672Y457D02*
X678Y457D01*
X1292Y457D02*
X1299Y457D01*
X0Y456D02*
X7Y456D01*
X673Y456D02*
X679Y456D01*
X1292Y456D02*
X1299Y456D01*
X0Y455D02*
X7Y455D01*
X674Y455D02*
X680Y455D01*
X1292Y455D02*
X1299Y455D01*
X0Y454D02*
X7Y454D01*
X675Y454D02*
X681Y454D01*
X1292Y454D02*
X1299Y454D01*
X0Y453D02*
X7Y453D01*
X676Y453D02*
X682Y453D01*
X1292Y453D02*
X1299Y453D01*
X0Y452D02*
X7Y452D01*
X677Y452D02*
X683Y452D01*
X1292Y452D02*
X1299Y452D01*
X0Y451D02*
X7Y451D01*
X678Y451D02*
X684Y451D01*
X1292Y451D02*
X1299Y451D01*
X0Y450D02*
X7Y450D01*
X679Y450D02*
X685Y450D01*
X1292Y450D02*
X1299Y450D01*
X0Y449D02*
X7Y449D01*
X680Y449D02*
X686Y449D01*
X1292Y449D02*
X1299Y449D01*
X0Y448D02*
X7Y448D01*
X55Y448D02*
X57Y448D01*
X81Y448D02*
X102Y448D01*
X681Y448D02*
X686Y448D01*
X1292Y448D02*
X1299Y448D01*
X0Y447D02*
X7Y447D01*
X54Y447D02*
X58Y447D01*
X79Y447D02*
X103Y447D01*
X682Y447D02*
X685Y447D01*
X1292Y447D02*
X1299Y447D01*
X0Y446D02*
X7Y446D01*
X53Y446D02*
X59Y446D01*
X78Y446D02*
X104Y446D01*
X683Y446D02*
X684Y446D01*
X1292Y446D02*
X1299Y446D01*
X0Y445D02*
X7Y445D01*
X53Y445D02*
X59Y445D01*
X78Y445D02*
X105Y445D01*
X1292Y445D02*
X1299Y445D01*
X0Y444D02*
X7Y444D01*
X53Y444D02*
X59Y444D01*
X77Y444D02*
X106Y444D01*
X1292Y444D02*
X1299Y444D01*
X0Y443D02*
X7Y443D01*
X53Y443D02*
X59Y443D01*
X77Y443D02*
X106Y443D01*
X1292Y443D02*
X1299Y443D01*
X0Y442D02*
X7Y442D01*
X53Y442D02*
X59Y442D01*
X77Y442D02*
X106Y442D01*
X1292Y442D02*
X1299Y442D01*
X0Y441D02*
X7Y441D01*
X53Y441D02*
X59Y441D01*
X77Y441D02*
X83Y441D01*
X100Y441D02*
X106Y441D01*
X1292Y441D02*
X1299Y441D01*
X0Y440D02*
X7Y440D01*
X53Y440D02*
X59Y440D01*
X77Y440D02*
X83Y440D01*
X100Y440D02*
X106Y440D01*
X1292Y440D02*
X1299Y440D01*
X0Y439D02*
X7Y439D01*
X53Y439D02*
X59Y439D01*
X77Y439D02*
X83Y439D01*
X100Y439D02*
X106Y439D01*
X1292Y439D02*
X1299Y439D01*
X0Y438D02*
X7Y438D01*
X53Y438D02*
X59Y438D01*
X77Y438D02*
X83Y438D01*
X100Y438D02*
X106Y438D01*
X1292Y438D02*
X1299Y438D01*
X0Y437D02*
X7Y437D01*
X53Y437D02*
X59Y437D01*
X77Y437D02*
X83Y437D01*
X100Y437D02*
X106Y437D01*
X1292Y437D02*
X1299Y437D01*
X0Y436D02*
X7Y436D01*
X53Y436D02*
X59Y436D01*
X77Y436D02*
X83Y436D01*
X100Y436D02*
X106Y436D01*
X1292Y436D02*
X1299Y436D01*
X0Y435D02*
X7Y435D01*
X53Y435D02*
X59Y435D01*
X77Y435D02*
X83Y435D01*
X100Y435D02*
X106Y435D01*
X1292Y435D02*
X1299Y435D01*
X0Y434D02*
X7Y434D01*
X53Y434D02*
X59Y434D01*
X77Y434D02*
X83Y434D01*
X100Y434D02*
X106Y434D01*
X1292Y434D02*
X1299Y434D01*
X0Y433D02*
X7Y433D01*
X53Y433D02*
X59Y433D01*
X77Y433D02*
X83Y433D01*
X100Y433D02*
X106Y433D01*
X1292Y433D02*
X1299Y433D01*
X0Y432D02*
X7Y432D01*
X53Y432D02*
X59Y432D01*
X77Y432D02*
X83Y432D01*
X100Y432D02*
X106Y432D01*
X1292Y432D02*
X1299Y432D01*
X0Y431D02*
X7Y431D01*
X53Y431D02*
X59Y431D01*
X77Y431D02*
X83Y431D01*
X100Y431D02*
X106Y431D01*
X1292Y431D02*
X1299Y431D01*
X0Y430D02*
X7Y430D01*
X53Y430D02*
X59Y430D01*
X77Y430D02*
X83Y430D01*
X100Y430D02*
X106Y430D01*
X1292Y430D02*
X1299Y430D01*
X0Y429D02*
X7Y429D01*
X53Y429D02*
X59Y429D01*
X77Y429D02*
X83Y429D01*
X100Y429D02*
X106Y429D01*
X1292Y429D02*
X1299Y429D01*
X0Y428D02*
X7Y428D01*
X53Y428D02*
X59Y428D01*
X76Y428D02*
X83Y428D01*
X100Y428D02*
X106Y428D01*
X1292Y428D02*
X1299Y428D01*
X0Y427D02*
X7Y427D01*
X53Y427D02*
X83Y427D01*
X100Y427D02*
X106Y427D01*
X1292Y427D02*
X1299Y427D01*
X0Y426D02*
X7Y426D01*
X53Y426D02*
X83Y426D01*
X100Y426D02*
X106Y426D01*
X1292Y426D02*
X1299Y426D01*
X0Y425D02*
X7Y425D01*
X53Y425D02*
X83Y425D01*
X100Y425D02*
X106Y425D01*
X1292Y425D02*
X1299Y425D01*
X0Y424D02*
X7Y424D01*
X53Y424D02*
X83Y424D01*
X100Y424D02*
X106Y424D01*
X1292Y424D02*
X1299Y424D01*
X0Y423D02*
X7Y423D01*
X53Y423D02*
X83Y423D01*
X99Y423D02*
X106Y423D01*
X1292Y423D02*
X1299Y423D01*
X0Y422D02*
X7Y422D01*
X53Y422D02*
X83Y422D01*
X99Y422D02*
X106Y422D01*
X1292Y422D02*
X1299Y422D01*
X0Y421D02*
X7Y421D01*
X53Y421D02*
X82Y421D01*
X98Y421D02*
X105Y421D01*
X1292Y421D02*
X1299Y421D01*
X0Y420D02*
X7Y420D01*
X98Y420D02*
X105Y420D01*
X1292Y420D02*
X1299Y420D01*
X0Y419D02*
X7Y419D01*
X98Y419D02*
X104Y419D01*
X1292Y419D02*
X1299Y419D01*
X0Y418D02*
X7Y418D01*
X97Y418D02*
X104Y418D01*
X1292Y418D02*
X1299Y418D01*
X0Y417D02*
X7Y417D01*
X97Y417D02*
X103Y417D01*
X1292Y417D02*
X1299Y417D01*
X0Y416D02*
X7Y416D01*
X98Y416D02*
X103Y416D01*
X1292Y416D02*
X1299Y416D01*
X0Y415D02*
X7Y415D01*
X98Y415D02*
X102Y415D01*
X1292Y415D02*
X1299Y415D01*
X0Y414D02*
X7Y414D01*
X1292Y414D02*
X1299Y414D01*
X0Y413D02*
X7Y413D01*
X1292Y413D02*
X1299Y413D01*
X0Y412D02*
X7Y412D01*
X1292Y412D02*
X1299Y412D01*
X0Y411D02*
X7Y411D01*
X1292Y411D02*
X1299Y411D01*
X0Y410D02*
X7Y410D01*
X1292Y410D02*
X1299Y410D01*
X0Y409D02*
X7Y409D01*
X1292Y409D02*
X1299Y409D01*
X0Y408D02*
X7Y408D01*
X1292Y408D02*
X1299Y408D01*
X0Y407D02*
X7Y407D01*
X1292Y407D02*
X1299Y407D01*
X0Y406D02*
X7Y406D01*
X1292Y406D02*
X1299Y406D01*
X0Y405D02*
X7Y405D01*
X1292Y405D02*
X1299Y405D01*
X0Y404D02*
X7Y404D01*
X1292Y404D02*
X1299Y404D01*
X0Y403D02*
X7Y403D01*
X1292Y403D02*
X1299Y403D01*
X0Y402D02*
X7Y402D01*
X1292Y402D02*
X1299Y402D01*
X0Y401D02*
X7Y401D01*
X1292Y401D02*
X1299Y401D01*
X0Y400D02*
X7Y400D01*
X1292Y400D02*
X1299Y400D01*
X0Y399D02*
X7Y399D01*
X1292Y399D02*
X1299Y399D01*
X0Y398D02*
X7Y398D01*
X77Y398D02*
X82Y398D01*
X1292Y398D02*
X1299Y398D01*
X0Y397D02*
X7Y397D01*
X74Y397D02*
X85Y397D01*
X1292Y397D02*
X1299Y397D01*
X0Y396D02*
X7Y396D01*
X72Y396D02*
X88Y396D01*
X1292Y396D02*
X1299Y396D01*
X0Y395D02*
X7Y395D01*
X70Y395D02*
X90Y395D01*
X1292Y395D02*
X1299Y395D01*
X0Y394D02*
X7Y394D01*
X68Y394D02*
X92Y394D01*
X1292Y394D02*
X1299Y394D01*
X0Y393D02*
X7Y393D01*
X66Y393D02*
X94Y393D01*
X1292Y393D02*
X1299Y393D01*
X0Y392D02*
X7Y392D01*
X64Y392D02*
X96Y392D01*
X1292Y392D02*
X1299Y392D01*
X0Y391D02*
X7Y391D01*
X62Y391D02*
X77Y391D01*
X82Y391D02*
X98Y391D01*
X1292Y391D02*
X1299Y391D01*
X0Y390D02*
X7Y390D01*
X60Y390D02*
X74Y390D01*
X85Y390D02*
X100Y390D01*
X1292Y390D02*
X1299Y390D01*
X0Y389D02*
X7Y389D01*
X58Y389D02*
X72Y389D01*
X87Y389D02*
X101Y389D01*
X1292Y389D02*
X1299Y389D01*
X0Y388D02*
X7Y388D01*
X57Y388D02*
X70Y388D01*
X89Y388D02*
X103Y388D01*
X1292Y388D02*
X1299Y388D01*
X0Y387D02*
X7Y387D01*
X56Y387D02*
X69Y387D01*
X91Y387D02*
X104Y387D01*
X1292Y387D02*
X1299Y387D01*
X0Y386D02*
X7Y386D01*
X55Y386D02*
X67Y386D01*
X93Y386D02*
X104Y386D01*
X1292Y386D02*
X1299Y386D01*
X0Y385D02*
X7Y385D01*
X54Y385D02*
X65Y385D01*
X95Y385D02*
X105Y385D01*
X1292Y385D02*
X1299Y385D01*
X0Y384D02*
X7Y384D01*
X54Y384D02*
X63Y384D01*
X97Y384D02*
X105Y384D01*
X1292Y384D02*
X1299Y384D01*
X0Y383D02*
X7Y383D01*
X53Y383D02*
X61Y383D01*
X99Y383D02*
X106Y383D01*
X1292Y383D02*
X1299Y383D01*
X0Y382D02*
X7Y382D01*
X53Y382D02*
X60Y382D01*
X100Y382D02*
X106Y382D01*
X1292Y382D02*
X1299Y382D01*
X0Y381D02*
X7Y381D01*
X53Y381D02*
X59Y381D01*
X100Y381D02*
X106Y381D01*
X1292Y381D02*
X1299Y381D01*
X0Y380D02*
X7Y380D01*
X53Y380D02*
X59Y380D01*
X100Y380D02*
X106Y380D01*
X1292Y380D02*
X1299Y380D01*
X0Y379D02*
X7Y379D01*
X53Y379D02*
X59Y379D01*
X100Y379D02*
X106Y379D01*
X1292Y379D02*
X1299Y379D01*
X0Y378D02*
X7Y378D01*
X53Y378D02*
X59Y378D01*
X100Y378D02*
X106Y378D01*
X1292Y378D02*
X1299Y378D01*
X0Y377D02*
X7Y377D01*
X53Y377D02*
X106Y377D01*
X1292Y377D02*
X1299Y377D01*
X0Y376D02*
X7Y376D01*
X53Y376D02*
X106Y376D01*
X1292Y376D02*
X1299Y376D01*
X0Y375D02*
X7Y375D01*
X53Y375D02*
X106Y375D01*
X1292Y375D02*
X1299Y375D01*
X0Y374D02*
X7Y374D01*
X53Y374D02*
X106Y374D01*
X1292Y374D02*
X1299Y374D01*
X0Y373D02*
X7Y373D01*
X53Y373D02*
X106Y373D01*
X1292Y373D02*
X1299Y373D01*
X0Y372D02*
X7Y372D01*
X53Y372D02*
X106Y372D01*
X1292Y372D02*
X1299Y372D01*
X0Y371D02*
X7Y371D01*
X53Y371D02*
X106Y371D01*
X1292Y371D02*
X1299Y371D01*
X0Y370D02*
X7Y370D01*
X53Y370D02*
X59Y370D01*
X100Y370D02*
X106Y370D01*
X1292Y370D02*
X1299Y370D01*
X0Y369D02*
X7Y369D01*
X53Y369D02*
X59Y369D01*
X100Y369D02*
X106Y369D01*
X1292Y369D02*
X1299Y369D01*
X0Y368D02*
X7Y368D01*
X53Y368D02*
X59Y368D01*
X100Y368D02*
X106Y368D01*
X1292Y368D02*
X1299Y368D01*
X0Y367D02*
X7Y367D01*
X53Y367D02*
X59Y367D01*
X100Y367D02*
X106Y367D01*
X1292Y367D02*
X1299Y367D01*
X0Y366D02*
X7Y366D01*
X53Y366D02*
X59Y366D01*
X100Y366D02*
X106Y366D01*
X1292Y366D02*
X1299Y366D01*
X0Y365D02*
X7Y365D01*
X54Y365D02*
X58Y365D01*
X101Y365D02*
X105Y365D01*
X1292Y365D02*
X1299Y365D01*
X0Y364D02*
X7Y364D01*
X55Y364D02*
X57Y364D01*
X103Y364D02*
X104Y364D01*
X1292Y364D02*
X1299Y364D01*
X0Y363D02*
X7Y363D01*
X1292Y363D02*
X1299Y363D01*
X0Y362D02*
X7Y362D01*
X1292Y362D02*
X1299Y362D01*
X0Y361D02*
X7Y361D01*
X1292Y361D02*
X1299Y361D01*
X0Y360D02*
X7Y360D01*
X1292Y360D02*
X1299Y360D01*
X0Y359D02*
X7Y359D01*
X1292Y359D02*
X1299Y359D01*
X0Y358D02*
X7Y358D01*
X1292Y358D02*
X1299Y358D01*
X0Y357D02*
X7Y357D01*
X1292Y357D02*
X1299Y357D01*
X0Y356D02*
X7Y356D01*
X1292Y356D02*
X1299Y356D01*
X0Y355D02*
X7Y355D01*
X1292Y355D02*
X1299Y355D01*
X0Y354D02*
X7Y354D01*
X1292Y354D02*
X1299Y354D01*
X0Y353D02*
X7Y353D01*
X1292Y353D02*
X1299Y353D01*
X0Y352D02*
X7Y352D01*
X1292Y352D02*
X1299Y352D01*
X0Y351D02*
X7Y351D01*
X1292Y351D02*
X1299Y351D01*
X0Y350D02*
X7Y350D01*
X1292Y350D02*
X1299Y350D01*
X0Y349D02*
X7Y349D01*
X1292Y349D02*
X1299Y349D01*
X0Y348D02*
X7Y348D01*
X1292Y348D02*
X1299Y348D01*
X0Y347D02*
X7Y347D01*
X1292Y347D02*
X1299Y347D01*
X0Y346D02*
X7Y346D01*
X1292Y346D02*
X1299Y346D01*
X0Y345D02*
X7Y345D01*
X1292Y345D02*
X1299Y345D01*
X0Y344D02*
X7Y344D01*
X1292Y344D02*
X1299Y344D01*
X0Y343D02*
X7Y343D01*
X1292Y343D02*
X1299Y343D01*
X0Y342D02*
X7Y342D01*
X1292Y342D02*
X1299Y342D01*
X0Y341D02*
X7Y341D01*
X1292Y341D02*
X1299Y341D01*
X0Y340D02*
X7Y340D01*
X1292Y340D02*
X1299Y340D01*
X0Y339D02*
X7Y339D01*
X1292Y339D02*
X1299Y339D01*
X0Y338D02*
X7Y338D01*
X1292Y338D02*
X1299Y338D01*
X0Y337D02*
X7Y337D01*
X1292Y337D02*
X1299Y337D01*
X0Y336D02*
X7Y336D01*
X1292Y336D02*
X1299Y336D01*
X0Y335D02*
X7Y335D01*
X1292Y335D02*
X1299Y335D01*
X0Y334D02*
X7Y334D01*
X1292Y334D02*
X1299Y334D01*
X0Y333D02*
X7Y333D01*
X1292Y333D02*
X1299Y333D01*
X0Y332D02*
X7Y332D01*
X1292Y332D02*
X1299Y332D01*
X0Y331D02*
X7Y331D01*
X1292Y331D02*
X1299Y331D01*
X0Y330D02*
X7Y330D01*
X1292Y330D02*
X1299Y330D01*
X0Y329D02*
X7Y329D01*
X1292Y329D02*
X1299Y329D01*
X0Y328D02*
X7Y328D01*
X1292Y328D02*
X1299Y328D01*
X0Y327D02*
X7Y327D01*
X1292Y327D02*
X1299Y327D01*
X0Y326D02*
X7Y326D01*
X1292Y326D02*
X1299Y326D01*
X0Y325D02*
X7Y325D01*
X1292Y325D02*
X1299Y325D01*
X0Y324D02*
X7Y324D01*
X1292Y324D02*
X1299Y324D01*
X0Y323D02*
X7Y323D01*
X1292Y323D02*
X1299Y323D01*
X0Y322D02*
X7Y322D01*
X1292Y322D02*
X1299Y322D01*
X0Y321D02*
X7Y321D01*
X1292Y321D02*
X1299Y321D01*
X0Y320D02*
X7Y320D01*
X1292Y320D02*
X1299Y320D01*
X0Y319D02*
X7Y319D01*
X1292Y319D02*
X1299Y319D01*
X0Y318D02*
X7Y318D01*
X1292Y318D02*
X1299Y318D01*
X0Y317D02*
X7Y317D01*
X1292Y317D02*
X1299Y317D01*
X0Y316D02*
X7Y316D01*
X1292Y316D02*
X1299Y316D01*
X0Y315D02*
X7Y315D01*
X1292Y315D02*
X1299Y315D01*
X0Y314D02*
X7Y314D01*
X1292Y314D02*
X1299Y314D01*
X0Y313D02*
X7Y313D01*
X1292Y313D02*
X1299Y313D01*
X0Y312D02*
X7Y312D01*
X1292Y312D02*
X1299Y312D01*
X0Y311D02*
X7Y311D01*
X1292Y311D02*
X1299Y311D01*
X0Y310D02*
X7Y310D01*
X1292Y310D02*
X1299Y310D01*
X0Y309D02*
X7Y309D01*
X1292Y309D02*
X1299Y309D01*
X0Y308D02*
X7Y308D01*
X1292Y308D02*
X1299Y308D01*
X0Y307D02*
X7Y307D01*
X1292Y307D02*
X1299Y307D01*
X0Y306D02*
X7Y306D01*
X1292Y306D02*
X1299Y306D01*
X0Y305D02*
X7Y305D01*
X1292Y305D02*
X1299Y305D01*
X0Y304D02*
X7Y304D01*
X1292Y304D02*
X1299Y304D01*
X0Y303D02*
X7Y303D01*
X1292Y303D02*
X1299Y303D01*
X0Y302D02*
X7Y302D01*
X1292Y302D02*
X1299Y302D01*
X0Y301D02*
X7Y301D01*
X1292Y301D02*
X1299Y301D01*
X0Y300D02*
X7Y300D01*
X1292Y300D02*
X1299Y300D01*
X0Y299D02*
X7Y299D01*
X1292Y299D02*
X1299Y299D01*
X0Y298D02*
X7Y298D01*
X1292Y298D02*
X1299Y298D01*
X0Y297D02*
X7Y297D01*
X1292Y297D02*
X1299Y297D01*
X0Y296D02*
X7Y296D01*
X1292Y296D02*
X1299Y296D01*
X0Y295D02*
X7Y295D01*
X1292Y295D02*
X1299Y295D01*
X0Y294D02*
X7Y294D01*
X1292Y294D02*
X1299Y294D01*
X0Y293D02*
X7Y293D01*
X1292Y293D02*
X1299Y293D01*
X0Y292D02*
X7Y292D01*
X1292Y292D02*
X1299Y292D01*
X0Y291D02*
X7Y291D01*
X1292Y291D02*
X1299Y291D01*
X0Y290D02*
X7Y290D01*
X1292Y290D02*
X1299Y290D01*
X0Y289D02*
X7Y289D01*
X1292Y289D02*
X1299Y289D01*
X0Y288D02*
X7Y288D01*
X1292Y288D02*
X1299Y288D01*
X0Y287D02*
X7Y287D01*
X1292Y287D02*
X1299Y287D01*
X0Y286D02*
X7Y286D01*
X1292Y286D02*
X1299Y286D01*
X0Y285D02*
X7Y285D01*
X1292Y285D02*
X1299Y285D01*
X0Y284D02*
X7Y284D01*
X1292Y284D02*
X1299Y284D01*
X0Y283D02*
X7Y283D01*
X1292Y283D02*
X1299Y283D01*
X0Y282D02*
X7Y282D01*
X1292Y282D02*
X1299Y282D01*
X0Y281D02*
X7Y281D01*
X1292Y281D02*
X1299Y281D01*
X0Y280D02*
X7Y280D01*
X1292Y280D02*
X1299Y280D01*
X0Y279D02*
X7Y279D01*
X1292Y279D02*
X1299Y279D01*
X0Y278D02*
X7Y278D01*
X1292Y278D02*
X1299Y278D01*
X0Y277D02*
X7Y277D01*
X1292Y277D02*
X1299Y277D01*
X0Y276D02*
X7Y276D01*
X1292Y276D02*
X1299Y276D01*
X0Y275D02*
X7Y275D01*
X1292Y275D02*
X1299Y275D01*
X0Y274D02*
X7Y274D01*
X1292Y274D02*
X1299Y274D01*
X0Y273D02*
X7Y273D01*
X1292Y273D02*
X1299Y273D01*
X0Y272D02*
X7Y272D01*
X1292Y272D02*
X1299Y272D01*
X0Y271D02*
X7Y271D01*
X1292Y271D02*
X1299Y271D01*
X0Y270D02*
X7Y270D01*
X1292Y270D02*
X1299Y270D01*
X0Y269D02*
X7Y269D01*
X1292Y269D02*
X1299Y269D01*
X0Y268D02*
X7Y268D01*
X1292Y268D02*
X1299Y268D01*
X0Y267D02*
X7Y267D01*
X1292Y267D02*
X1299Y267D01*
X0Y266D02*
X7Y266D01*
X1292Y266D02*
X1299Y266D01*
X0Y265D02*
X7Y265D01*
X1292Y265D02*
X1299Y265D01*
X0Y264D02*
X7Y264D01*
X1292Y264D02*
X1299Y264D01*
X0Y263D02*
X7Y263D01*
X1292Y263D02*
X1299Y263D01*
X0Y262D02*
X7Y262D01*
X1292Y262D02*
X1299Y262D01*
X0Y261D02*
X7Y261D01*
X1292Y261D02*
X1299Y261D01*
X0Y260D02*
X7Y260D01*
X1292Y260D02*
X1299Y260D01*
X0Y259D02*
X7Y259D01*
X1292Y259D02*
X1299Y259D01*
X0Y258D02*
X7Y258D01*
X1292Y258D02*
X1299Y258D01*
X0Y257D02*
X7Y257D01*
X1292Y257D02*
X1299Y257D01*
X0Y256D02*
X7Y256D01*
X1292Y256D02*
X1299Y256D01*
X0Y255D02*
X7Y255D01*
X1292Y255D02*
X1299Y255D01*
X0Y254D02*
X7Y254D01*
X1292Y254D02*
X1299Y254D01*
X0Y253D02*
X7Y253D01*
X1292Y253D02*
X1299Y253D01*
X0Y252D02*
X7Y252D01*
X1292Y252D02*
X1299Y252D01*
X0Y251D02*
X7Y251D01*
X1292Y251D02*
X1299Y251D01*
X0Y250D02*
X7Y250D01*
X1292Y250D02*
X1299Y250D01*
X0Y249D02*
X7Y249D01*
X1292Y249D02*
X1299Y249D01*
X0Y248D02*
X7Y248D01*
X1292Y248D02*
X1299Y248D01*
X0Y247D02*
X7Y247D01*
X1292Y247D02*
X1299Y247D01*
X0Y246D02*
X7Y246D01*
X1292Y246D02*
X1299Y246D01*
X0Y245D02*
X7Y245D01*
X1292Y245D02*
X1299Y245D01*
X0Y244D02*
X7Y244D01*
X1292Y244D02*
X1299Y244D01*
X0Y243D02*
X7Y243D01*
X1292Y243D02*
X1299Y243D01*
X0Y242D02*
X7Y242D01*
X1292Y242D02*
X1299Y242D01*
X0Y241D02*
X7Y241D01*
X1292Y241D02*
X1299Y241D01*
X0Y240D02*
X7Y240D01*
X1292Y240D02*
X1299Y240D01*
X0Y239D02*
X7Y239D01*
X1292Y239D02*
X1299Y239D01*
X0Y238D02*
X7Y238D01*
X1292Y238D02*
X1299Y238D01*
X0Y237D02*
X7Y237D01*
X1292Y237D02*
X1299Y237D01*
X0Y236D02*
X7Y236D01*
X1292Y236D02*
X1299Y236D01*
X0Y235D02*
X7Y235D01*
X1292Y235D02*
X1299Y235D01*
X0Y234D02*
X7Y234D01*
X1292Y234D02*
X1299Y234D01*
X0Y233D02*
X7Y233D01*
X1292Y233D02*
X1299Y233D01*
X0Y232D02*
X7Y232D01*
X1292Y232D02*
X1299Y232D01*
X0Y231D02*
X7Y231D01*
X1292Y231D02*
X1299Y231D01*
X0Y230D02*
X7Y230D01*
X1292Y230D02*
X1299Y230D01*
X0Y229D02*
X7Y229D01*
X1292Y229D02*
X1299Y229D01*
X0Y228D02*
X7Y228D01*
X1292Y228D02*
X1299Y228D01*
X0Y227D02*
X7Y227D01*
X1292Y227D02*
X1299Y227D01*
X0Y226D02*
X7Y226D01*
X1292Y226D02*
X1299Y226D01*
X0Y225D02*
X7Y225D01*
X1292Y225D02*
X1299Y225D01*
X0Y224D02*
X7Y224D01*
X1292Y224D02*
X1299Y224D01*
X0Y223D02*
X7Y223D01*
X1292Y223D02*
X1299Y223D01*
X0Y222D02*
X7Y222D01*
X1292Y222D02*
X1299Y222D01*
X0Y221D02*
X7Y221D01*
X1292Y221D02*
X1299Y221D01*
X0Y220D02*
X7Y220D01*
X1292Y220D02*
X1299Y220D01*
X0Y219D02*
X7Y219D01*
X1292Y219D02*
X1299Y219D01*
X0Y218D02*
X7Y218D01*
X1292Y218D02*
X1299Y218D01*
X0Y217D02*
X7Y217D01*
X1292Y217D02*
X1299Y217D01*
X0Y216D02*
X7Y216D01*
X1292Y216D02*
X1299Y216D01*
X0Y215D02*
X7Y215D01*
X1292Y215D02*
X1299Y215D01*
X0Y214D02*
X7Y214D01*
X1292Y214D02*
X1299Y214D01*
X0Y213D02*
X7Y213D01*
X1292Y213D02*
X1299Y213D01*
X0Y212D02*
X7Y212D01*
X1292Y212D02*
X1299Y212D01*
X0Y211D02*
X7Y211D01*
X1292Y211D02*
X1299Y211D01*
X0Y210D02*
X7Y210D01*
X1292Y210D02*
X1299Y210D01*
X0Y209D02*
X7Y209D01*
X1292Y209D02*
X1299Y209D01*
X0Y208D02*
X7Y208D01*
X1292Y208D02*
X1299Y208D01*
X0Y207D02*
X7Y207D01*
X1292Y207D02*
X1299Y207D01*
X0Y206D02*
X7Y206D01*
X1292Y206D02*
X1299Y206D01*
X0Y205D02*
X7Y205D01*
X1292Y205D02*
X1299Y205D01*
X0Y204D02*
X7Y204D01*
X1292Y204D02*
X1299Y204D01*
X0Y203D02*
X7Y203D01*
X1292Y203D02*
X1299Y203D01*
X0Y202D02*
X7Y202D01*
X1292Y202D02*
X1299Y202D01*
X0Y201D02*
X7Y201D01*
X1292Y201D02*
X1299Y201D01*
X0Y200D02*
X7Y200D01*
X1292Y200D02*
X1299Y200D01*
X0Y199D02*
X7Y199D01*
X1292Y199D02*
X1299Y199D01*
X0Y198D02*
X7Y198D01*
X1292Y198D02*
X1299Y198D01*
X0Y197D02*
X7Y197D01*
X1292Y197D02*
X1299Y197D01*
X0Y196D02*
X7Y196D01*
X1292Y196D02*
X1299Y196D01*
X0Y195D02*
X7Y195D01*
X1292Y195D02*
X1299Y195D01*
X0Y194D02*
X7Y194D01*
X1292Y194D02*
X1299Y194D01*
X0Y193D02*
X7Y193D01*
X1292Y193D02*
X1299Y193D01*
X0Y192D02*
X7Y192D01*
X1292Y192D02*
X1299Y192D01*
X0Y191D02*
X7Y191D01*
X1292Y191D02*
X1299Y191D01*
X0Y190D02*
X7Y190D01*
X1292Y190D02*
X1299Y190D01*
X0Y189D02*
X7Y189D01*
X1292Y189D02*
X1299Y189D01*
X0Y188D02*
X7Y188D01*
X1292Y188D02*
X1299Y188D01*
X0Y187D02*
X7Y187D01*
X1292Y187D02*
X1299Y187D01*
X0Y186D02*
X7Y186D01*
X1292Y186D02*
X1299Y186D01*
X0Y185D02*
X7Y185D01*
X1292Y185D02*
X1299Y185D01*
X0Y184D02*
X7Y184D01*
X1292Y184D02*
X1299Y184D01*
X0Y183D02*
X7Y183D01*
X1292Y183D02*
X1299Y183D01*
X0Y182D02*
X7Y182D01*
X1292Y182D02*
X1299Y182D01*
X0Y181D02*
X7Y181D01*
X1292Y181D02*
X1299Y181D01*
X0Y180D02*
X7Y180D01*
X1292Y180D02*
X1299Y180D01*
X0Y179D02*
X7Y179D01*
X1292Y179D02*
X1299Y179D01*
X0Y178D02*
X7Y178D01*
X1292Y178D02*
X1299Y178D01*
X0Y177D02*
X7Y177D01*
X1292Y177D02*
X1299Y177D01*
X0Y176D02*
X7Y176D01*
X1292Y176D02*
X1299Y176D01*
X0Y175D02*
X7Y175D01*
X1292Y175D02*
X1299Y175D01*
X0Y174D02*
X7Y174D01*
X1292Y174D02*
X1299Y174D01*
X0Y173D02*
X7Y173D01*
X1292Y173D02*
X1299Y173D01*
X0Y172D02*
X7Y172D01*
X1292Y172D02*
X1299Y172D01*
X0Y171D02*
X7Y171D01*
X1292Y171D02*
X1299Y171D01*
X0Y170D02*
X7Y170D01*
X1292Y170D02*
X1299Y170D01*
X0Y169D02*
X7Y169D01*
X1292Y169D02*
X1299Y169D01*
X0Y168D02*
X7Y168D01*
X1292Y168D02*
X1299Y168D01*
X0Y167D02*
X7Y167D01*
X1292Y167D02*
X1299Y167D01*
X0Y166D02*
X7Y166D01*
X1292Y166D02*
X1299Y166D01*
X0Y165D02*
X7Y165D01*
X1292Y165D02*
X1299Y165D01*
X0Y164D02*
X7Y164D01*
X1292Y164D02*
X1299Y164D01*
X0Y163D02*
X7Y163D01*
X1292Y163D02*
X1299Y163D01*
X0Y162D02*
X7Y162D01*
X1292Y162D02*
X1299Y162D01*
X0Y161D02*
X7Y161D01*
X1292Y161D02*
X1299Y161D01*
X0Y160D02*
X7Y160D01*
X1292Y160D02*
X1299Y160D01*
X0Y159D02*
X7Y159D01*
X1292Y159D02*
X1299Y159D01*
X0Y158D02*
X7Y158D01*
X1292Y158D02*
X1299Y158D01*
X0Y157D02*
X7Y157D01*
X1292Y157D02*
X1299Y157D01*
X0Y156D02*
X7Y156D01*
X1292Y156D02*
X1299Y156D01*
X0Y155D02*
X7Y155D01*
X1292Y155D02*
X1299Y155D01*
X0Y154D02*
X7Y154D01*
X1292Y154D02*
X1299Y154D01*
X0Y153D02*
X7Y153D01*
X1292Y153D02*
X1299Y153D01*
X0Y152D02*
X7Y152D01*
X1292Y152D02*
X1299Y152D01*
X0Y151D02*
X7Y151D01*
X1292Y151D02*
X1299Y151D01*
X0Y150D02*
X7Y150D01*
X1292Y150D02*
X1299Y150D01*
X0Y149D02*
X7Y149D01*
X1292Y149D02*
X1299Y149D01*
X0Y148D02*
X7Y148D01*
X1292Y148D02*
X1299Y148D01*
X0Y147D02*
X7Y147D01*
X1292Y147D02*
X1299Y147D01*
X0Y146D02*
X7Y146D01*
X1292Y146D02*
X1299Y146D01*
X0Y145D02*
X7Y145D01*
X1292Y145D02*
X1299Y145D01*
X0Y144D02*
X7Y144D01*
X1292Y144D02*
X1299Y144D01*
X0Y143D02*
X7Y143D01*
X1292Y143D02*
X1299Y143D01*
X0Y142D02*
X7Y142D01*
X1292Y142D02*
X1299Y142D01*
X0Y141D02*
X7Y141D01*
X1292Y141D02*
X1299Y141D01*
X0Y140D02*
X7Y140D01*
X1292Y140D02*
X1299Y140D01*
X0Y139D02*
X7Y139D01*
X1292Y139D02*
X1299Y139D01*
X0Y138D02*
X7Y138D01*
X1292Y138D02*
X1299Y138D01*
X0Y137D02*
X7Y137D01*
X1292Y137D02*
X1299Y137D01*
X0Y136D02*
X7Y136D01*
X1292Y136D02*
X1299Y136D01*
X0Y135D02*
X7Y135D01*
X1292Y135D02*
X1299Y135D01*
X0Y134D02*
X7Y134D01*
X1292Y134D02*
X1299Y134D01*
X0Y133D02*
X7Y133D01*
X1292Y133D02*
X1299Y133D01*
X0Y132D02*
X7Y132D01*
X1292Y132D02*
X1299Y132D01*
X0Y131D02*
X7Y131D01*
X1292Y131D02*
X1299Y131D01*
X0Y130D02*
X7Y130D01*
X1292Y130D02*
X1299Y130D01*
X0Y129D02*
X7Y129D01*
X1292Y129D02*
X1299Y129D01*
X0Y128D02*
X7Y128D01*
X1292Y128D02*
X1299Y128D01*
X0Y127D02*
X7Y127D01*
X1292Y127D02*
X1299Y127D01*
X0Y126D02*
X7Y126D01*
X1292Y126D02*
X1299Y126D01*
X0Y125D02*
X7Y125D01*
X1292Y125D02*
X1299Y125D01*
X0Y124D02*
X7Y124D01*
X1292Y124D02*
X1299Y124D01*
X0Y123D02*
X7Y123D01*
X1292Y123D02*
X1299Y123D01*
X0Y122D02*
X7Y122D01*
X1292Y122D02*
X1299Y122D01*
X0Y121D02*
X7Y121D01*
X1292Y121D02*
X1299Y121D01*
X0Y120D02*
X7Y120D01*
X1292Y120D02*
X1299Y120D01*
X0Y119D02*
X7Y119D01*
X482Y119D02*
X513Y119D01*
X545Y119D02*
X564Y119D01*
X790Y119D02*
X791Y119D01*
X841Y119D02*
X855Y119D01*
X1292Y119D02*
X1299Y119D01*
X0Y118D02*
X7Y118D01*
X482Y118D02*
X514Y118D01*
X544Y118D02*
X565Y118D01*
X788Y118D02*
X792Y118D01*
X837Y118D02*
X856Y118D01*
X1292Y118D02*
X1299Y118D01*
X0Y117D02*
X7Y117D01*
X481Y117D02*
X515Y117D01*
X542Y117D02*
X565Y117D01*
X788Y117D02*
X793Y117D01*
X836Y117D02*
X857Y117D01*
X1292Y117D02*
X1299Y117D01*
X0Y116D02*
X7Y116D01*
X481Y116D02*
X515Y116D01*
X541Y116D02*
X565Y116D01*
X787Y116D02*
X793Y116D01*
X834Y116D02*
X857Y116D01*
X1292Y116D02*
X1299Y116D01*
X0Y115D02*
X7Y115D01*
X481Y115D02*
X515Y115D01*
X541Y115D02*
X565Y115D01*
X787Y115D02*
X793Y115D01*
X834Y115D02*
X857Y115D01*
X1292Y115D02*
X1299Y115D01*
X0Y114D02*
X7Y114D01*
X481Y114D02*
X515Y114D01*
X540Y114D02*
X564Y114D01*
X787Y114D02*
X793Y114D01*
X833Y114D02*
X857Y114D01*
X1292Y114D02*
X1299Y114D01*
X0Y113D02*
X7Y113D01*
X481Y113D02*
X515Y113D01*
X540Y113D02*
X562Y113D01*
X787Y113D02*
X793Y113D01*
X832Y113D02*
X856Y113D01*
X1292Y113D02*
X1299Y113D01*
X0Y112D02*
X7Y112D01*
X481Y112D02*
X487Y112D01*
X509Y112D02*
X515Y112D01*
X539Y112D02*
X546Y112D01*
X552Y112D02*
X558Y112D01*
X787Y112D02*
X793Y112D01*
X832Y112D02*
X840Y112D01*
X844Y112D02*
X851Y112D01*
X1292Y112D02*
X1299Y112D01*
X0Y111D02*
X7Y111D01*
X481Y111D02*
X487Y111D01*
X509Y111D02*
X515Y111D01*
X539Y111D02*
X546Y111D01*
X552Y111D02*
X558Y111D01*
X787Y111D02*
X793Y111D01*
X831Y111D02*
X838Y111D01*
X844Y111D02*
X850Y111D01*
X1292Y111D02*
X1299Y111D01*
X0Y110D02*
X7Y110D01*
X481Y110D02*
X487Y110D01*
X509Y110D02*
X515Y110D01*
X538Y110D02*
X545Y110D01*
X552Y110D02*
X558Y110D01*
X787Y110D02*
X793Y110D01*
X831Y110D02*
X838Y110D01*
X844Y110D02*
X850Y110D01*
X1292Y110D02*
X1299Y110D01*
X0Y109D02*
X7Y109D01*
X481Y109D02*
X487Y109D01*
X509Y109D02*
X515Y109D01*
X538Y109D02*
X545Y109D01*
X552Y109D02*
X558Y109D01*
X787Y109D02*
X793Y109D01*
X830Y109D02*
X837Y109D01*
X844Y109D02*
X850Y109D01*
X1292Y109D02*
X1299Y109D01*
X0Y108D02*
X7Y108D01*
X481Y108D02*
X487Y108D01*
X509Y108D02*
X515Y108D01*
X537Y108D02*
X544Y108D01*
X552Y108D02*
X558Y108D01*
X787Y108D02*
X793Y108D01*
X830Y108D02*
X837Y108D01*
X844Y108D02*
X850Y108D01*
X1292Y108D02*
X1299Y108D01*
X0Y107D02*
X7Y107D01*
X481Y107D02*
X487Y107D01*
X509Y107D02*
X515Y107D01*
X537Y107D02*
X544Y107D01*
X552Y107D02*
X558Y107D01*
X787Y107D02*
X793Y107D01*
X829Y107D02*
X836Y107D01*
X844Y107D02*
X850Y107D01*
X1292Y107D02*
X1299Y107D01*
X0Y106D02*
X7Y106D01*
X481Y106D02*
X487Y106D01*
X509Y106D02*
X515Y106D01*
X536Y106D02*
X543Y106D01*
X552Y106D02*
X558Y106D01*
X787Y106D02*
X793Y106D01*
X829Y106D02*
X836Y106D01*
X844Y106D02*
X850Y106D01*
X1292Y106D02*
X1299Y106D01*
X0Y105D02*
X7Y105D01*
X481Y105D02*
X487Y105D01*
X509Y105D02*
X515Y105D01*
X536Y105D02*
X543Y105D01*
X552Y105D02*
X558Y105D01*
X787Y105D02*
X793Y105D01*
X828Y105D02*
X835Y105D01*
X844Y105D02*
X850Y105D01*
X1292Y105D02*
X1299Y105D01*
X0Y104D02*
X7Y104D01*
X481Y104D02*
X487Y104D01*
X509Y104D02*
X515Y104D01*
X535Y104D02*
X542Y104D01*
X552Y104D02*
X558Y104D01*
X787Y104D02*
X793Y104D01*
X828Y104D02*
X835Y104D01*
X844Y104D02*
X850Y104D01*
X1292Y104D02*
X1299Y104D01*
X0Y103D02*
X7Y103D01*
X481Y103D02*
X487Y103D01*
X509Y103D02*
X515Y103D01*
X535Y103D02*
X541Y103D01*
X552Y103D02*
X558Y103D01*
X787Y103D02*
X793Y103D01*
X827Y103D02*
X834Y103D01*
X844Y103D02*
X850Y103D01*
X1292Y103D02*
X1299Y103D01*
X0Y102D02*
X7Y102D01*
X481Y102D02*
X515Y102D01*
X534Y102D02*
X541Y102D01*
X552Y102D02*
X558Y102D01*
X787Y102D02*
X793Y102D01*
X827Y102D02*
X834Y102D01*
X844Y102D02*
X850Y102D01*
X1292Y102D02*
X1299Y102D01*
X0Y101D02*
X7Y101D01*
X481Y101D02*
X515Y101D01*
X534Y101D02*
X540Y101D01*
X552Y101D02*
X558Y101D01*
X787Y101D02*
X793Y101D01*
X826Y101D02*
X833Y101D01*
X844Y101D02*
X850Y101D01*
X1292Y101D02*
X1299Y101D01*
X0Y100D02*
X7Y100D01*
X481Y100D02*
X515Y100D01*
X533Y100D02*
X540Y100D01*
X552Y100D02*
X558Y100D01*
X787Y100D02*
X793Y100D01*
X826Y100D02*
X833Y100D01*
X844Y100D02*
X850Y100D01*
X1292Y100D02*
X1299Y100D01*
X0Y99D02*
X7Y99D01*
X481Y99D02*
X515Y99D01*
X533Y99D02*
X539Y99D01*
X552Y99D02*
X558Y99D01*
X787Y99D02*
X793Y99D01*
X825Y99D02*
X832Y99D01*
X844Y99D02*
X850Y99D01*
X1292Y99D02*
X1299Y99D01*
X0Y98D02*
X7Y98D01*
X481Y98D02*
X515Y98D01*
X532Y98D02*
X539Y98D01*
X552Y98D02*
X558Y98D01*
X786Y98D02*
X793Y98D01*
X825Y98D02*
X832Y98D01*
X844Y98D02*
X850Y98D01*
X1292Y98D02*
X1299Y98D01*
X0Y97D02*
X7Y97D01*
X482Y97D02*
X515Y97D01*
X532Y97D02*
X538Y97D01*
X552Y97D02*
X558Y97D01*
X784Y97D02*
X793Y97D01*
X825Y97D02*
X831Y97D01*
X844Y97D02*
X850Y97D01*
X1292Y97D02*
X1299Y97D01*
X0Y96D02*
X7Y96D01*
X483Y96D02*
X515Y96D01*
X532Y96D02*
X538Y96D01*
X552Y96D02*
X558Y96D01*
X783Y96D02*
X793Y96D01*
X824Y96D02*
X831Y96D01*
X844Y96D02*
X850Y96D01*
X1292Y96D02*
X1299Y96D01*
X0Y95D02*
X7Y95D01*
X509Y95D02*
X515Y95D01*
X532Y95D02*
X538Y95D01*
X552Y95D02*
X558Y95D01*
X782Y95D02*
X792Y95D01*
X824Y95D02*
X830Y95D01*
X844Y95D02*
X850Y95D01*
X1292Y95D02*
X1299Y95D01*
X0Y94D02*
X7Y94D01*
X509Y94D02*
X515Y94D01*
X531Y94D02*
X538Y94D01*
X552Y94D02*
X558Y94D01*
X781Y94D02*
X791Y94D01*
X824Y94D02*
X830Y94D01*
X844Y94D02*
X850Y94D01*
X1292Y94D02*
X1299Y94D01*
X0Y93D02*
X7Y93D01*
X509Y93D02*
X515Y93D01*
X531Y93D02*
X537Y93D01*
X552Y93D02*
X558Y93D01*
X780Y93D02*
X789Y93D01*
X824Y93D02*
X830Y93D01*
X844Y93D02*
X850Y93D01*
X1292Y93D02*
X1299Y93D01*
X0Y92D02*
X7Y92D01*
X509Y92D02*
X515Y92D01*
X531Y92D02*
X537Y92D01*
X552Y92D02*
X558Y92D01*
X778Y92D02*
X788Y92D01*
X824Y92D02*
X830Y92D01*
X844Y92D02*
X850Y92D01*
X1292Y92D02*
X1299Y92D01*
X0Y91D02*
X7Y91D01*
X509Y91D02*
X515Y91D01*
X532Y91D02*
X538Y91D01*
X552Y91D02*
X558Y91D01*
X777Y91D02*
X787Y91D01*
X824Y91D02*
X830Y91D01*
X844Y91D02*
X850Y91D01*
X1292Y91D02*
X1299Y91D01*
X0Y90D02*
X7Y90D01*
X509Y90D02*
X515Y90D01*
X532Y90D02*
X538Y90D01*
X552Y90D02*
X558Y90D01*
X776Y90D02*
X786Y90D01*
X824Y90D02*
X830Y90D01*
X844Y90D02*
X850Y90D01*
X1292Y90D02*
X1299Y90D01*
X0Y89D02*
X7Y89D01*
X509Y89D02*
X515Y89D01*
X532Y89D02*
X538Y89D01*
X552Y89D02*
X558Y89D01*
X775Y89D02*
X785Y89D01*
X824Y89D02*
X830Y89D01*
X844Y89D02*
X850Y89D01*
X1292Y89D02*
X1299Y89D01*
X0Y88D02*
X7Y88D01*
X509Y88D02*
X515Y88D01*
X532Y88D02*
X539Y88D01*
X552Y88D02*
X558Y88D01*
X774Y88D02*
X784Y88D01*
X824Y88D02*
X831Y88D01*
X844Y88D02*
X850Y88D01*
X1292Y88D02*
X1299Y88D01*
X0Y87D02*
X7Y87D01*
X509Y87D02*
X515Y87D01*
X533Y87D02*
X539Y87D01*
X552Y87D02*
X558Y87D01*
X774Y87D02*
X782Y87D01*
X825Y87D02*
X831Y87D01*
X844Y87D02*
X850Y87D01*
X1292Y87D02*
X1299Y87D01*
X0Y86D02*
X7Y86D01*
X509Y86D02*
X515Y86D01*
X533Y86D02*
X540Y86D01*
X552Y86D02*
X558Y86D01*
X774Y86D02*
X781Y86D01*
X825Y86D02*
X832Y86D01*
X844Y86D02*
X850Y86D01*
X1292Y86D02*
X1299Y86D01*
X0Y85D02*
X7Y85D01*
X509Y85D02*
X515Y85D01*
X533Y85D02*
X540Y85D01*
X552Y85D02*
X558Y85D01*
X774Y85D02*
X780Y85D01*
X825Y85D02*
X832Y85D01*
X844Y85D02*
X850Y85D01*
X1292Y85D02*
X1299Y85D01*
X0Y84D02*
X7Y84D01*
X509Y84D02*
X515Y84D01*
X534Y84D02*
X541Y84D01*
X552Y84D02*
X558Y84D01*
X774Y84D02*
X780Y84D01*
X826Y84D02*
X833Y84D01*
X844Y84D02*
X850Y84D01*
X1292Y84D02*
X1299Y84D01*
X0Y83D02*
X7Y83D01*
X509Y83D02*
X515Y83D01*
X534Y83D02*
X541Y83D01*
X552Y83D02*
X558Y83D01*
X774Y83D02*
X780Y83D01*
X826Y83D02*
X833Y83D01*
X844Y83D02*
X850Y83D01*
X1292Y83D02*
X1299Y83D01*
X0Y82D02*
X7Y82D01*
X509Y82D02*
X515Y82D01*
X535Y82D02*
X542Y82D01*
X552Y82D02*
X558Y82D01*
X774Y82D02*
X780Y82D01*
X827Y82D02*
X834Y82D01*
X844Y82D02*
X850Y82D01*
X1292Y82D02*
X1299Y82D01*
X0Y81D02*
X7Y81D01*
X509Y81D02*
X515Y81D01*
X535Y81D02*
X542Y81D01*
X552Y81D02*
X558Y81D01*
X774Y81D02*
X780Y81D01*
X827Y81D02*
X834Y81D01*
X844Y81D02*
X850Y81D01*
X1292Y81D02*
X1299Y81D01*
X0Y80D02*
X7Y80D01*
X509Y80D02*
X515Y80D01*
X536Y80D02*
X543Y80D01*
X552Y80D02*
X558Y80D01*
X774Y80D02*
X780Y80D01*
X828Y80D02*
X835Y80D01*
X844Y80D02*
X850Y80D01*
X1292Y80D02*
X1299Y80D01*
X0Y79D02*
X7Y79D01*
X509Y79D02*
X515Y79D01*
X536Y79D02*
X543Y79D01*
X552Y79D02*
X558Y79D01*
X774Y79D02*
X780Y79D01*
X828Y79D02*
X835Y79D01*
X844Y79D02*
X850Y79D01*
X1292Y79D02*
X1299Y79D01*
X0Y78D02*
X7Y78D01*
X509Y78D02*
X515Y78D01*
X537Y78D02*
X544Y78D01*
X552Y78D02*
X558Y78D01*
X774Y78D02*
X780Y78D01*
X829Y78D02*
X836Y78D01*
X844Y78D02*
X850Y78D01*
X1292Y78D02*
X1299Y78D01*
X0Y77D02*
X7Y77D01*
X509Y77D02*
X515Y77D01*
X537Y77D02*
X544Y77D01*
X552Y77D02*
X558Y77D01*
X774Y77D02*
X780Y77D01*
X829Y77D02*
X836Y77D01*
X844Y77D02*
X850Y77D01*
X1292Y77D02*
X1299Y77D01*
X0Y76D02*
X7Y76D01*
X509Y76D02*
X515Y76D01*
X538Y76D02*
X545Y76D01*
X552Y76D02*
X558Y76D01*
X774Y76D02*
X780Y76D01*
X830Y76D02*
X837Y76D01*
X844Y76D02*
X850Y76D01*
X1292Y76D02*
X1299Y76D01*
X0Y75D02*
X7Y75D01*
X509Y75D02*
X515Y75D01*
X538Y75D02*
X545Y75D01*
X552Y75D02*
X558Y75D01*
X774Y75D02*
X780Y75D01*
X830Y75D02*
X837Y75D01*
X844Y75D02*
X850Y75D01*
X1292Y75D02*
X1299Y75D01*
X0Y74D02*
X7Y74D01*
X509Y74D02*
X515Y74D01*
X539Y74D02*
X546Y74D01*
X552Y74D02*
X558Y74D01*
X774Y74D02*
X780Y74D01*
X802Y74D02*
X806Y74D01*
X831Y74D02*
X838Y74D01*
X844Y74D02*
X850Y74D01*
X1292Y74D02*
X1299Y74D01*
X0Y73D02*
X7Y73D01*
X509Y73D02*
X515Y73D01*
X539Y73D02*
X547Y73D01*
X552Y73D02*
X558Y73D01*
X774Y73D02*
X780Y73D01*
X802Y73D02*
X807Y73D01*
X831Y73D02*
X839Y73D01*
X844Y73D02*
X850Y73D01*
X1292Y73D02*
X1299Y73D01*
X0Y72D02*
X7Y72D01*
X507Y72D02*
X515Y72D01*
X540Y72D02*
X564Y72D01*
X774Y72D02*
X807Y72D01*
X832Y72D02*
X854Y72D01*
X1292Y72D02*
X1299Y72D01*
X0Y71D02*
X7Y71D01*
X506Y71D02*
X515Y71D01*
X541Y71D02*
X564Y71D01*
X774Y71D02*
X807Y71D01*
X832Y71D02*
X856Y71D01*
X1292Y71D02*
X1299Y71D01*
X0Y70D02*
X7Y70D01*
X505Y70D02*
X515Y70D01*
X541Y70D02*
X565Y70D01*
X774Y70D02*
X807Y70D01*
X833Y70D02*
X857Y70D01*
X1292Y70D02*
X1299Y70D01*
X0Y69D02*
X7Y69D01*
X505Y69D02*
X515Y69D01*
X542Y69D02*
X565Y69D01*
X774Y69D02*
X807Y69D01*
X834Y69D02*
X857Y69D01*
X1292Y69D02*
X1299Y69D01*
X0Y68D02*
X7Y68D01*
X506Y68D02*
X514Y68D01*
X543Y68D02*
X565Y68D01*
X774Y68D02*
X807Y68D01*
X835Y68D02*
X857Y68D01*
X1292Y68D02*
X1299Y68D01*
X0Y67D02*
X7Y67D01*
X506Y67D02*
X514Y67D01*
X545Y67D02*
X564Y67D01*
X774Y67D02*
X807Y67D01*
X836Y67D02*
X857Y67D01*
X1292Y67D02*
X1299Y67D01*
X0Y66D02*
X7Y66D01*
X508Y66D02*
X512Y66D01*
X547Y66D02*
X563Y66D01*
X774Y66D02*
X806Y66D01*
X838Y66D02*
X856Y66D01*
X1292Y66D02*
X1299Y66D01*
X0Y65D02*
X7Y65D01*
X774Y65D02*
X803Y65D01*
X842Y65D02*
X854Y65D01*
X1292Y65D02*
X1299Y65D01*
X0Y64D02*
X7Y64D01*
X1292Y64D02*
X1299Y64D01*
X0Y63D02*
X7Y63D01*
X1292Y63D02*
X1299Y63D01*
X0Y62D02*
X7Y62D01*
X1292Y62D02*
X1299Y62D01*
X0Y61D02*
X7Y61D01*
X1292Y61D02*
X1299Y61D01*
X0Y60D02*
X7Y60D01*
X1292Y60D02*
X1299Y60D01*
X0Y59D02*
X7Y59D01*
X1292Y59D02*
X1299Y59D01*
X0Y58D02*
X7Y58D01*
X1292Y58D02*
X1299Y58D01*
X0Y57D02*
X7Y57D01*
X1292Y57D02*
X1299Y57D01*
X0Y56D02*
X7Y56D01*
X1292Y56D02*
X1299Y56D01*
X0Y55D02*
X7Y55D01*
X1292Y55D02*
X1299Y55D01*
X0Y54D02*
X7Y54D01*
X1292Y54D02*
X1299Y54D01*
X0Y53D02*
X7Y53D01*
X1292Y53D02*
X1299Y53D01*
X0Y52D02*
X7Y52D01*
X1292Y52D02*
X1299Y52D01*
X0Y51D02*
X7Y51D01*
X1292Y51D02*
X1299Y51D01*
X0Y50D02*
X7Y50D01*
X1292Y50D02*
X1299Y50D01*
X0Y49D02*
X7Y49D01*
X1292Y49D02*
X1299Y49D01*
X0Y48D02*
X7Y48D01*
X1292Y48D02*
X1299Y48D01*
X0Y47D02*
X7Y47D01*
X1292Y47D02*
X1299Y47D01*
X0Y46D02*
X7Y46D01*
X1292Y46D02*
X1299Y46D01*
X0Y45D02*
X7Y45D01*
X1292Y45D02*
X1299Y45D01*
X0Y44D02*
X7Y44D01*
X1292Y44D02*
X1299Y44D01*
X0Y43D02*
X7Y43D01*
X1292Y43D02*
X1299Y43D01*
X0Y42D02*
X7Y42D01*
X1292Y42D02*
X1299Y42D01*
X0Y41D02*
X7Y41D01*
X1292Y41D02*
X1299Y41D01*
X0Y40D02*
X7Y40D01*
X1292Y40D02*
X1299Y40D01*
X0Y39D02*
X7Y39D01*
X1292Y39D02*
X1299Y39D01*
X0Y38D02*
X7Y38D01*
X1292Y38D02*
X1299Y38D01*
X0Y37D02*
X7Y37D01*
X1292Y37D02*
X1299Y37D01*
X0Y36D02*
X7Y36D01*
X1292Y36D02*
X1299Y36D01*
X0Y35D02*
X7Y35D01*
X1292Y35D02*
X1299Y35D01*
X0Y34D02*
X7Y34D01*
X1292Y34D02*
X1299Y34D01*
X0Y33D02*
X7Y33D01*
X1292Y33D02*
X1299Y33D01*
X0Y32D02*
X7Y32D01*
X1292Y32D02*
X1299Y32D01*
X0Y31D02*
X7Y31D01*
X1292Y31D02*
X1299Y31D01*
X0Y30D02*
X7Y30D01*
X1292Y30D02*
X1299Y30D01*
X0Y29D02*
X7Y29D01*
X1292Y29D02*
X1299Y29D01*
X0Y28D02*
X7Y28D01*
X1292Y28D02*
X1299Y28D01*
X0Y27D02*
X7Y27D01*
X1292Y27D02*
X1299Y27D01*
X0Y26D02*
X7Y26D01*
X1292Y26D02*
X1299Y26D01*
X0Y25D02*
X7Y25D01*
X1292Y25D02*
X1299Y25D01*
X0Y24D02*
X7Y24D01*
X1292Y24D02*
X1299Y24D01*
X0Y23D02*
X7Y23D01*
X1292Y23D02*
X1299Y23D01*
X0Y22D02*
X7Y22D01*
X1292Y22D02*
X1299Y22D01*
X0Y21D02*
X7Y21D01*
X1292Y21D02*
X1299Y21D01*
X0Y20D02*
X7Y20D01*
X1292Y20D02*
X1299Y20D01*
X0Y19D02*
X7Y19D01*
X1292Y19D02*
X1299Y19D01*
X0Y18D02*
X7Y18D01*
X1292Y18D02*
X1299Y18D01*
X0Y17D02*
X7Y17D01*
X1292Y17D02*
X1299Y17D01*
X0Y16D02*
X7Y16D01*
X1292Y16D02*
X1299Y16D01*
X0Y15D02*
X7Y15D01*
X1292Y15D02*
X1299Y15D01*
X0Y14D02*
X7Y14D01*
X1292Y14D02*
X1299Y14D01*
X0Y13D02*
X7Y13D01*
X1292Y13D02*
X1299Y13D01*
X0Y12D02*
X7Y12D01*
X1292Y12D02*
X1299Y12D01*
X0Y11D02*
X7Y11D01*
X1292Y11D02*
X1299Y11D01*
X0Y10D02*
X7Y10D01*
X1292Y10D02*
X1299Y10D01*
X0Y9D02*
X7Y9D01*
X1292Y9D02*
X1299Y9D01*
X0Y8D02*
X1299Y8D01*
X0Y7D02*
X1299Y7D01*
X0Y6D02*
X1299Y6D01*
X0Y5D02*
X1299Y5D01*
X0Y4D02*
X1299Y4D01*
X0Y3D02*
X1299Y3D01*
X0Y2D02*
X1299Y2D01*
X0Y1D02*
X1299Y1D01*
D02*
G04 End of Silk1*
M02*